<?xml version="1.0" encoding="utf-8"?>
<!-- SPDX-License-Identifier: CC-BY-2.0 -->
<!-- Copyright 2015 Game Art Guppy LLC -->
<!-- Generator: Adobe Illustrator 17.1.0, SVG Export Plug-In . SVG Version: 6.00 Build 0)  -->
<!DOCTYPE svg PUBLIC "-//W3C//DTD SVG 1.1//EN" "http://www.w3.org/Graphics/SVG/1.1/DTD/svg11.dtd">
<svg version="1.1" xmlns="http://www.w3.org/2000/svg" xmlns:xlink="http://www.w3.org/1999/xlink" x="0px" y="0px"
	 viewBox="0 0 72 64" enable-background="new 0 0 72 64" xml:space="preserve">
<g id="penguin_x5F_walk01">
	<g id="walk_1">
		<g>
			<g>
				<g>
					<g>
						<g>
							<path fill="none" stroke="#000000" stroke-width="6" stroke-linejoin="round" d="M47.7,18c-1-6.3-2.5-14.3-12.7-14.5
								s-21.8,9.4-25,22.4S8.9,47.7,6.8,51.4c6,7.4,30.5,7.2,37.9,0C51.2,45.1,48.7,23.8,47.7,18z"/>
							<path fill="none" stroke="#000000" stroke-width="6" stroke-linejoin="round" d="M47.7,18c-1-6.3-2.5-14.3-12.7-14.5
								s-21.8,9.4-25,22.4S8.9,47.7,6.8,51.4c6,7.4,30.5,7.2,37.9,0C51.2,45.1,48.7,23.8,47.7,18z"/>
						</g>
						<g>
							<path fill="none" stroke="#000000" stroke-width="6" stroke-linejoin="round" d="M12.7,27.8C17.2,9.1,35.8,1.6,43.4,7.2
								c-7.2-8-27.8,0.3-32.3,19.1C7.9,39.2,9.9,46.6,7.8,50.2C11.7,47.5,8.9,43.5,12.7,27.8z"/>
							<path fill="none" stroke="#000000" stroke-width="6" stroke-linejoin="round" d="M12.7,27.8C17.2,9.1,35.8,1.6,43.4,7.2
								c-7.2-8-27.8,0.3-32.3,19.1C7.9,39.2,9.9,46.6,7.8,50.2C11.7,47.5,8.9,43.5,12.7,27.8z"/>
						</g>
						<path fill="none" stroke="#000000" stroke-width="6" stroke-linejoin="round" d="M46.8,13.3c-2.6-2.4-5.4-3.4-9.8-3
							c-5.5,0.5-11.8,6.6-11.4,16.3C26,36.2,28.8,45.8,37.9,47c3.9,0.5,7.4,0.2,9.6-0.6c3.1-9.3,1.1-23.4,0.3-28.4
							C47.5,16.5,47.2,14.9,46.8,13.3z"/>
						<g>
							<path fill="none" stroke="#000000" stroke-width="6" stroke-linejoin="round" d="M44.7,51.3c4.1-4,4.6-14.2,4.1-22.6
								c-0.7,2.9,0.9,14.3-5.8,19.7c-6.3,5.2-30.1,5-36.2,2.7c0,0.1-0.1,0.1-0.1,0.2C12.8,58.8,37.3,58.6,44.7,51.3z"/>
							<path fill="none" stroke="#000000" stroke-width="6" stroke-linejoin="round" d="M44.7,51.3c4.1-4,4.6-14.2,4.1-22.6
								c-0.7,2.9,0.9,14.3-5.8,19.7c-6.3,5.2-30.1,5-36.2,2.7c0,0.1-0.1,0.1-0.1,0.2C12.8,58.8,37.3,58.6,44.7,51.3z"/>
						</g>
					</g>
					<g>
						<g>
							<path fill="none" stroke="#000000" stroke-width="6" stroke-linejoin="round" d="M47.7,18c-1-6.3-2.5-14.3-12.7-14.5
								s-21.8,9.4-25,22.4S8.9,47.7,6.8,51.4c6,7.4,30.5,7.2,37.9,0C51.2,45.1,48.7,23.8,47.7,18z"/>
							<path fill="none" stroke="#000000" stroke-width="6" stroke-linejoin="round" d="M47.7,18c-1-6.3-2.5-14.3-12.7-14.5
								s-21.8,9.4-25,22.4S8.9,47.7,6.8,51.4c6,7.4,30.5,7.2,37.9,0C51.2,45.1,48.7,23.8,47.7,18z"/>
						</g>
						<g>
							<path fill="none" stroke="#000000" stroke-width="6" stroke-linejoin="round" d="M12.7,27.8C17.2,9.1,35.8,1.6,43.4,7.2
								c-7.2-8-27.8,0.3-32.3,19.1C7.9,39.2,9.9,46.6,7.8,50.2C11.7,47.5,8.9,43.5,12.7,27.8z"/>
							<path fill="none" stroke="#000000" stroke-width="6" stroke-linejoin="round" d="M12.7,27.8C17.2,9.1,35.8,1.6,43.4,7.2
								c-7.2-8-27.8,0.3-32.3,19.1C7.9,39.2,9.9,46.6,7.8,50.2C11.7,47.5,8.9,43.5,12.7,27.8z"/>
						</g>
						<path fill="none" stroke="#000000" stroke-width="6" stroke-linejoin="round" d="M46.8,13.3c-2.6-2.4-5.4-3.4-9.8-3
							c-5.5,0.5-11.8,6.6-11.4,16.3C26,36.2,28.8,45.8,37.9,47c3.9,0.5,7.4,0.2,9.6-0.6c3.1-9.3,1.1-23.4,0.3-28.4
							C47.5,16.5,47.2,14.9,46.8,13.3z"/>
						<g>
							<path fill="none" stroke="#000000" stroke-width="6" stroke-linejoin="round" d="M44.7,51.3c4.1-4,4.6-14.2,4.1-22.6
								c-0.7,2.9,0.9,14.3-5.8,19.7c-6.3,5.2-30.1,5-36.2,2.7c0,0.1-0.1,0.1-0.1,0.2C12.8,58.8,37.3,58.6,44.7,51.3z"/>
							<path fill="none" stroke="#000000" stroke-width="6" stroke-linejoin="round" d="M44.7,51.3c4.1-4,4.6-14.2,4.1-22.6
								c-0.7,2.9,0.9,14.3-5.8,19.7c-6.3,5.2-30.1,5-36.2,2.7c0,0.1-0.1,0.1-0.1,0.2C12.8,58.8,37.3,58.6,44.7,51.3z"/>
						</g>
					</g>
					<g>
						<g>
							<path fill="none" stroke="#000000" stroke-width="6" stroke-linejoin="round" d="M47.7,18c-1-6.3-2.5-14.3-12.7-14.5
								s-21.8,9.4-25,22.4S8.9,47.7,6.8,51.4c6,7.4,30.5,7.2,37.9,0C51.2,45.1,48.7,23.8,47.7,18z"/>
							<path fill="none" stroke="#000000" stroke-width="6" stroke-linejoin="round" d="M47.7,18c-1-6.3-2.5-14.3-12.7-14.5
								s-21.8,9.4-25,22.4S8.9,47.7,6.8,51.4c6,7.4,30.5,7.2,37.9,0C51.2,45.1,48.7,23.8,47.7,18z"/>
						</g>
						<g>
							<path fill="none" stroke="#000000" stroke-width="6" stroke-linejoin="round" d="M12.7,27.8C17.2,9.1,35.8,1.6,43.4,7.2
								c-7.2-8-27.8,0.3-32.3,19.1C7.9,39.2,9.9,46.6,7.8,50.2C11.7,47.5,8.9,43.5,12.7,27.8z"/>
							<path fill="none" stroke="#000000" stroke-width="6" stroke-linejoin="round" d="M12.7,27.8C17.2,9.1,35.8,1.6,43.4,7.2
								c-7.2-8-27.8,0.3-32.3,19.1C7.9,39.2,9.9,46.6,7.8,50.2C11.7,47.5,8.9,43.5,12.7,27.8z"/>
						</g>
						<path fill="none" stroke="#000000" stroke-width="6" stroke-linejoin="round" d="M46.8,13.3c-2.6-2.4-5.4-3.4-9.8-3
							c-5.5,0.5-11.8,6.6-11.4,16.3C26,36.2,28.8,45.8,37.9,47c3.9,0.5,7.4,0.2,9.6-0.6c3.1-9.3,1.1-23.4,0.3-28.4
							C47.5,16.5,47.2,14.9,46.8,13.3z"/>
						<g>
							<path fill="none" stroke="#000000" stroke-width="6" stroke-linejoin="round" d="M44.7,51.3c4.1-4,4.6-14.2,4.1-22.6
								c-0.7,2.9,0.9,14.3-5.8,19.7c-6.3,5.2-30.1,5-36.2,2.7c0,0.1-0.1,0.1-0.1,0.2C12.8,58.8,37.3,58.6,44.7,51.3z"/>
							<path fill="none" stroke="#000000" stroke-width="6" stroke-linejoin="round" d="M44.7,51.3c4.1-4,4.6-14.2,4.1-22.6
								c-0.7,2.9,0.9,14.3-5.8,19.7c-6.3,5.2-30.1,5-36.2,2.7c0,0.1-0.1,0.1-0.1,0.2C12.8,58.8,37.3,58.6,44.7,51.3z"/>
						</g>
					</g>
				</g>
				<g>
					<g>
						<path fill="none" stroke="#000000" stroke-width="6" stroke-linejoin="round" d="M35.1,12.2c0,0,0.2,0,0.5,0
							c0.3,0,0.9,0.1,1.6,0.2c0.7,0.2,1.4,0.5,2.2,1c0.8,0.5,1.5,1.2,2.2,2.1c0.7,0.9,1.2,2,1.4,3.3c0.1,0.3,0.1,0.6,0.2,1
							c0,0.3,0,0.7,0.1,1l0,0.5l0,0.3l0,0.1l0,0l0,0.1l0,0l0,0.1L43,22.4l0,0.2L42.9,23c-0.3,0.8-0.6,1.5-1,2.1
							c-0.4,0.6-0.9,1.2-1.5,1.8c-1.1,1.1-2.6,2-4.3,2.4l-0.7,0.1c-0.2,0-0.5,0-0.7,0l-0.7,0c-0.2,0-0.5-0.1-0.7-0.1l-0.7-0.1
							c-0.2-0.1-0.4-0.2-0.6-0.2c-0.4-0.2-0.9-0.3-1.2-0.6c-0.8-0.4-1.4-1-2-1.6c-0.3-0.3-0.5-0.6-0.8-0.9l-0.4-0.5l-0.3-0.6
							c-0.3-0.3-0.8-1.6-0.9-2.4c-0.2-0.8-0.2-1.7-0.1-2.5c0.2-1.6,0.7-3,1.5-4c0.8-1,1.7-1.7,2.6-2.2c0.9-0.5,1.7-0.8,2.4-1
							c0.3-0.1,0.7-0.2,0.9-0.2c0.3-0.1,0.5-0.1,0.7-0.1C34.8,12.2,35,12.2,35.1,12.2L35.1,12.2z M35.4,14.2L35.4,14.2
							c0,0-0.1,0.1-0.4,0.2c-0.1,0-0.3,0.1-0.4,0.2c-0.2,0.1-0.3,0.2-0.5,0.4c-0.4,0.3-0.8,0.8-1.1,1.4c-0.4,0.6-0.7,1.3-1,2
							c-0.3,0.7-0.6,1.4-0.7,2.1c-0.1,0.3-0.1,0.7,0,1c0,0.2,0.1,0.3,0.1,0.4c0,0.1,0,0.1,0,0.2l0.2,0.4l0.1,0.2l0.1,0.1l0,0.1l0,0
							c0.1,0.1-0.1-0.2-0.1-0.2l0,0l0.2,0.3l0.4,0.6c0.3,0.3,0.6,0.7,0.9,1c0.7,0.5,1.4,0.8,2.4,0.8c0.9,0,2-0.4,2.9-1
							c0.5-0.3,0.9-0.7,1.2-1.1c0.4-0.4,0.7-0.9,0.9-1.2l0.1-0.1l0.1-0.2l0.1-0.4l0-0.1l0,0c0,0,0-0.1,0,0.1l0,0l0,0l0-0.2l0.1-0.4
							c0-0.3,0-0.5,0.1-0.8c0-0.3,0-0.5,0-0.8c-0.1-1-0.4-2-0.9-2.8c-0.4-0.8-1-1.4-1.7-1.8c-0.6-0.4-1.2-0.5-1.7-0.5
							c-0.5,0-0.8,0-1.1,0.1C35.6,14.2,35.4,14.2,35.4,14.2z"/>
						<path fill="none" stroke="#000000" stroke-width="6" stroke-linejoin="round" d="M35.2,13.2c4.4-0.7,7.6,4,6.9,8.3
							s-8,9.5-12.4,2.5C26.7,19.3,31.4,13.8,35.2,13.2z"/>
					</g>
					<ellipse fill="none" stroke="#000000" stroke-width="6" stroke-linejoin="round" cx="39.6" cy="21.8" rx="1.7" ry="1.9"/>
				</g>
				<g>
					<path fill="none" stroke="#000000" stroke-width="6" stroke-linejoin="round" d="M48,18.5c-2.1,0.1-4.1,4.5-4.1,7
						c0,3.8,2.9,6.4,4.5,5.9c1.6-0.5,7.9-5.8,7.9-7.1C56.3,23.6,49.6,18.4,48,18.5z"/>
					<g>
						<path fill="none" stroke="#000000" stroke-width="6" stroke-linejoin="round" d="M47.6,19.9c1.2-1.3,7.6,2.9,7.1,3.7
							c-0.5,0.8-9.8,1.2-9.3,0C45.9,22.4,46.5,21.2,47.6,19.9z"/>
						<path fill="none" stroke="#000000" stroke-width="6" stroke-linejoin="round" d="M47.6,19.9c1.2-1.3,7.6,2.9,7.1,3.7
							c-0.5,0.8-9.8,1.2-9.3,0C45.9,22.4,46.5,21.2,47.6,19.9z"/>
					</g>
					<g>
						<path fill="none" stroke="#000000" stroke-width="6" stroke-linejoin="round" d="M56,24.9c-3.2,1-9,2-12,1.8
							c0.5,3.1,3,5,4.4,4.6C49.9,30.9,54.7,26.8,56,24.9z"/>
						<path fill="none" stroke="#000000" stroke-width="6" stroke-linejoin="round" d="M56,24.9c-3.2,1-9,2-12,1.8
							c0.5,3.1,3,5,4.4,4.6C49.9,30.9,54.7,26.8,56,24.9z"/>
					</g>
				</g>
			</g>
			<g>
				<g>
					<g>
						<g>
							<path fill="#4F504F" d="M47.7,18c-1-6.3-2.5-14.3-12.7-14.5s-21.8,9.4-25,22.4S8.9,47.7,6.8,51.4c6,7.4,30.5,7.2,37.9,0
								C51.2,45.1,48.7,23.8,47.7,18z"/>
						</g>
						<g>
							<path fill="#706D6D" d="M12.7,27.8C17.2,9.1,35.8,1.6,43.4,7.2c-7.2-8-27.8,0.3-32.3,19.1C7.9,39.2,9.9,46.6,7.8,50.2
								C11.7,47.5,8.9,43.5,12.7,27.8z"/>
						</g>
						<path fill="#FFFFFF" d="M46.8,13.3c-2.6-2.4-5.4-3.4-9.8-3c-5.5,0.5-11.8,6.6-11.4,16.3C26,36.2,28.8,45.8,37.9,47
							c3.9,0.5,7.4,0.2,9.6-0.6c3.1-9.3,1.1-23.4,0.3-28.4C47.5,16.5,47.2,14.9,46.8,13.3z"/>
						<g opacity="0.5">
							<path fill="#4F504F" d="M44.7,51.3c4.1-4,4.6-14.2,4.1-22.6c-0.7,2.9,0.9,14.3-5.8,19.7c-6.3,5.2-30.1,5-36.2,2.7
								c0,0.1-0.1,0.1-0.1,0.2C12.8,58.8,37.3,58.6,44.7,51.3z"/>
						</g>
					</g>
				</g>
				<g>
					<g>
						<path d="M35.1,12.2c0,0,0.2,0,0.5,0c0.3,0,0.9,0.1,1.6,0.2c0.7,0.2,1.4,0.5,2.2,1c0.8,0.5,1.5,1.2,2.2,2.1
							c0.7,0.9,1.2,2,1.4,3.3c0.1,0.3,0.1,0.6,0.2,1c0,0.3,0,0.7,0.1,1l0,0.5l0,0.3l0,0.1l0,0l0,0.1l0,0l0,0.1L43,22.4l0,0.2
							L42.9,23c-0.3,0.8-0.6,1.5-1,2.1c-0.4,0.6-0.9,1.2-1.5,1.8c-1.1,1.1-2.6,2-4.3,2.4l-0.7,0.1c-0.2,0-0.5,0-0.7,0l-0.7,0
							c-0.2,0-0.5-0.1-0.7-0.1l-0.7-0.1c-0.2-0.1-0.4-0.2-0.6-0.2c-0.4-0.2-0.9-0.3-1.2-0.6c-0.8-0.4-1.4-1-2-1.6
							c-0.3-0.3-0.5-0.6-0.8-0.9l-0.4-0.5l-0.3-0.6c-0.3-0.3-0.8-1.6-0.9-2.4c-0.2-0.8-0.2-1.7-0.1-2.5c0.2-1.6,0.7-3,1.5-4
							c0.8-1,1.7-1.7,2.6-2.2c0.9-0.5,1.7-0.8,2.4-1c0.3-0.1,0.7-0.2,0.9-0.2c0.3-0.1,0.5-0.1,0.7-0.1C34.8,12.2,35,12.2,35.1,12.2
							L35.1,12.2z M35.4,14.2L35.4,14.2c0,0-0.1,0.1-0.4,0.2c-0.1,0-0.3,0.1-0.4,0.2c-0.2,0.1-0.3,0.2-0.5,0.4
							c-0.4,0.3-0.8,0.8-1.1,1.4c-0.4,0.6-0.7,1.3-1,2c-0.3,0.7-0.6,1.4-0.7,2.1c-0.1,0.3-0.1,0.7,0,1c0,0.2,0.1,0.3,0.1,0.4
							c0,0.1,0,0.1,0,0.2l0.2,0.4l0.1,0.2l0.1,0.1l0,0.1l0,0c0.1,0.1-0.1-0.2-0.1-0.2l0,0l0.2,0.3l0.4,0.6c0.3,0.3,0.6,0.7,0.9,1
							c0.7,0.5,1.4,0.8,2.4,0.8c0.9,0,2-0.4,2.9-1c0.5-0.3,0.9-0.7,1.2-1.1c0.4-0.4,0.7-0.9,0.9-1.2l0.1-0.1l0.1-0.2l0.1-0.4l0-0.1
							l0,0c0,0,0-0.1,0,0.1l0,0l0,0l0-0.2l0.1-0.4c0-0.3,0-0.5,0.1-0.8c0-0.3,0-0.5,0-0.8c-0.1-1-0.4-2-0.9-2.8
							c-0.4-0.8-1-1.4-1.7-1.8c-0.6-0.4-1.2-0.5-1.7-0.5c-0.5,0-0.8,0-1.1,0.1C35.6,14.2,35.4,14.2,35.4,14.2z"/>
						<path fill="#FFFFFF" d="M35.2,13.2c4.4-0.7,7.6,4,6.9,8.3s-8,9.5-12.4,2.5C26.7,19.3,31.4,13.8,35.2,13.2z"/>
					</g>
					<ellipse cx="39.6" cy="21.8" rx="1.7" ry="1.9"/>
				</g>
				<g>
					<path fill="#F79420" d="M48,18.5c-2.1,0.1-4.1,4.5-4.1,7c0,3.8,2.9,6.4,4.5,5.9c1.6-0.5,7.9-5.8,7.9-7.1
						C56.3,23.6,49.6,18.4,48,18.5z"/>
					<g>
						<path fill="#FDCA93" d="M47.6,19.9c1.2-1.3,7.6,2.9,7.1,3.7c-0.5,0.8-9.8,1.2-9.3,0C45.9,22.4,46.5,21.2,47.6,19.9z"/>
					</g>
					<g opacity="0.8">
						<path fill="#F26523" d="M56,24.9c-3.2,1-9,2-12,1.8c0.5,3.1,3,5,4.4,4.6C49.9,30.9,54.7,26.8,56,24.9z"/>
					</g>
				</g>
			</g>
		</g>
		<g>
			<g>
				<path d="M13,33.3c0,0,0-0.1,0-0.2c0-0.1,0-0.2,0.1-0.3c0-0.1,0.1-0.1,0.1-0.2c0.1-0.1,0.1-0.2,0.2-0.4c0.4-0.5,0.9-0.9,1.6-1.3
					c0.7-0.4,1.5-0.8,2.6-1.2c1-0.4,2.2-0.7,3.5-0.8c1.3-0.1,2.8,0.1,4.3,0.5c0.7,0.2,1.5,0.4,2.3,0.8c0.4,0.2,0.8,0.4,1.2,0.6
					c0.4,0.3,0.8,0.6,1.3,1.2c0.2,0.3,0.5,0.8,0.4,1.6l-0.1,0.8c-0.1,0.4-0.1,0.8-0.2,1.2c-0.1,0.8-0.2,1.6-0.4,2.4
					c-0.3,1.6-0.7,3.3-1.2,5c-0.5,1.7-1.2,3.3-2.3,5c-0.6,0.8-1.2,1.7-2.4,2.5c-0.6,0.4-1.4,0.8-2.4,0.9c-0.1,0-0.2,0-0.4,0l-0.2,0
					l-0.1,0l-0.2,0l-0.1,0l-0.4,0c-0.6-0.1-0.9-0.2-1.3-0.4c-1.4-0.7-2.2-1.6-2.8-2.4c-0.6-0.8-0.9-1.6-1.3-2.3
					c-0.6-1.5-1-2.9-1.2-4.2c-0.5-2.6-0.7-4.7-0.8-6.2c-0.1-0.8-0.1-1.4,0-1.8c0-0.4,0.1-0.7,0.1-0.7L13,33.3z M15.5,33.6
					c0,0,0,0.2,0.1,0.4c0.1,0.3,0.2,0.8,0.3,1.5c0.3,1.3,1,3.2,2.1,5.2c0.5,1,1.1,2.1,1.8,3.1c0.3,0.5,0.7,0.9,1,1.3
					c0.3,0.3,0.7,0.5,0.6,0.5c0,0,0,0-0.2-0.1l-0.1,0l0,0l0,0l0.1,0c-0.1,0,0.1,0-0.1,0l0,0l0,0l0,0l-0.1,0c-0.2,0-0.3,0.1-0.2,0.1
					c0.1,0,0.5-0.4,0.8-0.9c0.7-1,1.4-2.3,2.1-3.6c0.7-1.4,1.3-2.8,1.9-4.2c0.3-0.7,0.6-1.4,0.9-2.1c0.1-0.4,0.3-0.7,0.4-1
					c0.1-0.1,0.1-0.4,0.1-0.4c0,0.3,0.1,0.5,0.1,0.5c0.1,0-0.1-0.2-0.3-0.4c-0.2-0.2-0.4-0.4-0.7-0.6c-0.5-0.4-1.1-0.7-1.7-0.9
					c-1.2-0.5-2.4-0.8-3.5-0.9c-1.1-0.1-2.1,0.2-2.9,0.5c-0.8,0.4-1.5,0.8-1.9,1.3C15.8,33.1,15.6,33.4,15.5,33.6z"/>
				<path fill="#4F504F" d="M14.2,33.5c0.1-1.1,3.7-3.7,7.4-3.5c3.6,0.2,7.4,2.2,7.2,3.5c-0.2,1.3-3.5,15.1-7.7,15
					S14,36.1,14.2,33.5z"/>
			</g>
			<g>
				<path fill="#797575" d="M18.1,32.7c1.7-1.9,9.1-1.1,9.2,1.1S24.9,44,22.1,44.2C19.4,44.5,15.6,35.4,18.1,32.7z"/>
			</g>
		</g>
		<g>
			<g>
				<path fill="none" stroke="#010101" stroke-width="6" stroke-miterlimit="10" d="M21.5,53.3c3.1-2,8.2-2.8,12-1.2
					c4.2,1.8,7.1,4.5,6.6,6.6C39.6,61,21.5,61.1,20.4,59C19.6,57.3,19.4,54.7,21.5,53.3z"/>
				<path fill="#F79420" d="M21.5,53.3c3.1-2,8.2-2.8,12-1.2c4.2,1.8,7.1,4.5,6.6,6.6C39.6,61,21.5,61.1,20.4,59
					C19.6,57.3,19.4,54.7,21.5,53.3z"/>
			</g>
			<g>
				<path fill="#FDCA93" d="M39.8,56.9c-0.9-1.7-3.3-3.5-6.3-4.8c-3-1.2-6.8-1-9.8,0.1C27.7,55.8,34.7,57.2,39.8,56.9z"/>
			</g>
			<g>
				<path fill="#F26523" d="M40.1,58.8c0.1-0.4,0.1-0.7,0-1.1c-3,0.6-7.6,0.8-10.7,0.6c-3.7-0.2-7.8-0.9-9.4-3.1
					c-0.4,1.3-0.1,2.7,0.4,3.7C21.5,61.1,39.6,61,40.1,58.8z"/>
			</g>
		</g>
	</g>
</g>
</svg>
