<?xml version="1.0" encoding="utf-8"?>
<!-- SPDX-License-Identifier: CC-BY-2.0 -->
<!-- Copyright 2015 Game Art Guppy LLC -->
<!-- Generator: Adobe Illustrator 17.1.0, SVG Export Plug-In . SVG Version: 6.00 Build 0)  -->
<!DOCTYPE svg PUBLIC "-//W3C//DTD SVG 1.1//EN" "http://www.w3.org/Graphics/SVG/1.1/DTD/svg11.dtd">
<svg version="1.1" xmlns="http://www.w3.org/2000/svg" xmlns:xlink="http://www.w3.org/1999/xlink" x="0px" y="0px"
	 viewBox="0 0 72 64" enable-background="new 0 0 72 64" xml:space="preserve">
<g id="penguin_x5F_jump03">
	<g id="jump_3">
		<g>
			<g>
				<path fill="none" stroke="#010101" stroke-width="6" stroke-miterlimit="10" d="M38,53.8c1.3-3.4,4.8-7.2,8.7-8.2
					c4.3-1.1,8.1-0.7,8.9,1.3c0.8,2-13.2,13.1-15.3,12C38.7,58.1,37.1,56.1,38,53.8z"/>
				<path fill="#F79420" d="M38,53.8c1.3-3.4,4.8-7.2,8.7-8.2c4.3-1.1,8.1-0.7,8.9,1.3c0.8,2-13.2,13.1-15.3,12
					C38.7,58.1,37.1,56.1,38,53.8z"/>
			</g>
			<g>
				<path fill="#FDCA93" d="M54.3,45.6c-1.7-0.8-4.5-0.8-7.6,0c-3,0.8-5.9,3.3-7.6,6C44.2,52,50.4,48.9,54.3,45.6z"/>
			</g>
			<g>
				<path fill="#F26523" d="M55.6,46.9c-0.1-0.3-0.4-0.6-0.7-0.9c-2,2.3-5.5,5.2-8,6.9c-3,2.1-6.6,4-9.1,3.2
					c0.4,1.3,1.4,2.2,2.4,2.8C42.3,60,56.4,48.9,55.6,46.9z"/>
			</g>
		</g>
		<g>
			<g>
				<path d="M50,32.1c-0.1,0-0.3,0.1-0.6,0.1c-0.2,0-0.5,0.1-0.9,0.1c-0.2,0-0.5,0-0.7-0.1c-0.3-0.1-0.6-0.2-0.8-0.4
					c-0.5-0.4-0.7-0.9-0.9-1.3c-0.2-0.4-0.3-0.8-0.6-1.2c-0.2-0.4-0.5-0.8-0.8-1.2c-0.3-0.3-0.8-0.9-1.1-1.4c-0.7-1.1-1.5-2.3-2-3.8
					c-0.3-0.8-0.5-1.5-0.5-2.6c0-0.3,0-0.6,0.2-1c0.1-0.2,0.2-0.4,0.4-0.7c0.1-0.1,0.2-0.2,0.3-0.4l0.3-0.2c0.3-0.3,0.7-0.5,1-0.8
					c1.3-0.9,2.6-1.8,4-2.7c1.4-0.8,3-1.7,4.6-2.3c0.8-0.3,1.7-0.6,2.7-0.8c1-0.2,2.1-0.3,3.5,0c0.7,0.2,1.6,0.5,2.3,1.2
					c0.2,0.2,0.4,0.4,0.5,0.5l0.1,0.2l0,0l0,0.1l0.2,0.3c0.2,0.3,0.3,0.5,0.4,0.7c0.1,0.2,0.2,0.4,0.2,0.6c0.2,0.8,0.3,1.5,0.2,2.1
					c0,0.6-0.1,1.1-0.2,1.6c-0.2,1-0.6,1.8-0.9,2.6c-0.4,0.8-0.8,1.5-1.2,2.1c-0.8,1.3-1.7,2.4-2.6,3.3c-1.8,1.9-3.4,3.3-4.7,4.2
					C51.1,31.8,50,32.1,50,32.1L50,32.1z M48.7,30l0.5-0.2c0,0,0.1-0.1,0.4-0.2c0.2-0.2,0.6-0.4,1.1-0.9c0.9-0.9,2.1-2.4,3.1-4.4
					c0.5-1,1.1-2.1,1.5-3.3c0.4-1.2,0.8-2.4,1-3.4c0.1-0.5,0-0.9,0-0.8c0,0,0,0,0,0c0,0,0,0,0.1,0.2l0,0.1c0,0,0,0,0,0l0-0.1l0,0
					l0,0l0.1,0.1c0,0,0.1,0.1,0.1,0.1c0.2,0.2,0.3,0.2,0.2,0.2c-0.1-0.1-0.6-0.1-1.2,0c-0.6,0.1-1.3,0.2-2,0.4
					c-1.4,0.3-2.8,0.8-4.3,1.3c-1.4,0.5-2.9,1-4.2,1.6c-0.3,0.1-0.6,0.3-0.9,0.4l-0.1,0c0,0,0.1,0,0.1-0.1c0.1-0.1,0.1-0.1,0.1-0.2
					c0.1-0.1,0.1-0.2,0.1-0.2c0-0.1,0,0-0.1,0c-0.1,0.3-0.1,1,0,1.6c0.2,1.2,0.6,2.4,1.1,3.4c0.3,0.5,0.5,0.9,0.9,1.4
					c0.3,0.5,0.6,1,0.8,1.5c0.2,0.5,0.4,0.9,0.6,1.2c0.2,0.3,0.4,0.6,0.5,0.5C48.1,30.2,48.4,30.1,48.7,30z"/>
				<path fill="#4F504F" d="M49.6,30.9c-3,1.1-2.2-0.9-4.5-3.8c-2.2-2.8-3.2-6.9-2.1-7.7c1-0.7,13-7.6,15.6-4.4
					C61.2,18.3,53.8,29.4,49.6,30.9z"/>
			</g>
			<g>
				<path fill="#797575" d="M49.3,27.9c-2.5,0-6.7-5.9-5.2-7.5s8.7-5.1,10.7-3.3C56.8,19,52.9,27.9,49.3,27.9z"/>
			</g>
		</g>
		<g>
			<g>
				<g>
					<g>
						<g>
							<path fill="none" stroke="#000000" stroke-width="6" stroke-linejoin="round" d="M48.7,20.1C48.4,13.9,48,6.2,38.3,4.8
								s-21.9,6.5-26.4,18.6s-3.7,20.8-6.1,24c4.9,7.8,27.5,9.7,35.4,3.6C48,45.7,48.9,25.8,48.7,20.1z"/>
							<path fill="none" stroke="#000000" stroke-width="6" stroke-linejoin="round" d="M48.7,20.1C48.4,13.9,48,6.2,38.3,4.8
								s-21.9,6.5-26.4,18.6s-3.7,20.8-6.1,24c4.9,7.8,27.5,9.7,35.4,3.6C48,45.7,48.9,25.8,48.7,20.1z"/>
						</g>
						<g>
							<path fill="none" stroke="#000000" stroke-width="6" stroke-linejoin="round" d="M14.1,25.5C20.7,8.1,39.3,3,45.8,9.2
								c-5.9-8.5-26.5-2.9-33,14.6c-4.5,12-3.5,19.3-5.9,22.5C10.9,44.2,8.7,40.1,14.1,25.5z"/>
							<path fill="none" stroke="#000000" stroke-width="6" stroke-linejoin="round" d="M14.1,25.5C20.7,8.1,39.3,3,45.8,9.2
								c-5.9-8.5-26.5-2.9-33,14.6c-4.5,12-3.5,19.3-5.9,22.5C10.9,44.2,8.7,40.1,14.1,25.5z"/>
						</g>
						<path fill="none" stroke="#000000" stroke-width="6" stroke-linejoin="round" d="M48.3,15.5c-2.2-2.6-4.7-3.9-8.9-4
							c-5.3-0.2-12,5-12.8,14.3c-0.7,9.3,0.7,18.8,9.3,21c3.6,0.9,6,1.3,8.2,0.7c4-8.5,4.7-22.5,4.6-27.4
							C48.6,18.6,48.5,17.1,48.3,15.5z"/>
						<g>
							<path fill="none" stroke="#000000" stroke-width="6" stroke-linejoin="round" d="M41.2,51c4.4-3.4,6.7-12.4,7.3-20.5
								c-1,2.7-1.6,12.7-8.6,17.1c-6.6,4.2-28.5,2.5-34-0.4c0,0.1-0.1,0.1-0.1,0.2C10.6,55.1,33.3,57.1,41.2,51z"/>
							<path fill="none" stroke="#000000" stroke-width="6" stroke-linejoin="round" d="M41.2,51c4.4-3.4,6.7-12.4,7.3-20.5
								c-1,2.7-1.6,12.7-8.6,17.1c-6.6,4.2-28.5,2.5-34-0.4c0,0.1-0.1,0.1-0.1,0.2C10.6,55.1,33.3,57.1,41.2,51z"/>
						</g>
					</g>
					<g>
						<g>
							<path fill="none" stroke="#000000" stroke-width="6" stroke-linejoin="round" d="M48.7,20.1C48.4,13.9,48,6.2,38.3,4.8
								s-21.9,6.5-26.4,18.6s-3.7,20.8-6.1,24c4.9,7.8,27.5,9.7,35.4,3.6C48,45.7,48.9,25.8,48.7,20.1z"/>
							<path fill="none" stroke="#000000" stroke-width="6" stroke-linejoin="round" d="M48.7,20.1C48.4,13.9,48,6.2,38.3,4.8
								s-21.9,6.5-26.4,18.6s-3.7,20.8-6.1,24c4.9,7.8,27.5,9.7,35.4,3.6C48,45.7,48.9,25.8,48.7,20.1z"/>
						</g>
						<g>
							<path fill="none" stroke="#000000" stroke-width="6" stroke-linejoin="round" d="M14.1,25.5C20.7,8.1,39.3,3,45.8,9.2
								c-5.9-8.5-26.5-2.9-33,14.6c-4.5,12-3.5,19.3-5.9,22.5C10.9,44.2,8.7,40.1,14.1,25.5z"/>
							<path fill="none" stroke="#000000" stroke-width="6" stroke-linejoin="round" d="M14.1,25.5C20.7,8.1,39.3,3,45.8,9.2
								c-5.9-8.5-26.5-2.9-33,14.6c-4.5,12-3.5,19.3-5.9,22.5C10.9,44.2,8.7,40.1,14.1,25.5z"/>
						</g>
						<path fill="none" stroke="#000000" stroke-width="6" stroke-linejoin="round" d="M48.3,15.5c-2.2-2.6-4.7-3.9-8.9-4
							c-5.3-0.2-12,5-12.8,14.3c-0.7,9.3,0.7,18.8,9.3,21c3.6,0.9,6,1.3,8.2,0.7c4-8.5,4.7-22.5,4.6-27.4
							C48.6,18.6,48.5,17.1,48.3,15.5z"/>
						<g>
							<path fill="none" stroke="#000000" stroke-width="6" stroke-linejoin="round" d="M41.2,51c4.4-3.4,6.7-12.4,7.3-20.5
								c-1,2.7-1.6,12.7-8.6,17.1c-6.6,4.2-28.5,2.5-34-0.4c0,0.1-0.1,0.1-0.1,0.2C10.6,55.1,33.3,57.1,41.2,51z"/>
							<path fill="none" stroke="#000000" stroke-width="6" stroke-linejoin="round" d="M41.2,51c4.4-3.4,6.7-12.4,7.3-20.5
								c-1,2.7-1.6,12.7-8.6,17.1c-6.6,4.2-28.5,2.5-34-0.4c0,0.1-0.1,0.1-0.1,0.2C10.6,55.1,33.3,57.1,41.2,51z"/>
						</g>
					</g>
					<g>
						<g>
							<path fill="none" stroke="#000000" stroke-width="6" stroke-linejoin="round" d="M48.7,20.1C48.4,13.9,48,6.2,38.3,4.8
								s-21.9,6.5-26.4,18.6s-3.7,20.8-6.1,24c4.9,7.8,27.5,9.7,35.4,3.6C48,45.7,48.9,25.8,48.7,20.1z"/>
							<path fill="none" stroke="#000000" stroke-width="6" stroke-linejoin="round" d="M48.7,20.1C48.4,13.9,48,6.2,38.3,4.8
								s-21.9,6.5-26.4,18.6s-3.7,20.8-6.1,24c4.9,7.8,27.5,9.7,35.4,3.6C48,45.7,48.9,25.8,48.7,20.1z"/>
						</g>
						<g>
							<path fill="none" stroke="#000000" stroke-width="6" stroke-linejoin="round" d="M14.1,25.5C20.7,8.1,39.3,3,45.8,9.2
								c-5.9-8.5-26.5-2.9-33,14.6c-4.5,12-3.5,19.3-5.9,22.5C10.9,44.2,8.7,40.1,14.1,25.5z"/>
							<path fill="none" stroke="#000000" stroke-width="6" stroke-linejoin="round" d="M14.1,25.5C20.7,8.1,39.3,3,45.8,9.2
								c-5.9-8.5-26.5-2.9-33,14.6c-4.5,12-3.5,19.3-5.9,22.5C10.9,44.2,8.7,40.1,14.1,25.5z"/>
						</g>
						<path fill="none" stroke="#000000" stroke-width="6" stroke-linejoin="round" d="M48.3,15.5c-2.2-2.6-4.7-3.9-8.9-4
							c-5.3-0.2-12,5-12.8,14.3c-0.7,9.3,0.7,18.8,9.3,21c3.6,0.9,6,1.3,8.2,0.7c4-8.5,4.7-22.5,4.6-27.4
							C48.6,18.6,48.5,17.1,48.3,15.5z"/>
						<g>
							<path fill="none" stroke="#000000" stroke-width="6" stroke-linejoin="round" d="M41.2,51c4.4-3.4,6.7-12.4,7.3-20.5
								c-1,2.7-1.6,12.7-8.6,17.1c-6.6,4.2-28.5,2.5-34-0.4c0,0.1-0.1,0.1-0.1,0.2C10.6,55.1,33.3,57.1,41.2,51z"/>
							<path fill="none" stroke="#000000" stroke-width="6" stroke-linejoin="round" d="M41.2,51c4.4-3.4,6.7-12.4,7.3-20.5
								c-1,2.7-1.6,12.7-8.6,17.1c-6.6,4.2-28.5,2.5-34-0.4c0,0.1-0.1,0.1-0.1,0.2C10.6,55.1,33.3,57.1,41.2,51z"/>
						</g>
					</g>
				</g>
				<g>
					<g>
						<path fill="none" stroke="#000000" stroke-width="6" stroke-linejoin="round" d="M37.3,13.3c0,0,0.2,0,0.5,0.1
							c0.2,0,0.9,0.2,1.5,0.4c0.6,0.2,1.3,0.7,2,1.3c0.7,0.6,1.3,1.4,1.8,2.4c0.5,1,0.8,2.1,0.9,3.4c0,0.3,0,0.6,0,1
							c0,0.3,0,0.7-0.1,1l-0.1,0.5l0,0.3l0,0.1l0,0c0,0,0-0.1,0,0.1l0,0l0,0.1l-0.1,0.4c0,0.1-0.1,0.3-0.2,0.5
							c-0.3,0.8-0.7,1.4-1.2,2c-0.5,0.6-1,1.1-1.6,1.6c-1.2,1-2.7,1.7-4.5,1.9l-0.7,0.1c-0.2,0-0.5,0-0.7-0.1c-0.2,0-0.5,0-0.7-0.1
							l-0.7-0.2c-0.2-0.1-0.4-0.1-0.7-0.2l-0.6-0.3l-0.6-0.3l-0.5-0.4c-0.7-0.5-1.2-1.2-1.7-1.9c-0.2-0.3-0.4-0.7-0.6-1l-0.1-0.3
							l-0.1-0.1l0-0.1l0,0l-0.1-0.2l0,0l-0.2-0.4l-0.2-0.4C28,24.2,28,24,27.9,23.7c-0.1-0.2-0.1-0.5-0.1-0.7c0-0.2,0-0.4,0-0.6
							c0-0.4,0-0.8,0-1.2c0-0.4,0.1-0.8,0.2-1.2c0.3-1.5,1-2.8,1.9-3.7c0.9-0.9,1.9-1.5,2.7-1.9c0.9-0.4,1.7-0.6,2.4-0.8
							c0.3-0.1,0.7-0.1,0.9-0.1c0.3,0,0.5-0.1,0.7,0C37,13.3,37.2,13.3,37.3,13.3L37.3,13.3z M37.3,15.4L37.3,15.4
							c0,0-0.2,0-0.4,0.1c-0.1,0-0.3,0.1-0.4,0.2c-0.2,0.1-0.3,0.2-0.5,0.3c-0.4,0.2-0.8,0.7-1.2,1.2c-0.4,0.6-0.8,1.2-1.1,1.8
							c-0.3,0.6-0.7,1.3-0.9,2c-0.1,0.2-0.1,0.3-0.1,0.5c0,0.2,0,0.3,0,0.5c0,0.1,0,0.2,0,0.3c0,0.1,0,0.1,0,0.2c0,0.1,0,0.1,0,0.2
							l0.1,0.4l0.1,0.4l0,0c0-0.1,0.1,0.2-0.1-0.2l0,0l0,0l0,0.1l0.1,0.2l0.3,0.7c0.3,0.4,0.5,0.8,0.8,1.1c0.6,0.6,1.2,1,2.1,1.1
							C37,26.8,38,26.5,39,26c0.5-0.3,0.9-0.6,1.3-0.9c0.4-0.4,0.8-0.8,1-1.1c0,0,0.1-0.1,0.1-0.1l0.1-0.2l0.2-0.4l0-0.1l0,0
							c-0.1,0.2,0,0,0,0.1l0,0l0,0l0.1-0.2l0.1-0.4c0.1-0.3,0.1-0.5,0.2-0.8c0-0.3,0.1-0.5,0.1-0.8c0-1-0.1-2-0.5-2.8
							c-0.3-0.8-0.8-1.5-1.3-2c-0.5-0.4-1.1-0.7-1.6-0.8c-0.2-0.1-0.4,0-0.6-0.1c-0.1,0-0.3,0-0.5,0C37.5,15.4,37.4,15.4,37.3,15.4z
							"/>
						<path fill="none" stroke="#000000" stroke-width="6" stroke-linejoin="round" d="M37.2,14.4c4.3-0.2,6.8,4.8,5.5,9.1
							c-1.2,4.3-8.8,8.5-12.1,1.1C28.4,19.5,33.6,14.5,37.2,14.4z"/>
					</g>
					<path fill="none" stroke="#000000" stroke-width="6" stroke-linejoin="round" d="M42,23.6c-0.1,1-0.9,1.8-1.8,1.7
						c-0.9-0.1-1.5-1-1.4-2c0.1-1,0.9-1.8,1.8-1.7C41.5,21.7,42.1,22.6,42,23.6z"/>
				</g>
				<g>
					<path fill="none" stroke="#000000" stroke-width="6" stroke-linejoin="round" d="M48.8,21.1c-2-0.2-4.5,4-4.8,6.4
						c-0.5,3.8,2,6.7,3.6,6.4c1.6-0.3,8.2-4.9,8.3-6.2C56.1,27.1,50.3,21.2,48.8,21.1z"/>
					<g>
						<path fill="none" stroke="#000000" stroke-width="6" stroke-linejoin="round" d="M48.3,22.5c1.3-1.1,6.9,3.7,6.3,4.5
							c-0.6,0.8-9.5,0.1-8.9-1.1C46.4,24.8,47,23.6,48.3,22.5z"/>
						<path fill="none" stroke="#000000" stroke-width="6" stroke-linejoin="round" d="M48.3,22.5c1.3-1.1,6.9,3.7,6.3,4.5
							c-0.6,0.8-9.5,0.1-8.9-1.1C46.4,24.8,47,23.6,48.3,22.5z"/>
					</g>
					<g>
						<path fill="none" stroke="#000000" stroke-width="6" stroke-linejoin="round" d="M55.6,28.4c-3.2,0.7-8.9,1-11.6,0.5
							c0.2,3.1,2.2,5.3,3.7,5C49.1,33.7,54.2,30.2,55.6,28.4z"/>
						<path fill="none" stroke="#000000" stroke-width="6" stroke-linejoin="round" d="M55.6,28.4c-3.2,0.7-8.9,1-11.6,0.5
							c0.2,3.1,2.2,5.3,3.7,5C49.1,33.7,54.2,30.2,55.6,28.4z"/>
					</g>
				</g>
			</g>
			<g>
				<g>
					<g>
						<g>
							<path fill="#4F504F" d="M48.7,20.1C48.4,13.9,48,6.2,38.3,4.8s-21.9,6.5-26.4,18.6s-3.7,20.8-6.1,24
								c4.9,7.8,27.5,9.7,35.4,3.6C48,45.7,48.9,25.8,48.7,20.1z"/>
						</g>
						<g>
							<path fill="#706D6D" d="M14.1,25.5C20.7,8.1,39.3,3,45.8,9.2c-5.9-8.5-26.5-2.9-33,14.6c-4.5,12-3.5,19.3-5.9,22.5
								C10.9,44.2,8.7,40.1,14.1,25.5z"/>
						</g>
						<path fill="#FFFFFF" d="M48.3,15.5c-2.2-2.6-4.7-3.9-8.9-4c-5.3-0.2-12,5-12.8,14.3c-0.7,9.3,0.7,18.8,9.3,21
							c3.6,0.9,6,1.3,8.2,0.7c4-8.5,4.7-22.5,4.6-27.4C48.6,18.6,48.5,17.1,48.3,15.5z"/>
						<g opacity="0.5">
							<path fill="#4F504F" d="M41.2,51c4.4-3.4,6.7-12.4,7.3-20.5c-1,2.7-1.6,12.7-8.6,17.1c-6.6,4.2-28.5,2.5-34-0.4
								c0,0.1-0.1,0.1-0.1,0.2C10.6,55.1,33.3,57.1,41.2,51z"/>
						</g>
					</g>
				</g>
				<g>
					<g>
						<path d="M37.3,13.3c0,0,0.2,0,0.5,0.1c0.2,0,0.9,0.2,1.5,0.4c0.6,0.2,1.3,0.7,2,1.3c0.7,0.6,1.3,1.4,1.8,2.4
							c0.5,1,0.8,2.1,0.9,3.4c0,0.3,0,0.6,0,1c0,0.3,0,0.7-0.1,1l-0.1,0.5l0,0.3l0,0.1l0,0c0,0,0-0.1,0,0.1l0,0l0,0.1l-0.1,0.4
							c0,0.1-0.1,0.3-0.2,0.5c-0.3,0.8-0.7,1.4-1.2,2c-0.5,0.6-1,1.1-1.6,1.6c-1.2,1-2.7,1.7-4.5,1.9l-0.7,0.1c-0.2,0-0.5,0-0.7-0.1
							c-0.2,0-0.5,0-0.7-0.1l-0.7-0.2c-0.2-0.1-0.4-0.1-0.7-0.2l-0.6-0.3l-0.6-0.3l-0.5-0.4c-0.7-0.5-1.2-1.2-1.7-1.9
							c-0.2-0.3-0.4-0.7-0.6-1l-0.1-0.3l-0.1-0.1l0-0.1l0,0l-0.1-0.2l0,0l-0.2-0.4l-0.2-0.4C28,24.2,28,24,27.9,23.7
							c-0.1-0.2-0.1-0.5-0.1-0.7c0-0.2,0-0.4,0-0.6c0-0.4,0-0.8,0-1.2c0-0.4,0.1-0.8,0.2-1.2c0.3-1.5,1-2.8,1.9-3.7
							c0.9-0.9,1.9-1.5,2.7-1.9c0.9-0.4,1.7-0.6,2.4-0.8c0.3-0.1,0.7-0.1,0.9-0.1c0.3,0,0.5-0.1,0.7,0C37,13.3,37.2,13.3,37.3,13.3
							L37.3,13.3z M37.3,15.4L37.3,15.4c0,0-0.2,0-0.4,0.1c-0.1,0-0.3,0.1-0.4,0.2c-0.2,0.1-0.3,0.2-0.5,0.3
							c-0.4,0.2-0.8,0.7-1.2,1.2c-0.4,0.6-0.8,1.2-1.1,1.8c-0.3,0.6-0.7,1.3-0.9,2c-0.1,0.2-0.1,0.3-0.1,0.5c0,0.2,0,0.3,0,0.5
							c0,0.1,0,0.2,0,0.3c0,0.1,0,0.1,0,0.2c0,0.1,0,0.1,0,0.2l0.1,0.4l0.1,0.4l0,0c0-0.1,0.1,0.2-0.1-0.2l0,0l0,0l0,0.1l0.1,0.2
							l0.3,0.7c0.3,0.4,0.5,0.8,0.8,1.1c0.6,0.6,1.2,1,2.1,1.1C37,26.8,38,26.5,39,26c0.5-0.3,0.9-0.6,1.3-0.9
							c0.4-0.4,0.8-0.8,1-1.1c0,0,0.1-0.1,0.1-0.1l0.1-0.2l0.2-0.4l0-0.1l0,0c-0.1,0.2,0,0,0,0.1l0,0l0,0l0.1-0.2l0.1-0.4
							c0.1-0.3,0.1-0.5,0.2-0.8c0-0.3,0.1-0.5,0.1-0.8c0-1-0.1-2-0.5-2.8c-0.3-0.8-0.8-1.5-1.3-2c-0.5-0.4-1.1-0.7-1.6-0.8
							c-0.2-0.1-0.4,0-0.6-0.1c-0.1,0-0.3,0-0.5,0C37.5,15.4,37.4,15.4,37.3,15.4z"/>
						<path fill="#FFFFFF" d="M37.2,14.4c4.3-0.2,6.8,4.8,5.5,9.1c-1.2,4.3-8.8,8.5-12.1,1.1C28.4,19.5,33.6,14.5,37.2,14.4z"/>
					</g>
					<path d="M42,23.6c-0.1,1-0.9,1.8-1.8,1.7c-0.9-0.1-1.5-1-1.4-2c0.1-1,0.9-1.8,1.8-1.7C41.5,21.7,42.1,22.6,42,23.6z"/>
				</g>
				<g>
					<path fill="#F79420" d="M48.8,21.1c-2-0.2-4.5,4-4.8,6.4c-0.5,3.8,2,6.7,3.6,6.4c1.6-0.3,8.2-4.9,8.3-6.2
						C56.1,27.1,50.3,21.2,48.8,21.1z"/>
					<g>
						<path fill="#FDCA93" d="M48.3,22.5c1.3-1.1,6.9,3.7,6.3,4.5c-0.6,0.8-9.5,0.1-8.9-1.1C46.4,24.8,47,23.6,48.3,22.5z"/>
					</g>
					<g opacity="0.8">
						<path fill="#F26523" d="M55.6,28.4c-3.2,0.7-8.9,1-11.6,0.5c0.2,3.1,2.2,5.3,3.7,5C49.1,33.7,54.2,30.2,55.6,28.4z"/>
					</g>
				</g>
			</g>
		</g>
		<g>
			<g>
				<path fill="none" stroke="#010101" stroke-width="6" stroke-miterlimit="10" d="M23.5,54.6c1.8-3.2,6-6.3,10.2-6.7
					c4.6-0.5,8.5,0.3,9.2,2.4c0.6,2.1-15.5,10.9-17.6,9.6C23.8,58.8,22.3,56.7,23.5,54.6z"/>
				<path fill="#F79420" d="M23.5,54.6c1.8-3.2,6-6.3,10.2-6.7c4.6-0.5,8.5,0.3,9.2,2.4c0.6,2.1-15.5,10.9-17.6,9.6
					C23.8,58.8,22.3,56.7,23.5,54.6z"/>
			</g>
			<g>
				<path fill="#FDCA93" d="M41.6,48.8c-1.6-1-4.6-1.4-8-1c-3.3,0.4-6.6,2.4-8.7,4.8C30.3,53.6,37.2,51.5,41.6,48.8z"/>
			</g>
			<g>
				<path fill="#F26523" d="M42.8,50.2c-0.1-0.3-0.3-0.7-0.6-0.9c-2.4,2-6.4,4.3-9.2,5.6c-3.4,1.6-7.4,3-9.9,1.9
					c0.2,1.3,1.2,2.3,2.2,3C27.3,61.1,43.5,52.3,42.8,50.2z"/>
			</g>
		</g>
		<g>
			<g>
				<path d="M16.2,21.4c0,0,0.1,0,0.2,0c0.1,0,0.2,0,0.3,0c0.1,0,0.1,0,0.2,0c0.1,0,0.3,0.1,0.4,0.1c0.5,0.2,1.1,0.6,1.6,1.2
					c0.6,0.6,1.1,1.3,1.7,2.2c0.6,0.9,1.1,1.9,1.6,3.2c0.4,1.2,0.6,2.6,0.6,4.1c0,0.7,0,1.5-0.1,2.3c-0.1,0.8-0.2,1.6-0.9,2.7
					c-0.2,0.3-0.4,0.6-0.9,0.9c-0.1,0.1-0.3,0.1-0.4,0.2c-0.1,0-0.4,0.1-0.5,0.1l-0.4,0.1c-0.4,0.1-0.8,0.1-1.2,0.2
					c-0.8,0.1-1.6,0.2-2.4,0.2c-1.6,0.1-3.3,0.2-5,0.1c-1.7-0.1-3.4-0.3-5.3-1c-0.9-0.3-1.9-0.8-3-1.7c-0.5-0.5-1.1-1.2-1.4-2.1
					c0-0.1-0.1-0.2-0.1-0.3l0-0.2l0-0.1l0,0l0-0.3l0-0.3c0-0.1,0,0,0-0.2l0-0.4c0-0.2,0-0.6,0.1-0.7c0.3-1.5,0.9-2.5,1.5-3.2
					c0.6-0.8,1.3-1.3,1.9-1.8c1.2-1,2.5-1.7,3.6-2.3c2.3-1.1,4.2-1.8,5.6-2.3c0.7-0.2,1.3-0.4,1.7-0.5c0.4-0.1,0.7-0.1,0.7-0.1
					L16.2,21.4z M16.5,23.9c0,0-0.2,0.1-0.4,0.2c-0.3,0.1-0.7,0.4-1.3,0.7c-1.1,0.7-2.7,1.8-4.4,3.3c-0.8,0.8-1.7,1.6-2.4,2.5
					c-0.4,0.4-0.7,0.9-0.9,1.3c-0.2,0.4-0.3,0.7-0.3,0.7c0,0,0-0.1,0-0.2c0,0,0-0.1,0-0.1c0-0.1,0,0.1,0,0.1l0,0.3l0-0.3l0,0l0-0.1
					C6.8,32.1,6.8,32,6.8,32c0,0.1,0.5,0.4,1,0.6c1,0.5,2.5,0.8,3.9,1.1c1.4,0.3,2.9,0.6,4.4,0.8c0.7,0.1,1.5,0.2,2.2,0.3
					c0.4,0,0.7,0.1,1.1,0.1l0.2,0c0,0-0.1,0-0.2,0.1c-0.1,0-0.1,0.1-0.2,0.1c-0.2,0.1-0.1,0.2-0.1,0.1c0.2-0.1,0.6-0.8,0.8-1.3
					c0.2-0.6,0.4-1.2,0.5-1.8c0.2-1.2,0.2-2.4,0-3.5c-0.2-1-0.6-2-1.2-2.7c-0.5-0.7-1.1-1.2-1.6-1.6C17.1,24.1,16.7,24,16.5,23.9z"
					/>
				<path fill="#4F504F" d="M16.3,22.7c1.1-0.2,4.4,2.7,5,6.3s-0.3,7.7-1.6,7.8C18.5,36.9,4.9,37.1,4,33S13.9,23.2,16.3,22.7z"/>
			</g>
			<g>
				<path fill="#797575" d="M18,26.2c2.2,1.2,3.2,8.5,1.2,9.1S9.1,35.6,8.3,33C7.4,30.4,14.9,24.5,18,26.2z"/>
			</g>
		</g>
	</g>
</g>
</svg>
