<?xml version="1.0" encoding="utf-8"?>
<!-- SPDX-License-Identifier: CC-BY-2.0 -->
<!-- Copyright 2015 Game Art Guppy LLC -->
<!-- Generator: Adobe Illustrator 17.1.0, SVG Export Plug-In . SVG Version: 6.00 Build 0)  -->
<!DOCTYPE svg PUBLIC "-//W3C//DTD SVG 1.1//EN" "http://www.w3.org/Graphics/SVG/1.1/DTD/svg11.dtd">
<svg version="1.1" xmlns="http://www.w3.org/2000/svg" xmlns:xlink="http://www.w3.org/1999/xlink" x="0px" y="0px"
	 viewBox="0 0 72 64" enable-background="new 0 0 72 64" xml:space="preserve">
<g id="penguin_x5F_die02">
	<g id="dead_3_">
		<g>
			<g>
				<path fill="none" stroke="#010101" stroke-width="6" stroke-miterlimit="10" d="M47.7,42.6c-0.1-3.7,1.9-8.5,5.2-10.9
					c3.7-2.7,7.5-3.7,9.1-2.2c1.6,1.6-7.8,17.1-10.2,16.9C50.2,46.2,47.8,45.1,47.7,42.6z"/>
				<path fill="#F79420" d="M47.7,42.6c-0.1-3.7,1.9-8.5,5.2-10.9c3.7-2.7,7.5-3.7,9.1-2.2c1.6,1.6-7.8,17.1-10.2,16.9
					C50.2,46.2,47.8,45.1,47.7,42.6z"/>
			</g>
			<g>
				<path fill="#FDCA93" d="M60.4,28.8c-1.9-0.1-4.7,1-7.4,2.9c-2.6,1.9-4.4,5.3-5,8.4C53.1,38.5,58,33.3,60.4,28.8z"/>
			</g>
			<g>
				<path fill="#F26523" d="M62.1,29.5c-0.3-0.3-0.6-0.4-1-0.6c-1.1,2.9-3.3,6.9-5,9.4c-2.1,3.1-4.8,6.2-7.5,6.4
					c0.9,1,2.2,1.5,3.4,1.6C54.4,46.6,63.7,31.1,62.1,29.5z"/>
			</g>
		</g>
		<g>
			<g>
				<g>
					<g>
						<g>
							<path fill="none" stroke="#000000" stroke-width="6" stroke-linejoin="round" d="M36.5,8.2c-5-4-12.7-7.6-20.5-0.9
								S7.6,27.7,14,39.3s13.8,16.9,14.8,21c9.4,1.4,27.4-15.2,28-25.6C57.3,25.8,41.1,11.8,36.5,8.2z"/>
							<path fill="none" stroke="#000000" stroke-width="6" stroke-linejoin="round" d="M36.5,8.2c-5-4-12.7-7.6-20.5-0.9
								S7.6,27.7,14,39.3s13.8,16.9,14.8,21c9.4,1.4,27.4-15.2,28-25.6C57.3,25.8,41.1,11.8,36.5,8.2z"/>
						</g>
						<g>
							<path fill="none" stroke="#000000" stroke-width="6" stroke-linejoin="round" d="M17.2,39C8,22.1,16.3,6.2,25.6,5.3
								C15,4.3,5.7,22,15,39c6.4,11.7,12.8,15.8,13.7,19.9C29.8,54.2,25,53.2,17.2,39z"/>
							<path fill="none" stroke="#000000" stroke-width="6" stroke-linejoin="round" d="M17.2,39C8,22.1,16.3,6.2,25.6,5.3
								C15,4.3,5.7,22,15,39c6.4,11.7,12.8,15.8,13.7,19.9C29.8,54.2,25,53.2,17.2,39z"/>
						</g>
						<path fill="none" stroke="#000000" stroke-width="6" stroke-linejoin="round" d="M32.6,5.5c-3.5,0-6.2,0.9-9.2,4.1
							c-3.7,4.1-4.3,12.9,2.5,19.7c6.8,6.8,15.3,12.1,22.9,6.8c3.2-2.2,5.6-4.8,6.6-6.9c-4-8.9-15-18-19-21.2
							C35.3,7.2,33.9,6.3,32.6,5.5z"/>
						<g>
							<path fill="none" stroke="#000000" stroke-width="6" stroke-linejoin="round" d="M56.8,34.8c0.3-5.8-6.5-14.6-12.2-19.5
								c1.4,2.7,10.3,10,9,18.5c-1.2,8.1-18.8,24-24.9,26.4c0,0.1,0,0.1,0.1,0.2C38.2,61.8,56.1,45.1,56.8,34.8z"/>
							<path fill="none" stroke="#000000" stroke-width="6" stroke-linejoin="round" d="M56.8,34.8c0.3-5.8-6.5-14.6-12.2-19.5
								c1.4,2.7,10.3,10,9,18.5c-1.2,8.1-18.8,24-24.9,26.4c0,0.1,0,0.1,0.1,0.2C38.2,61.8,56.1,45.1,56.8,34.8z"/>
						</g>
					</g>
					<g>
						<g>
							<path fill="none" stroke="#000000" stroke-width="6" stroke-linejoin="round" d="M36.5,8.2c-5-4-12.7-7.6-20.5-0.9
								S7.6,27.7,14,39.3s13.8,16.9,14.8,21c9.4,1.4,27.4-15.2,28-25.6C57.3,25.8,41.1,11.8,36.5,8.2z"/>
							<path fill="none" stroke="#000000" stroke-width="6" stroke-linejoin="round" d="M36.5,8.2c-5-4-12.7-7.6-20.5-0.9
								S7.6,27.7,14,39.3s13.8,16.9,14.8,21c9.4,1.4,27.4-15.2,28-25.6C57.3,25.8,41.1,11.8,36.5,8.2z"/>
						</g>
						<g>
							<path fill="none" stroke="#000000" stroke-width="6" stroke-linejoin="round" d="M17.2,39C8,22.1,16.3,6.2,25.6,5.3
								C15,4.3,5.7,22,15,39c6.4,11.7,12.8,15.8,13.7,19.9C29.8,54.2,25,53.2,17.2,39z"/>
							<path fill="none" stroke="#000000" stroke-width="6" stroke-linejoin="round" d="M17.2,39C8,22.1,16.3,6.2,25.6,5.3
								C15,4.3,5.7,22,15,39c6.4,11.7,12.8,15.8,13.7,19.9C29.8,54.2,25,53.2,17.2,39z"/>
						</g>
						<path fill="none" stroke="#000000" stroke-width="6" stroke-linejoin="round" d="M32.6,5.5c-3.5,0-6.2,0.9-9.2,4.1
							c-3.7,4.1-4.3,12.9,2.5,19.7c6.8,6.8,15.3,12.1,22.9,6.8c3.2-2.2,5.6-4.8,6.6-6.9c-4-8.9-15-18-19-21.2
							C35.3,7.2,33.9,6.3,32.6,5.5z"/>
						<g>
							<path fill="none" stroke="#000000" stroke-width="6" stroke-linejoin="round" d="M56.8,34.8c0.3-5.8-6.5-14.6-12.2-19.5
								c1.4,2.7,10.3,10,9,18.5c-1.2,8.1-18.8,24-24.9,26.4c0,0.1,0,0.1,0.1,0.2C38.2,61.8,56.1,45.1,56.8,34.8z"/>
							<path fill="none" stroke="#000000" stroke-width="6" stroke-linejoin="round" d="M56.8,34.8c0.3-5.8-6.5-14.6-12.2-19.5
								c1.4,2.7,10.3,10,9,18.5c-1.2,8.1-18.8,24-24.9,26.4c0,0.1,0,0.1,0.1,0.2C38.2,61.8,56.1,45.1,56.8,34.8z"/>
						</g>
					</g>
					<g>
						<g>
							<path fill="none" stroke="#000000" stroke-width="6" stroke-linejoin="round" d="M36.5,8.2c-5-4-12.7-7.6-20.5-0.9
								S7.6,27.7,14,39.3s13.8,16.9,14.8,21c9.4,1.4,27.4-15.2,28-25.6C57.3,25.8,41.1,11.8,36.5,8.2z"/>
							<path fill="none" stroke="#000000" stroke-width="6" stroke-linejoin="round" d="M36.5,8.2c-5-4-12.7-7.6-20.5-0.9
								S7.6,27.7,14,39.3s13.8,16.9,14.8,21c9.4,1.4,27.4-15.2,28-25.6C57.3,25.8,41.1,11.8,36.5,8.2z"/>
						</g>
						<g>
							<path fill="none" stroke="#000000" stroke-width="6" stroke-linejoin="round" d="M17.2,39C8,22.1,16.3,6.2,25.6,5.3
								C15,4.3,5.7,22,15,39c6.4,11.7,12.8,15.8,13.7,19.9C29.8,54.2,25,53.2,17.2,39z"/>
							<path fill="none" stroke="#000000" stroke-width="6" stroke-linejoin="round" d="M17.2,39C8,22.1,16.3,6.2,25.6,5.3
								C15,4.3,5.7,22,15,39c6.4,11.7,12.8,15.8,13.7,19.9C29.8,54.2,25,53.2,17.2,39z"/>
						</g>
						<path fill="none" stroke="#000000" stroke-width="6" stroke-linejoin="round" d="M32.6,5.5c-3.5,0-6.2,0.9-9.2,4.1
							c-3.7,4.1-4.3,12.9,2.5,19.7c6.8,6.8,15.3,12.1,22.9,6.8c3.2-2.2,5.6-4.8,6.6-6.9c-4-8.9-15-18-19-21.2
							C35.3,7.2,33.9,6.3,32.6,5.5z"/>
						<g>
							<path fill="none" stroke="#000000" stroke-width="6" stroke-linejoin="round" d="M56.8,34.8c0.3-5.8-6.5-14.6-12.2-19.5
								c1.4,2.7,10.3,10,9,18.5c-1.2,8.1-18.8,24-24.9,26.4c0,0.1,0,0.1,0.1,0.2C38.2,61.8,56.1,45.1,56.8,34.8z"/>
							<path fill="none" stroke="#000000" stroke-width="6" stroke-linejoin="round" d="M56.8,34.8c0.3-5.8-6.5-14.6-12.2-19.5
								c1.4,2.7,10.3,10,9,18.5c-1.2,8.1-18.8,24-24.9,26.4c0,0.1,0,0.1,0.1,0.2C38.2,61.8,56.1,45.1,56.8,34.8z"/>
						</g>
					</g>
				</g>
				<g>
					<g>
						<path fill="none" stroke="#000000" stroke-width="6" stroke-linejoin="round" d="M35.3,10c0.1,0.3,0.3,0.9,0.3,1.3
							c0,0.5,0,0.9,0,1.3c0,0.4-0.1,0.8-0.2,1.2c-0.1,0.4-0.2,0.8-0.3,1.2c-0.5,1.5-1.2,3-2.3,4.2c-0.5,0.6-1.1,1.2-1.7,1.8
							c-0.6,0.5-1.3,1-2,1.4c-0.7,0.4-1.5,0.8-2.4,1c-0.4,0.1-0.8,0.2-1.3,0.3c-0.4,0.1-0.9,0.1-1.3,0.1L23.1,24l-0.4-1.3
							c-0.3-1-0.6-1.9-0.8-2.9c-0.2-1-0.4-2-0.5-3.1c0-0.5-0.1-1.1-0.1-1.6c0-0.3,0-0.6,0-0.8l0.1-0.9c0.1-0.6,0.2-1.2,0.4-1.8
							c0.2-0.6,0.4-1.2,0.7-1.8c0.3-0.6,0.7-1.1,1.2-1.6c0.5-0.5,1.1-0.9,1.7-1.3c0.6-0.3,1.3-0.6,1.9-0.7c0.7-0.2,1.3-0.1,2-0.1
							c1.3,0.1,2.4,0.6,3.4,1.3c0.5,0.3,1,0.7,1.4,1.1C34.5,8.9,34.9,9.3,35.3,10L35.3,10z M33.5,11L33.5,11
							c-0.2-0.2-0.5-0.4-0.9-0.5c-0.4-0.1-0.8-0.2-1.2-0.2c-0.8,0-1.6,0.1-2.2,0.3c-0.3,0.1-0.6,0.2-0.9,0.3
							c-0.3,0.1-0.5,0.2-0.7,0.3c-0.2,0.1-0.4,0.2-0.6,0.4c-0.2,0.2-0.4,0.4-0.5,0.6c-0.2,0.3-0.3,0.5-0.4,0.9
							c-0.1,0.3-0.2,0.7-0.3,1c-0.1,0.4-0.2,0.8-0.2,1.2c-0.1,0.4-0.1,0.8-0.1,1.3c0,0.9,0,1.7,0.1,2.7c0.1,0.9,0.2,1.8,0.3,2.7
							l-1.5-1.2c1.3,0.2,2.6,0,3.8-0.4c0.6-0.2,1.2-0.5,1.8-0.9c0.6-0.4,1.1-0.8,1.6-1.3c1-1,1.8-2.2,2.3-3.5c0.2-0.7,0.3-1.4,0.3-2
							c0-0.3-0.1-0.6-0.2-0.9C33.8,11.4,33.7,11.3,33.5,11z"/>
						<path fill="none" stroke="#000000" stroke-width="6" stroke-linejoin="round" d="M34.4,10.5c2,3.5-2.6,12.1-10.2,11.9
							C19.9,4.8,32.7,7.6,34.4,10.5z"/>
					</g>
					
						<ellipse transform="matrix(0.7388 -0.6739 0.6739 0.7388 0.168 24.4015)" fill="none" stroke="#000000" stroke-width="6" stroke-linejoin="round" cx="31.6" cy="12" rx="2.1" ry="2.4"/>
				</g>
				<g>
					<g>
						<path fill="none" stroke="#000000" stroke-width="6" stroke-linejoin="round" d="M47.9,10.2c-0.9-1-7,4.8-8.2,6.9
							c2.5,1.9,5.6,1.7,6.3,0.4C46.8,16.3,48.3,12.4,47.9,10.2z"/>
						<path fill="none" stroke="#000000" stroke-width="6" stroke-linejoin="round" d="M47.9,10.2c-0.9-1-7,4.8-8.2,6.9
							c2.5,1.9,5.6,1.7,6.3,0.4C46.8,16.3,48.3,12.4,47.9,10.2z"/>
					</g>
					<path fill="none" stroke="#000000" stroke-width="6" stroke-linejoin="round" d="M37.1,8.3c-1.5,1.5,0,6.1,1.6,7.9
						c2.5,2.8,2.9,0.2,3.8-1.3c0.9-1.5,5.1-7.3,4.3-8.3C46.3,6.2,38.2,7.2,37.1,8.3z"/>
					<g>
						<path fill="none" stroke="#000000" stroke-width="6" stroke-linejoin="round" d="M37.7,9.6c0-1.7,7.6-3,7.8-2.1
							c0.2,0.9-6.4,7.5-6.9,6.3C38.2,12.6,37.7,11.4,37.7,9.6z"/>
						<path fill="none" stroke="#000000" stroke-width="6" stroke-linejoin="round" d="M37.7,9.6c0-1.7,7.6-3,7.8-2.1
							c0.2,0.9-6.4,7.5-6.9,6.3C38.2,12.6,37.7,11.4,37.7,9.6z"/>
					</g>
					<path fill="none" stroke="#000000" stroke-width="6" stroke-linejoin="round" d="M47.9,10.2c-2.3,2.4-5.9,5.1-8.2,6.9
						c2.5,1.9,5.6,1.7,6.3,0.4C46.8,16.3,48.3,12.4,47.9,10.2z"/>
				</g>
				<g display="none">
					<g display="inline">
						<path fill="none" stroke="#000000" stroke-width="6" stroke-linejoin="round" d="M23,19.1c2.7-0.8,8.1-0.8,11.3-0.2"/>
						<path fill="none" stroke="#000000" stroke-width="6" stroke-linejoin="round" d="M22.9,18.6c0,0,0,0,0.1-0.1
							c0.1-0.1,0.2-0.2,0.3-0.3c0.1-0.1,0.3-0.3,0.5-0.4c0.2-0.1,0.4-0.3,0.7-0.4c0.3-0.1,0.6-0.3,0.9-0.4c0.3-0.1,0.7-0.2,1-0.2
							c0.4-0.1,0.7,0,1.1,0c0.4,0,0.7,0,1.1,0c0.4,0,0.7,0.1,1.1,0.1c0.4,0,0.7,0.1,1.1,0.2c0.3,0.1,0.7,0.1,1,0.2
							c0.3,0.1,0.6,0.2,0.9,0.3c0.5,0.2,1,0.4,1.3,0.6c0.3,0.2,0.5,0.3,0.5,0.3l0.1,0.1c0.2,0.1,0.3,0.4,0.1,0.7
							c-0.1,0.2-0.3,0.2-0.5,0.2c0,0-0.2,0-0.5-0.1c-0.3,0-0.7-0.1-1.2-0.2c-0.5-0.1-1.1-0.1-1.8-0.1c-0.7,0-1.4,0-2.1,0
							c-0.7,0-1.4,0-2.1,0.1c-0.7,0.1-1.3,0.1-1.8,0.2c-0.5,0.1-0.9,0.2-1.2,0.2c-0.3,0.1-0.5,0.1-0.5,0.1c-0.2,0.1-0.5-0.1-0.5-0.3
							c0-0.1,0-0.3,0.1-0.4L22.9,18.6z"/>
					</g>
					<g display="inline">
						<path fill="none" stroke="#000000" stroke-width="6" stroke-linejoin="round" d="M25,25c1.7-3,4.5-4.9,7.5-6.4"/>
						<path fill="none" stroke="#000000" stroke-width="6" stroke-linejoin="round" d="M24.6,24.7c0,0,0-0.2,0-0.5
							c0-0.3,0-0.7,0.2-1.2c0.1-0.2,0.3-0.5,0.4-0.8c0.2-0.3,0.4-0.5,0.6-0.7c0.5-0.5,1-0.9,1.5-1.3c0.3-0.2,0.6-0.4,0.8-0.5
							c0.3-0.2,0.6-0.3,0.9-0.4c0.6-0.3,1.1-0.5,1.6-0.6c0.5-0.2,0.9-0.2,1.2-0.3c0.3,0,0.5-0.1,0.5-0.1l0.2,0
							c0.3,0,0.5,0.1,0.6,0.4c0,0.2-0.1,0.4-0.3,0.5c0,0-0.6,0.3-1.3,0.7C31,20,30.5,20.3,30,20.6c-0.5,0.3-1,0.7-1.4,1
							c-0.4,0.4-0.9,0.8-1.3,1.2c-0.2,0.2-0.4,0.4-0.5,0.6c-0.2,0.2-0.3,0.4-0.4,0.6c-0.3,0.3-0.5,0.7-0.6,0.9
							c-0.1,0.2-0.2,0.4-0.2,0.4c-0.1,0.2-0.4,0.2-0.6,0.1c-0.1-0.1-0.2-0.2-0.2-0.3L24.6,24.7z"/>
					</g>
				</g>
			</g>
			<g>
				<g>
					<g>
						<g>
							<path fill="#4F504F" d="M36.5,8.2c-5-4-12.7-7.6-20.5-0.9S7.6,27.7,14,39.3s13.8,16.9,14.8,21c9.4,1.4,27.4-15.2,28-25.6
								C57.3,25.8,41.1,11.8,36.5,8.2z"/>
						</g>
						<g>
							<path fill="#706D6D" d="M17.2,39C8,22.1,16.3,6.2,25.6,5.3C15,4.3,5.7,22,15,39c6.4,11.7,12.8,15.8,13.7,19.9
								C29.8,54.2,25,53.2,17.2,39z"/>
						</g>
						<path fill="#FFFFFF" d="M32.6,5.5c-3.5,0-6.2,0.9-9.2,4.1c-3.7,4.1-4.3,12.9,2.5,19.7c6.8,6.8,15.3,12.1,22.9,6.8
							c3.2-2.2,5.6-4.8,6.6-6.9c-4-8.9-15-18-19-21.2C35.3,7.2,33.9,6.3,32.6,5.5z"/>
						<g opacity="0.5">
							<path fill="#4F504F" d="M56.8,34.8c0.3-5.8-6.5-14.6-12.2-19.5c1.4,2.7,10.3,10,9,18.5c-1.2,8.1-18.8,24-24.9,26.4
								c0,0.1,0,0.1,0.1,0.2C38.2,61.8,56.1,45.1,56.8,34.8z"/>
						</g>
					</g>
				</g>
				<g>
					<g>
						<path d="M35.3,10c0.1,0.3,0.3,0.9,0.3,1.3c0,0.5,0,0.9,0,1.3c0,0.4-0.1,0.8-0.2,1.2c-0.1,0.4-0.2,0.8-0.3,1.2
							c-0.5,1.5-1.2,3-2.3,4.2c-0.5,0.6-1.1,1.2-1.7,1.8c-0.6,0.5-1.3,1-2,1.4c-0.7,0.4-1.5,0.8-2.4,1c-0.4,0.1-0.8,0.2-1.3,0.3
							c-0.4,0.1-0.9,0.1-1.3,0.1L23.1,24l-0.4-1.3c-0.3-1-0.6-1.9-0.8-2.9c-0.2-1-0.4-2-0.5-3.1c0-0.5-0.1-1.1-0.1-1.6
							c0-0.3,0-0.6,0-0.8l0.1-0.9c0.1-0.6,0.2-1.2,0.4-1.8c0.2-0.6,0.4-1.2,0.7-1.8c0.3-0.6,0.7-1.1,1.2-1.6
							c0.5-0.5,1.1-0.9,1.7-1.3c0.6-0.3,1.3-0.6,1.9-0.7c0.7-0.2,1.3-0.1,2-0.1c1.3,0.1,2.4,0.6,3.4,1.3c0.5,0.3,1,0.7,1.4,1.1
							C34.5,8.9,34.9,9.3,35.3,10L35.3,10z M33.5,11L33.5,11c-0.2-0.2-0.5-0.4-0.9-0.5c-0.4-0.1-0.8-0.2-1.2-0.2
							c-0.8,0-1.6,0.1-2.2,0.3c-0.3,0.1-0.6,0.2-0.9,0.3c-0.3,0.1-0.5,0.2-0.7,0.3c-0.2,0.1-0.4,0.2-0.6,0.4
							c-0.2,0.2-0.4,0.4-0.5,0.6c-0.2,0.3-0.3,0.5-0.4,0.9c-0.1,0.3-0.2,0.7-0.3,1c-0.1,0.4-0.2,0.8-0.2,1.2
							c-0.1,0.4-0.1,0.8-0.1,1.3c0,0.9,0,1.7,0.1,2.7c0.1,0.9,0.2,1.8,0.3,2.7l-1.5-1.2c1.3,0.2,2.6,0,3.8-0.4
							c0.6-0.2,1.2-0.5,1.8-0.9c0.6-0.4,1.1-0.8,1.6-1.3c1-1,1.8-2.2,2.3-3.5c0.2-0.7,0.3-1.4,0.3-2c0-0.3-0.1-0.6-0.2-0.9
							C33.8,11.4,33.7,11.3,33.5,11z"/>
						<path fill="#FFFFFF" d="M34.4,10.5c2,3.5-2.6,12.1-10.2,11.9C19.9,4.8,32.7,7.6,34.4,10.5z"/>
					</g>
					<ellipse transform="matrix(0.7388 -0.6739 0.6739 0.7388 0.168 24.4015)" cx="31.6" cy="12" rx="2.1" ry="2.4"/>
				</g>
				<g>
					<g>
						<path fill="#F26523" d="M47.9,10.2c-0.9-1-7,4.8-8.2,6.9c2.5,1.9,5.6,1.7,6.3,0.4C46.8,16.3,48.3,12.4,47.9,10.2z"/>
					</g>
					<path fill="#F79420" d="M37.1,8.3c-1.5,1.5,0,6.1,1.6,7.9c2.5,2.8,2.9,0.2,3.8-1.3c0.9-1.5,5.1-7.3,4.3-8.3
						C46.3,6.2,38.2,7.2,37.1,8.3z"/>
					<g>
						<path fill="#FDCA93" d="M37.7,9.6c0-1.7,7.6-3,7.8-2.1c0.2,0.9-6.4,7.5-6.9,6.3C38.2,12.6,37.7,11.4,37.7,9.6z"/>
					</g>
					<path fill="#F79420" d="M47.9,10.2c-2.3,2.4-5.9,5.1-8.2,6.9c2.5,1.9,5.6,1.7,6.3,0.4C46.8,16.3,48.3,12.4,47.9,10.2z"/>
				</g>
				<g display="none">
					<g display="inline">
						<path fill="#231F20" d="M22.9,18.6c0,0,0,0,0.1-0.1c0.1-0.1,0.2-0.2,0.3-0.3c0.1-0.1,0.3-0.3,0.5-0.4c0.2-0.1,0.4-0.3,0.7-0.4
							c0.3-0.1,0.6-0.3,0.9-0.4c0.3-0.1,0.7-0.2,1-0.2c0.4-0.1,0.7,0,1.1,0c0.4,0,0.7,0,1.1,0c0.4,0,0.7,0.1,1.1,0.1
							c0.4,0,0.7,0.1,1.1,0.2c0.3,0.1,0.7,0.1,1,0.2c0.3,0.1,0.6,0.2,0.9,0.3c0.5,0.2,1,0.4,1.3,0.6c0.3,0.2,0.5,0.3,0.5,0.3
							l0.1,0.1c0.2,0.1,0.3,0.4,0.1,0.7c-0.1,0.2-0.3,0.2-0.5,0.2c0,0-0.2,0-0.5-0.1c-0.3,0-0.7-0.1-1.2-0.2
							c-0.5-0.1-1.1-0.1-1.8-0.1c-0.7,0-1.4,0-2.1,0c-0.7,0-1.4,0-2.1,0.1c-0.7,0.1-1.3,0.1-1.8,0.2c-0.5,0.1-0.9,0.2-1.2,0.2
							c-0.3,0.1-0.5,0.1-0.5,0.1c-0.2,0.1-0.5-0.1-0.5-0.3c0-0.1,0-0.3,0.1-0.4L22.9,18.6z"/>
					</g>
					<g display="inline">
						<path fill="#231F20" d="M24.6,24.7c0,0,0-0.2,0-0.5c0-0.3,0-0.7,0.2-1.2c0.1-0.2,0.3-0.5,0.4-0.8c0.2-0.3,0.4-0.5,0.6-0.7
							c0.5-0.5,1-0.9,1.5-1.3c0.3-0.2,0.6-0.4,0.8-0.5c0.3-0.2,0.6-0.3,0.9-0.4c0.6-0.3,1.1-0.5,1.6-0.6c0.5-0.2,0.9-0.2,1.2-0.3
							c0.3,0,0.5-0.1,0.5-0.1l0.2,0c0.3,0,0.5,0.1,0.6,0.4c0,0.2-0.1,0.4-0.3,0.5c0,0-0.6,0.3-1.3,0.7C31,20,30.5,20.3,30,20.6
							c-0.5,0.3-1,0.7-1.4,1c-0.4,0.4-0.9,0.8-1.3,1.2c-0.2,0.2-0.4,0.4-0.5,0.6c-0.2,0.2-0.3,0.4-0.4,0.6c-0.3,0.3-0.5,0.7-0.6,0.9
							c-0.1,0.2-0.2,0.4-0.2,0.4c-0.1,0.2-0.4,0.2-0.6,0.1c-0.1-0.1-0.2-0.2-0.2-0.3L24.6,24.7z"/>
					</g>
				</g>
			</g>
		</g>
		<g>
			<g>
				<path d="M24.1,30.9c0,0,0.1,0,0.2,0c0.1,0,0.2,0,0.3,0c0.1,0,0.1,0,0.2,0c0.1,0,0.3,0.1,0.4,0.1c0.5,0.2,1.1,0.7,1.6,1.2
					c0.6,0.6,1.1,1.3,1.7,2.2c0.6,0.9,1.2,2,1.6,3.3c0.4,1.3,0.5,2.7,0.5,4.2c0,0.8-0.1,1.6-0.2,2.4c-0.1,0.4-0.2,0.8-0.3,1.3
					c-0.2,0.5-0.4,0.9-0.9,1.5c-0.3,0.3-0.7,0.6-1.4,0.7l-0.8,0.1c-0.4,0-0.8,0.1-1.2,0.1c-0.8,0.1-1.6,0.1-2.5,0.2
					c-1.7,0.1-3.4,0.1-5.1,0c-1.7-0.2-3.5-0.4-5.4-1.1c-0.9-0.4-1.9-0.8-3-1.8c-0.5-0.5-1.1-1.2-1.4-2.2c0-0.1-0.1-0.2-0.1-0.4
					l0-0.2l0-0.1l0-0.2l0-0.1l0-0.4c0-0.6,0-0.9,0.1-1.3c0.3-1.6,1.1-2.5,1.7-3.2c0.7-0.7,1.3-1.3,2-1.8c1.3-0.9,2.6-1.6,3.8-2.1
					c2.4-1.1,4.4-1.7,5.8-2.1c0.7-0.2,1.3-0.4,1.7-0.4c0.4-0.1,0.7-0.1,0.7-0.1L24.1,30.9z M24.4,33.4c0,0-0.1,0.1-0.4,0.2
					c-0.3,0.1-0.8,0.3-1.4,0.7c-1.2,0.6-2.9,1.7-4.6,3.2c-0.9,0.7-1.8,1.6-2.6,2.4c-0.4,0.4-0.8,0.9-1,1.3c-0.3,0.4-0.4,0.8-0.3,0.7
					c0,0,0,0,0-0.2l0-0.1l0,0l0,0l0,0.1c0-0.1,0,0.1,0-0.1l0,0l0,0l0,0l0-0.1c-0.1-0.2-0.1-0.3-0.1-0.2c0.1,0.1,0.5,0.4,1,0.6
					c1.1,0.5,2.5,0.9,4,1.2c1.5,0.4,3,0.7,4.5,0.9c0.8,0.1,1.5,0.3,2.3,0.4c0.4,0,0.7,0.1,1.1,0.1c0.2,0,0.4,0,0.4,0.1
					c-0.3,0.1-0.4,0.2-0.4,0.2c0,0.1,0.2-0.1,0.4-0.3c0.2-0.2,0.3-0.5,0.4-0.8c0.2-0.6,0.4-1.2,0.5-1.8c0.3-1.3,0.3-2.5,0.1-3.6
					c-0.2-1.1-0.6-2-1.2-2.7c-0.5-0.7-1.2-1.3-1.7-1.6C24.9,33.6,24.5,33.4,24.4,33.4c-0.1,0-0.1,0-0.1,0c0,0,0,0,0,0
					C24.3,33.4,24.3,33.4,24.4,33.4C24.4,33.4,24.3,33.4,24.4,33.4c-0.1,0-0.1,0-0.1,0L24.4,33.4z"/>
				<path fill="#4F504F" d="M24.2,32.1c1.1-0.2,4.5,2.8,5.1,6.4c0.6,3.6-0.5,7.7-1.8,7.8s-15.5,0-16.3-4.2S21.6,32.6,24.2,32.1z"/>
			</g>
			<g>
				<path fill="#797575" d="M25.8,35.7c2.2,1.3,3.1,8.6,1,9.2s-10.5,0-11.3-2.6C14.7,39.6,22.6,33.9,25.8,35.7z"/>
			</g>
		</g>
		<g>
			<g>
				<path fill="none" stroke="#010101" stroke-width="6" stroke-miterlimit="10" d="M38.7,50.6c2.2-3,6.7-5.5,10.8-5.3
					c4.5,0.2,8.2,1.7,8.5,3.9c0.3,2.2-16.7,8.7-18.4,7C38.3,55,37.2,52.6,38.7,50.6z"/>
				<path fill="#F79420" d="M38.7,50.6c2.2-3,6.7-5.5,10.8-5.3c4.5,0.2,8.2,1.7,8.5,3.9c0.3,2.2-16.7,8.7-18.4,7
					C38.3,55,37.2,52.6,38.7,50.6z"/>
			</g>
			<g>
				<path fill="#FDCA93" d="M57.1,47.5c-1.4-1.3-4.3-2.1-7.6-2.3c-3.2-0.1-6.7,1.4-9.1,3.5C45.4,50.7,52.4,49.6,57.1,47.5z"/>
			</g>
			<g>
				<path fill="#F26523" d="M58,49.2c0-0.4-0.2-0.7-0.4-1c-2.6,1.6-6.8,3.4-9.8,4.3c-3.5,1.1-7.6,1.9-9.9,0.4
					c0.1,1.3,0.8,2.6,1.7,3.4C41.4,57.9,58.3,51.4,58,49.2z"/>
			</g>
		</g>
	</g>
</g>
</svg>
