<?xml version="1.0" encoding="utf-8"?>
<!-- SPDX-License-Identifier: CC-BY-2.0 -->
<!-- Copyright 2015 Game Art Guppy LLC -->
<!-- Generator: Adobe Illustrator 17.1.0, SVG Export Plug-In . SVG Version: 6.00 Build 0)  -->
<!DOCTYPE svg PUBLIC "-//W3C//DTD SVG 1.1//EN" "http://www.w3.org/Graphics/SVG/1.1/DTD/svg11.dtd">
<svg version="1.1" xmlns="http://www.w3.org/2000/svg" xmlns:xlink="http://www.w3.org/1999/xlink" x="0px" y="0px"
	 viewBox="0 0 72 64" enable-background="new 0 0 72 64" xml:space="preserve">
<g id="penguin_x5F_jump02">
	<g id="jump_2">
		<g>
			<g>
				<path fill="none" stroke="#010101" stroke-width="6" stroke-miterlimit="10" d="M41.5,54.3c0.2-3.7,2.6-8.2,6-10.3
					c3.8-2.3,7.5-3,8.9-1.3c1.4,1.7-8.9,16.3-11.2,15.9C43.5,58.2,41.4,56.8,41.5,54.3z"/>
				<path fill="#F79420" d="M41.5,54.3c0.2-3.7,2.6-8.2,6-10.3c3.8-2.3,7.5-3,8.9-1.3c1.4,1.7-8.9,16.3-11.2,15.9
					C43.5,58.2,41.4,56.8,41.5,54.3z"/>
			</g>
			<g>
				<path fill="#FDCA93" d="M54.8,41.8c-1.8-0.3-4.6,0.5-7.3,2.2c-2.7,1.6-4.7,4.8-5.6,7.9C47,50.8,52.1,46.1,54.8,41.8z"/>
			</g>
			<g>
				<path fill="#F26523" d="M56.4,42.6c-0.2-0.3-0.5-0.5-0.9-0.6c-1.3,2.8-3.7,6.5-5.6,8.9c-2.3,2.8-5.2,5.7-7.8,5.7
					c0.7,1.1,2,1.7,3.1,2C47.5,59,57.8,44.4,56.4,42.6z"/>
			</g>
		</g>
		<g>
			<g>
				<path d="M50,32.1c0,0-0.2,0-0.6,0.1c-0.2,0-0.5,0.1-0.9,0.1c-0.2,0-0.5,0-0.7-0.1c-0.3-0.1-0.6-0.2-0.8-0.4
					c-0.5-0.4-0.7-0.9-0.9-1.3c-0.2-0.4-0.3-0.8-0.6-1.2c-0.2-0.4-0.5-0.8-0.8-1.2c-0.3-0.3-0.8-0.9-1.1-1.4c-0.7-1.1-1.5-2.3-2-3.8
					C41.2,22,41,21.3,41,20.2c0-0.3,0-0.6,0.2-1c0.1-0.2,0.2-0.4,0.4-0.7c0.1-0.1,0.2-0.2,0.3-0.4l0.3-0.2c0.3-0.3,0.7-0.5,1-0.8
					c1.3-0.9,2.6-1.8,4-2.7c1.4-0.8,3-1.7,4.6-2.3c0.8-0.3,1.7-0.6,2.7-0.8c1-0.2,2.1-0.3,3.5,0c0.7,0.2,1.6,0.5,2.3,1.2
					c0.2,0.2,0.4,0.4,0.5,0.5l0.1,0.2l0,0l0,0.1l0.2,0.3c0.2,0.3,0.3,0.5,0.4,0.7c0.1,0.2,0.2,0.4,0.2,0.6c0.2,0.8,0.3,1.5,0.2,2.1
					c0,0.6-0.1,1.1-0.2,1.6c-0.2,1-0.6,1.8-0.9,2.6c-0.4,0.8-0.8,1.5-1.2,2.1c-0.8,1.3-1.7,2.4-2.6,3.3c-1.8,1.9-3.4,3.3-4.7,4.2
					C51.1,31.8,50,32,50,32.1L50,32.1z M49.2,29.7c0,0,0.1-0.1,0.4-0.2c0.2-0.2,0.6-0.4,1.1-0.9c0.9-0.9,2.1-2.4,3.1-4.4
					c0.5-1,1.1-2.1,1.5-3.3c0.4-1.2,0.8-2.4,1-3.4c0.1-0.5,0-0.9,0-0.8c0,0,0,0,0,0c0,0,0,0,0.1,0.2l0,0.1c0,0,0,0,0,0l0-0.1l0,0
					l0,0l0.1,0.1c0,0,0.1,0.1,0.1,0.1c0.2,0.2,0.3,0.2,0.2,0.2c-0.1-0.1-0.6-0.1-1.2,0c-0.6,0.1-1.3,0.2-2,0.4
					c-1.4,0.3-2.8,0.8-4.3,1.3c-1.4,0.5-2.9,1-4.2,1.6c-0.3,0.1-0.6,0.3-0.9,0.4l-0.1,0c0,0,0.1,0,0.1-0.1c0.1-0.1,0.1-0.1,0.1-0.2
					c0.1-0.1,0.1-0.2,0.1-0.2c0-0.1,0,0-0.1,0c-0.1,0.3-0.1,1,0,1.6c0.2,1.2,0.6,2.4,1.1,3.4c0.3,0.5,0.5,0.9,0.9,1.4
					c0.3,0.5,0.6,1,0.8,1.5c0.2,0.5,0.4,0.9,0.6,1.2c0.2,0.3,0.4,0.6,0.5,0.5c0,0,0.4-0.1,0.7-0.2C49,29.8,49.2,29.7,49.2,29.7
					L49.2,29.7z"/>
				<path fill="#4F504F" d="M49.6,30.9c-3,1.1-2.2-0.9-4.5-3.8c-2.2-2.8-3.2-6.9-2.1-7.7c1-0.7,13-7.6,15.6-4.4
					C61.2,18.2,53.8,29.3,49.6,30.9z"/>
			</g>
			<g>
				<path fill="#797575" d="M49.3,27.8c-2.5,0-6.7-5.9-5.2-7.5c1.5-1.5,8.7-5.1,10.7-3.3S52.9,27.8,49.3,27.8z"/>
			</g>
		</g>
		<g>
			<g>
				<g>
					<g>
						<g>
							<path fill="none" stroke="#000000" stroke-width="6" stroke-linejoin="round" d="M47,17.7C45.8,11.6,44.2,4,34.4,4.1
								c-9.8,0.1-20.6,9.8-23.3,22.4s-0.5,21.1-2.4,24.7c6,6.9,28.6,5.4,35.5-1.8C50.3,43.1,48.1,23.2,47,17.7z"/>
							<path fill="none" stroke="#000000" stroke-width="6" stroke-linejoin="round" d="M47,17.7C45.8,11.6,44.2,4,34.4,4.1
								c-9.8,0.1-20.6,9.8-23.3,22.4s-0.5,21.1-2.4,24.7c6,6.9,28.6,5.4,35.5-1.8C50.3,43.1,48.1,23.2,47,17.7z"/>
						</g>
						<g>
							<path fill="none" stroke="#000000" stroke-width="6" stroke-linejoin="round" d="M13.7,28.2C17.5,10,35.1,2.2,42.5,7.3
								c-7.1-7.5-26.6,1.2-30.4,19.5C9.5,39.4,11.6,46.4,9.7,50C13.3,47.2,10.5,43.5,13.7,28.2z"/>
							<path fill="none" stroke="#000000" stroke-width="6" stroke-linejoin="round" d="M13.7,28.2C17.5,10,35.1,2.2,42.5,7.3
								c-7.1-7.5-26.6,1.2-30.4,19.5C9.5,39.4,11.6,46.4,9.7,50C13.3,47.2,10.5,43.5,13.7,28.2z"/>
						</g>
						<path fill="none" stroke="#000000" stroke-width="6" stroke-linejoin="round" d="M46,13.2c-2.6-2.2-5.3-3.1-9.5-2.6
							c-5.3,0.6-11.1,6.8-10.5,16.1c0.7,9.3,3.6,18.5,12.4,19.4c3.7,0.4,6.1,0.3,8.2-0.6c2.7-9,1.3-23,0.4-27.7
							C46.7,16.2,46.4,14.7,46,13.2z"/>
						<g>
							<path fill="none" stroke="#000000" stroke-width="6" stroke-linejoin="round" d="M44.3,49.3c3.8-4,4.8-13.3,4.1-21.3
								c-0.6,2.9,0.4,12.8-5.9,18.2C36.6,51.4,14.8,53,8.8,51c0,0.1,0,0.1-0.1,0.2C14.7,58.1,37.4,56.5,44.3,49.3z"/>
							<path fill="none" stroke="#000000" stroke-width="6" stroke-linejoin="round" d="M44.3,49.3c3.8-4,4.8-13.3,4.1-21.3
								c-0.6,2.9,0.4,12.8-5.9,18.2C36.6,51.4,14.8,53,8.8,51c0,0.1,0,0.1-0.1,0.2C14.7,58.1,37.4,56.5,44.3,49.3z"/>
						</g>
					</g>
					<g>
						<g>
							<path fill="none" stroke="#000000" stroke-width="6" stroke-linejoin="round" d="M47,17.7C45.8,11.6,44.2,4,34.4,4.1
								c-9.8,0.1-20.6,9.8-23.3,22.4s-0.5,21.1-2.4,24.7c6,6.9,28.6,5.4,35.5-1.8C50.3,43.1,48.1,23.2,47,17.7z"/>
							<path fill="none" stroke="#000000" stroke-width="6" stroke-linejoin="round" d="M47,17.7C45.8,11.6,44.2,4,34.4,4.1
								c-9.8,0.1-20.6,9.8-23.3,22.4s-0.5,21.1-2.4,24.7c6,6.9,28.6,5.4,35.5-1.8C50.3,43.1,48.1,23.2,47,17.7z"/>
						</g>
						<g>
							<path fill="none" stroke="#000000" stroke-width="6" stroke-linejoin="round" d="M13.7,28.2C17.5,10,35.1,2.2,42.5,7.3
								c-7.1-7.5-26.6,1.2-30.4,19.5C9.5,39.4,11.6,46.4,9.7,50C13.3,47.2,10.5,43.5,13.7,28.2z"/>
							<path fill="none" stroke="#000000" stroke-width="6" stroke-linejoin="round" d="M13.7,28.2C17.5,10,35.1,2.2,42.5,7.3
								c-7.1-7.5-26.6,1.2-30.4,19.5C9.5,39.4,11.6,46.4,9.7,50C13.3,47.2,10.5,43.5,13.7,28.2z"/>
						</g>
						<path fill="none" stroke="#000000" stroke-width="6" stroke-linejoin="round" d="M46,13.2c-2.6-2.2-5.3-3.1-9.5-2.6
							c-5.3,0.6-11.1,6.8-10.5,16.1c0.7,9.3,3.6,18.5,12.4,19.4c3.7,0.4,6.1,0.3,8.2-0.6c2.7-9,1.3-23,0.4-27.7
							C46.7,16.2,46.4,14.7,46,13.2z"/>
						<g>
							<path fill="none" stroke="#000000" stroke-width="6" stroke-linejoin="round" d="M44.3,49.3c3.8-4,4.8-13.3,4.1-21.3
								c-0.6,2.9,0.4,12.8-5.9,18.2C36.6,51.4,14.8,53,8.8,51c0,0.1,0,0.1-0.1,0.2C14.7,58.1,37.4,56.5,44.3,49.3z"/>
							<path fill="none" stroke="#000000" stroke-width="6" stroke-linejoin="round" d="M44.3,49.3c3.8-4,4.8-13.3,4.1-21.3
								c-0.6,2.9,0.4,12.8-5.9,18.2C36.6,51.4,14.8,53,8.8,51c0,0.1,0,0.1-0.1,0.2C14.7,58.1,37.4,56.5,44.3,49.3z"/>
						</g>
					</g>
					<g>
						<g>
							<path fill="none" stroke="#000000" stroke-width="6" stroke-linejoin="round" d="M47,17.7C45.8,11.6,44.2,4,34.4,4.1
								c-9.8,0.1-20.6,9.8-23.3,22.4s-0.5,21.1-2.4,24.7c6,6.9,28.6,5.4,35.5-1.8C50.3,43.1,48.1,23.2,47,17.7z"/>
							<path fill="none" stroke="#000000" stroke-width="6" stroke-linejoin="round" d="M47,17.7C45.8,11.6,44.2,4,34.4,4.1
								c-9.8,0.1-20.6,9.8-23.3,22.4s-0.5,21.1-2.4,24.7c6,6.9,28.6,5.4,35.5-1.8C50.3,43.1,48.1,23.2,47,17.7z"/>
						</g>
						<g>
							<path fill="none" stroke="#000000" stroke-width="6" stroke-linejoin="round" d="M13.7,28.2C17.5,10,35.1,2.2,42.5,7.3
								c-7.1-7.5-26.6,1.2-30.4,19.5C9.5,39.4,11.6,46.4,9.7,50C13.3,47.2,10.5,43.5,13.7,28.2z"/>
							<path fill="none" stroke="#000000" stroke-width="6" stroke-linejoin="round" d="M13.7,28.2C17.5,10,35.1,2.2,42.5,7.3
								c-7.1-7.5-26.6,1.2-30.4,19.5C9.5,39.4,11.6,46.4,9.7,50C13.3,47.2,10.5,43.5,13.7,28.2z"/>
						</g>
						<path fill="none" stroke="#000000" stroke-width="6" stroke-linejoin="round" d="M46,13.2c-2.6-2.2-5.3-3.1-9.5-2.6
							c-5.3,0.6-11.1,6.8-10.5,16.1c0.7,9.3,3.6,18.5,12.4,19.4c3.7,0.4,6.1,0.3,8.2-0.6c2.7-9,1.3-23,0.4-27.7
							C46.7,16.2,46.4,14.7,46,13.2z"/>
						<g>
							<path fill="none" stroke="#000000" stroke-width="6" stroke-linejoin="round" d="M44.3,49.3c3.8-4,4.8-13.3,4.1-21.3
								c-0.6,2.9,0.4,12.8-5.9,18.2C36.6,51.4,14.8,53,8.8,51c0,0.1,0,0.1-0.1,0.2C14.7,58.1,37.4,56.5,44.3,49.3z"/>
							<path fill="none" stroke="#000000" stroke-width="6" stroke-linejoin="round" d="M44.3,49.3c3.8-4,4.8-13.3,4.1-21.3
								c-0.6,2.9,0.4,12.8-5.9,18.2C36.6,51.4,14.8,53,8.8,51c0,0.1,0,0.1-0.1,0.2C14.7,58.1,37.4,56.5,44.3,49.3z"/>
						</g>
					</g>
				</g>
				<g>
					<g>
						<path fill="none" stroke="#000000" stroke-width="6" stroke-linejoin="round" d="M34.7,12.7c0,0,0.2,0,0.5,0
							c0.2,0,1,0,1.6,0.2c0.7,0.1,1.4,0.5,2.2,1c0.8,0.5,1.5,1.2,2.1,2.1c0.6,0.9,1.2,2,1.4,3.2c0.1,0.3,0.1,0.6,0.2,0.9
							c0,0.3,0.1,0.7,0.1,1l0,0.5l0,0.3l0,0.1l0,0c0,0,0-0.1,0,0.1l0,0l0,0.1l-0.1,0.5c0,0.1,0,0.3-0.1,0.5
							c-0.2,0.8-0.5,1.5-0.9,2.1c-0.4,0.7-0.8,1.3-1.3,1.8c-1,1.1-2.4,2.1-4.1,2.6l-0.7,0.2c-0.2,0-0.5,0-0.7,0.1
							c-0.2,0-0.5,0-0.7,0l-0.7-0.1c-0.2,0-0.5-0.1-0.7-0.1l-0.7-0.2l-0.6-0.2L31,28.9c-0.8-0.4-1.4-1-2-1.6
							c-0.2-0.3-0.5-0.6-0.7-0.9l-0.2-0.2L28,26.1l0-0.1l0,0l-0.1-0.2l0,0l-0.2-0.4l-0.2-0.4c-0.1-0.2-0.2-0.4-0.3-0.7
							c-0.1-0.2-0.2-0.5-0.3-0.7c-0.1-0.2-0.1-0.4-0.1-0.6c-0.1-0.4-0.2-0.8-0.2-1.2c0-0.4,0-0.8,0-1.2c0.1-1.6,0.6-2.9,1.3-4
							c0.7-1,1.6-1.8,2.4-2.3c0.8-0.5,1.6-0.9,2.3-1.1c0.3-0.1,0.6-0.2,0.9-0.3c0.3-0.1,0.5-0.1,0.7-0.2
							C34.4,12.8,34.6,12.7,34.7,12.7L34.7,12.7z M35,14.8c0,0-0.1,0.1-0.3,0.2c-0.1,0-0.2,0.1-0.4,0.2c-0.1,0.1-0.3,0.2-0.5,0.4
							c-0.4,0.3-0.7,0.8-1,1.4c-0.3,0.6-0.6,1.3-0.8,2c-0.2,0.7-0.5,1.4-0.6,2.1c0,0.2,0,0.4,0,0.5c0,0.2,0,0.4,0,0.5
							c0,0.1,0,0.2,0,0.3c0,0.1,0,0.1,0,0.2c0,0.1,0,0.1,0,0.2l0.2,0.4l0.2,0.4l0,0c0-0.1,0.1,0.2-0.1-0.1l0,0l0,0l0.1,0.1l0.1,0.1
							l0.4,0.6c0.3,0.3,0.6,0.7,0.9,0.9c0.6,0.5,1.3,0.8,2.2,0.8c0.9,0,1.9-0.5,2.7-1.1c0.4-0.3,0.8-0.7,1.2-1.1
							c0.3-0.4,0.6-0.9,0.8-1.2c0-0.1,0.1-0.1,0.1-0.2l0.1-0.2l0.1-0.4l0-0.1l0,0c0,0.2,0,0,0,0.1l0,0l0,0l0-0.2l0.1-0.4
							c0-0.3,0-0.5,0-0.8c0-0.3,0-0.5,0-0.8c-0.1-1-0.4-1.9-0.9-2.7c-0.4-0.8-1-1.4-1.6-1.7c-0.6-0.4-1.2-0.5-1.7-0.5
							c-0.2,0-0.4,0-0.6,0c-0.1,0-0.3,0-0.5,0.1C35.1,14.8,34.9,14.8,35,14.8L35,14.8z"/>
						<path fill="none" stroke="#000000" stroke-width="6" stroke-linejoin="round" d="M34.8,13.8c4.2-0.8,7.4,3.7,6.8,8.1
							c-0.6,4.4-7.4,9.7-11.8,2.9C26.9,20.2,31.3,14.4,34.8,13.8z"/>
					</g>
					<path fill="none" stroke="#000000" stroke-width="6" stroke-linejoin="round" d="M40.9,22.1c0,1-0.7,1.9-1.5,1.9
						c-0.9,0-1.6-0.8-1.6-1.8c0-1,0.7-1.9,1.5-1.9C40.1,20.3,40.9,21.1,40.9,22.1z"/>
				</g>
				<g>
					<path fill="none" stroke="#000000" stroke-width="6" stroke-linejoin="round" d="M47.3,18.6c-2,0.1-3.8,4.6-3.7,7.1
						c0.1,3.8,3,6.3,4.5,5.8s7.3-6.1,7.3-7.4C55.4,23.4,48.8,18.5,47.3,18.6z"/>
					<g>
						<path fill="none" stroke="#000000" stroke-width="6" stroke-linejoin="round" d="M47,20.1c1.1-1.3,7.4,2.7,6.9,3.5
							c-0.4,0.8-9.3,1.5-8.9,0.3C45.4,22.6,45.9,21.4,47,20.1z"/>
						<path fill="none" stroke="#000000" stroke-width="6" stroke-linejoin="round" d="M47,20.1c1.1-1.3,7.4,2.7,6.9,3.5
							c-0.4,0.8-9.3,1.5-8.9,0.3C45.4,22.6,45.9,21.4,47,20.1z"/>
					</g>
					<g>
						<path fill="none" stroke="#000000" stroke-width="6" stroke-linejoin="round" d="M55.1,24.8c-3.1,1.1-8.6,2.3-11.4,2.2
							c0.6,3,3,4.9,4.4,4.4C49.4,31,54,26.8,55.1,24.8z"/>
						<path fill="none" stroke="#000000" stroke-width="6" stroke-linejoin="round" d="M55.1,24.8c-3.1,1.1-8.6,2.3-11.4,2.2
							c0.6,3,3,4.9,4.4,4.4C49.4,31,54,26.8,55.1,24.8z"/>
					</g>
				</g>
			</g>
			<g>
				<g>
					<g>
						<g>
							<path fill="#4F504F" d="M47,17.7C45.8,11.6,44.2,4,34.4,4.1c-9.8,0.1-20.6,9.8-23.3,22.4s-0.5,21.1-2.4,24.7
								c6,6.9,28.6,5.4,35.5-1.8C50.3,43.1,48.1,23.2,47,17.7z"/>
						</g>
						<g>
							<path fill="#706D6D" d="M13.7,28.2C17.5,10,35.1,2.2,42.5,7.3c-7.1-7.5-26.6,1.2-30.4,19.5C9.5,39.4,11.6,46.4,9.7,50
								C13.3,47.2,10.5,43.5,13.7,28.2z"/>
						</g>
						<path fill="#FFFFFF" d="M46,13.2c-2.6-2.2-5.3-3.1-9.5-2.6c-5.3,0.6-11.1,6.8-10.5,16.1c0.7,9.3,3.6,18.5,12.4,19.4
							c3.7,0.4,6.1,0.3,8.2-0.6c2.7-9,1.3-23,0.4-27.7C46.7,16.2,46.4,14.7,46,13.2z"/>
						<g opacity="0.5">
							<path fill="#4F504F" d="M44.3,49.3c3.8-4,4.8-13.3,4.1-21.3c-0.6,2.9,0.4,12.8-5.9,18.2C36.6,51.4,14.8,53,8.8,51
								c0,0.1,0,0.1-0.1,0.2C14.7,58.1,37.4,56.5,44.3,49.3z"/>
						</g>
					</g>
				</g>
				<g>
					<g>
						<path d="M34.7,12.7c0,0,0.2,0,0.5,0c0.2,0,1,0,1.6,0.2c0.7,0.1,1.4,0.5,2.2,1c0.8,0.5,1.5,1.2,2.1,2.1c0.6,0.9,1.2,2,1.4,3.2
							c0.1,0.3,0.1,0.6,0.2,0.9c0,0.3,0.1,0.7,0.1,1l0,0.5l0,0.3l0,0.1l0,0c0,0,0-0.1,0,0.1l0,0l0,0.1l-0.1,0.5c0,0.1,0,0.3-0.1,0.5
							c-0.2,0.8-0.5,1.5-0.9,2.1c-0.4,0.7-0.8,1.3-1.3,1.8c-1,1.1-2.4,2.1-4.1,2.6l-0.7,0.2c-0.2,0-0.5,0-0.7,0.1
							c-0.2,0-0.5,0-0.7,0l-0.7-0.1c-0.2,0-0.5-0.1-0.7-0.1l-0.7-0.2l-0.6-0.2L31,28.9c-0.8-0.4-1.4-1-2-1.6
							c-0.2-0.3-0.5-0.6-0.7-0.9l-0.2-0.2L28,26.1l0-0.1l0,0l-0.1-0.2l0,0l-0.2-0.4l-0.2-0.4c-0.1-0.2-0.2-0.4-0.3-0.7
							c-0.1-0.2-0.2-0.5-0.3-0.7c-0.1-0.2-0.1-0.4-0.1-0.6c-0.1-0.4-0.2-0.8-0.2-1.2c0-0.4,0-0.8,0-1.2c0.1-1.6,0.6-2.9,1.3-4
							c0.7-1,1.6-1.8,2.4-2.3c0.8-0.5,1.6-0.9,2.3-1.1c0.3-0.1,0.6-0.2,0.9-0.3c0.3-0.1,0.5-0.1,0.7-0.2
							C34.4,12.8,34.6,12.7,34.7,12.7L34.7,12.7z M35,14.8c0,0-0.1,0.1-0.3,0.2c-0.1,0-0.2,0.1-0.4,0.2c-0.1,0.1-0.3,0.2-0.5,0.4
							c-0.4,0.3-0.7,0.8-1,1.4c-0.3,0.6-0.6,1.3-0.8,2c-0.2,0.7-0.5,1.4-0.6,2.1c0,0.2,0,0.4,0,0.5c0,0.2,0,0.4,0,0.5
							c0,0.1,0,0.2,0,0.3c0,0.1,0,0.1,0,0.2c0,0.1,0,0.1,0,0.2l0.2,0.4l0.2,0.4l0,0c0-0.1,0.1,0.2-0.1-0.1l0,0l0,0l0.1,0.1l0.1,0.1
							l0.4,0.6c0.3,0.3,0.6,0.7,0.9,0.9c0.6,0.5,1.3,0.8,2.2,0.8c0.9,0,1.9-0.5,2.7-1.1c0.4-0.3,0.8-0.7,1.2-1.1
							c0.3-0.4,0.6-0.9,0.8-1.2c0-0.1,0.1-0.1,0.1-0.2l0.1-0.2l0.1-0.4l0-0.1l0,0c0,0.2,0,0,0,0.1l0,0l0,0l0-0.2l0.1-0.4
							c0-0.3,0-0.5,0-0.8c0-0.3,0-0.5,0-0.8c-0.1-1-0.4-1.9-0.9-2.7c-0.4-0.8-1-1.4-1.6-1.7c-0.6-0.4-1.2-0.5-1.7-0.5
							c-0.2,0-0.4,0-0.6,0c-0.1,0-0.3,0-0.5,0.1C35.1,14.8,34.9,14.8,35,14.8L35,14.8z"/>
						<path fill="#FFFFFF" d="M34.8,13.8c4.2-0.8,7.4,3.7,6.8,8.1c-0.6,4.4-7.4,9.7-11.8,2.9C26.9,20.2,31.3,14.4,34.8,13.8z"/>
					</g>
					<path d="M40.9,22.1c0,1-0.7,1.9-1.5,1.9c-0.9,0-1.6-0.8-1.6-1.8c0-1,0.7-1.9,1.5-1.9C40.1,20.3,40.9,21.1,40.9,22.1z"/>
				</g>
				<g>
					<path fill="#F79420" d="M47.3,18.6c-2,0.1-3.8,4.6-3.7,7.1c0.1,3.8,3,6.3,4.5,5.8s7.3-6.1,7.3-7.4
						C55.4,23.4,48.8,18.5,47.3,18.6z"/>
					<g>
						<path fill="#FDCA93" d="M47,20.1c1.1-1.3,7.4,2.7,6.9,3.5c-0.4,0.8-9.3,1.5-8.9,0.3C45.4,22.6,45.9,21.4,47,20.1z"/>
					</g>
					<g opacity="0.8">
						<path fill="#F26523" d="M55.1,24.8c-3.1,1.1-8.6,2.3-11.4,2.2c0.6,3,3,4.9,4.4,4.4C49.4,31,54,26.8,55.1,24.8z"/>
					</g>
				</g>
			</g>
		</g>
		<g>
			<g>
				<path fill="none" stroke="#010101" stroke-width="6" stroke-miterlimit="10" d="M13.2,45.6c2.6,1.1,4.9,4,4.6,7.2
					c-0.3,3.5-1.7,6.5-3.8,7.2C12,60.5,6.4,49,8,47.3C9.2,46.1,11.4,44.8,13.2,45.6z"/>
				<path fill="#F79420" d="M13.2,45.6c2.6,1.1,4.9,4,4.6,7.2c-0.3,3.5-1.7,6.5-3.8,7.2C12,60.5,6.4,49,8,47.3
					C9.2,46.1,11.4,44.8,13.2,45.6z"/>
			</g>
			<g>
				<path fill="#FDCA93" d="M15.5,58.9c1.2-1.3,2-3.6,2.2-6.1c0.2-2.5-1.1-4.8-3-6.2C12.9,50.6,13.7,55.7,15.5,58.9z"/>
			</g>
			<g>
				<path fill="#F26523" d="M14,59.9c0.3-0.1,0.7-0.3,1-0.5c-1.4-1.7-2.9-4.5-3.7-6.6c-0.9-2.5-1.5-5.4-0.1-7.4
					c-1.2,0.3-2.4,1.1-3.1,1.9C6.4,49,12,60.5,14,59.9z"/>
			</g>
		</g>
		<g>
			<g>
				<path d="M16.2,21.4c0,0,0.1,0,0.2,0c0.1,0,0.2,0,0.3,0c0.1,0,0.1,0,0.2,0c0.1,0,0.3,0.1,0.4,0.1c0.5,0.2,1.1,0.6,1.6,1.2
					c0.6,0.6,1.1,1.3,1.7,2.2c0.6,0.9,1.1,1.9,1.6,3.2c0.4,1.2,0.6,2.6,0.6,4.1c0,0.7,0,1.5-0.1,2.3c-0.1,0.8-0.2,1.6-0.9,2.7
					c-0.2,0.3-0.4,0.6-0.9,0.9c-0.1,0.1-0.3,0.1-0.4,0.2c-0.1,0-0.4,0.1-0.5,0.1l-0.4,0.1c-0.4,0.1-0.8,0.1-1.2,0.2
					c-0.8,0.1-1.6,0.2-2.4,0.2c-1.6,0.1-3.3,0.2-5,0.1c-1.7-0.1-3.4-0.3-5.3-1c-0.9-0.3-1.9-0.8-3-1.7c-0.5-0.5-1.1-1.2-1.4-2.1
					c0-0.1-0.1-0.2-0.1-0.3l0-0.2l0-0.1l0,0l0-0.3L1,33c0-0.1,0,0,0-0.2l0-0.4c0-0.2,0-0.6,0.1-0.7c0.3-1.5,0.9-2.5,1.5-3.2
					c0.6-0.8,1.3-1.3,1.9-1.8c1.2-1,2.5-1.7,3.6-2.3c2.3-1.1,4.2-1.8,5.6-2.3c0.7-0.2,1.3-0.4,1.7-0.5c0.4-0.1,0.7-0.1,0.7-0.1
					L16.2,21.4z M16.5,23.9c0,0-0.2,0.1-0.4,0.2c-0.3,0.1-0.7,0.4-1.3,0.7c-1.1,0.7-2.7,1.8-4.4,3.3c-0.8,0.8-1.7,1.6-2.4,2.5
					c-0.4,0.4-0.7,0.9-0.9,1.3c-0.2,0.4-0.3,0.7-0.3,0.7c0,0,0-0.1,0-0.2c0,0,0-0.1,0-0.1c0-0.1,0,0.1,0,0.1l0,0.3l0-0.3l0,0l0-0.1
					C6.8,32,6.8,31.9,6.8,32c0,0.1,0.5,0.4,1,0.6c1,0.5,2.5,0.8,3.9,1.1c1.4,0.3,2.9,0.6,4.4,0.8c0.7,0.1,1.5,0.2,2.2,0.3
					c0.4,0,0.7,0.1,1.1,0.1l0.2,0c0,0-0.1,0-0.2,0.1c-0.1,0-0.1,0.1-0.2,0.1c-0.2,0.1-0.1,0.2-0.1,0.1c0.2-0.1,0.6-0.8,0.8-1.3
					c0.2-0.6,0.4-1.2,0.5-1.8c0.2-1.2,0.2-2.4,0-3.5c-0.2-1-0.6-2-1.2-2.7c-0.5-0.7-1.1-1.2-1.6-1.6C17.1,24.1,16.7,23.9,16.5,23.9z
					"/>
				<path fill="#4F504F" d="M16.3,22.6c1.1-0.2,4.4,2.7,5,6.3s-0.3,7.7-1.6,7.8S4.9,37.1,4,32.9S13.9,23.1,16.3,22.6z"/>
			</g>
			<g>
				<path fill="#797575" d="M18,26.2c2.2,1.2,3.2,8.5,1.2,9.1S9.1,35.6,8.3,33C7.4,30.4,14.9,24.4,18,26.2z"/>
			</g>
		</g>
	</g>
</g>
</svg>
