<?xml version="1.0" encoding="utf-8"?>
<!-- SPDX-License-Identifier: CC-BY-2.0 -->
<!-- Copyright 2015 Game Art Guppy LLC -->
<!-- Generator: Adobe Illustrator 17.1.0, SVG Export Plug-In . SVG Version: 6.00 Build 0)  -->
<!DOCTYPE svg PUBLIC "-//W3C//DTD SVG 1.1//EN" "http://www.w3.org/Graphics/SVG/1.1/DTD/svg11.dtd">
<svg version="1.1" xmlns="http://www.w3.org/2000/svg" xmlns:xlink="http://www.w3.org/1999/xlink" x="0px" y="0px"
	 viewBox="0 0 72 64" enable-background="new 0 0 72 64" xml:space="preserve">
<g id="penguin_x5F_die04">
	<g id="dead_5_">
		<g>
			<g>
				<path fill="none" stroke="#010101" stroke-width="6" stroke-miterlimit="10" d="M45.8,28.9c-1.1-3.5-0.5-8.7,2.1-11.9
					c2.8-3.6,6.2-5.7,8.2-4.6c2,1.1-2.8,18.6-5.1,19C49.1,31.8,46.6,31.3,45.8,28.9z"/>
				<path fill="#F79420" d="M45.8,28.9c-1.1-3.5-0.5-8.7,2.1-11.9c2.8-3.6,6.2-5.7,8.2-4.6c2,1.1-2.8,18.6-5.1,19
					C49.1,31.8,46.6,31.3,45.8,28.9z"/>
			</g>
			<g>
				<path fill="#FDCA93" d="M54.2,12.2c-1.9,0.4-4.2,2.2-6.3,4.8c-2,2.5-2.8,6.3-2.5,9.5C49.8,23.6,53.1,17.2,54.2,12.2z"/>
			</g>
			<g>
				<path fill="#F26523" d="M56.1,12.4c-0.3-0.2-0.7-0.3-1.1-0.3c-0.2,3.1-1.3,7.5-2.3,10.4c-1.2,3.5-3,7.2-5.5,8.2
					c1.1,0.7,2.6,0.9,3.7,0.7C53.3,31,58,13.5,56.1,12.4z"/>
			</g>
		</g>
		<g>
			<g>
				<g>
					<g>
						<g>
							<path fill="none" stroke="#000000" stroke-width="6" stroke-linejoin="round" d="M17.1,21.6c-6.1,2-13.3,6.5-11.9,16.6
								s12.5,18.3,25.7,19.3c13.3,1,21.7-2.4,25.7-0.9c6.3-7.1,2.2-31.3-6.1-37.4C43.2,13.9,22.6,19.8,17.1,21.6z"/>
							<path fill="none" stroke="#000000" stroke-width="6" stroke-linejoin="round" d="M17.1,21.6c-6.1,2-13.3,6.5-11.9,16.6
								s12.5,18.3,25.7,19.3c13.3,1,21.7-2.4,25.7-0.9c6.3-7.1,2.2-31.3-6.1-37.4C43.2,13.9,22.6,19.8,17.1,21.6z"/>
						</g>
						<path fill="none" stroke="#000000" stroke-width="6" stroke-linejoin="round" d="M12.7,23.5c-1.9,2.9-2.6,5.7-1.6,9.9
							c1.4,5.4,8.5,10.6,17.9,8.6c9.4-2,18.5-6.2,18.2-15.4c-0.1-3.9-0.9-7.3-2.1-9.3c-9.6-1.5-23.3,2.7-28.1,4.3
							C15.6,22.1,14.1,22.8,12.7,23.5z"/>
						<g>
							<path fill="none" stroke="#000000" stroke-width="6" stroke-linejoin="round" d="M50.4,19.2c-4.6-3.4-14.8-2.2-22.9-0.4
								c3,0.2,14-3.2,20.4,2.5c6.1,5.4,9.8,28.9,8.5,35.3c0.1,0,0.1,0,0.2,0.1C62.9,49.5,58.7,25.4,50.4,19.2z"/>
							<path fill="none" stroke="#000000" stroke-width="6" stroke-linejoin="round" d="M50.4,19.2c-4.6-3.4-14.8-2.2-22.9-0.4
								c3,0.2,14-3.2,20.4,2.5c6.1,5.4,9.8,28.9,8.5,35.3c0.1,0,0.1,0,0.2,0.1C62.9,49.5,58.7,25.4,50.4,19.2z"/>
						</g>
						<g>
							<path fill="none" stroke="#000000" stroke-width="6" stroke-linejoin="round" d="M56.6,56.7c1.4-1.6,2.3-4.1,2.7-7
								c-6.2,1.6-16.4,2.2-29.2,1.3C12.9,49.9,6.8,39.1,5.9,30.7c-0.8,2.1-1.2,4.6-0.8,7.5c1.4,10.1,12.5,18.3,25.7,19.3
								C44.1,58.6,52.6,55.2,56.6,56.7z"/>
							<path fill="none" stroke="#000000" stroke-width="6" stroke-linejoin="round" d="M56.6,56.7c1.4-1.6,2.3-4.1,2.7-7
								c-6.2,1.6-16.4,2.2-29.2,1.3C12.9,49.9,6.8,39.1,5.9,30.7c-0.8,2.1-1.2,4.6-0.8,7.5c1.4,10.1,12.5,18.3,25.7,19.3
								C44.1,58.6,52.6,55.2,56.6,56.7z"/>
						</g>
					</g>
					<g>
						<g>
							<path fill="none" stroke="#000000" stroke-width="6" stroke-linejoin="round" d="M17.1,21.6c-6.1,2-13.3,6.5-11.9,16.6
								s12.5,18.3,25.7,19.3c13.3,1,21.7-2.4,25.7-0.9c6.3-7.1,2.2-31.3-6.1-37.4C43.2,13.9,22.6,19.8,17.1,21.6z"/>
							<path fill="none" stroke="#000000" stroke-width="6" stroke-linejoin="round" d="M17.1,21.6c-6.1,2-13.3,6.5-11.9,16.6
								s12.5,18.3,25.7,19.3c13.3,1,21.7-2.4,25.7-0.9c6.3-7.1,2.2-31.3-6.1-37.4C43.2,13.9,22.6,19.8,17.1,21.6z"/>
						</g>
						<path fill="none" stroke="#000000" stroke-width="6" stroke-linejoin="round" d="M12.7,23.5c-1.9,2.9-2.6,5.7-1.6,9.9
							c1.4,5.4,8.5,10.6,17.9,8.6c9.4-2,18.5-6.2,18.2-15.4c-0.1-3.9-0.9-7.3-2.1-9.3c-9.6-1.5-23.3,2.7-28.1,4.3
							C15.6,22.1,14.1,22.8,12.7,23.5z"/>
						<g>
							<path fill="none" stroke="#000000" stroke-width="6" stroke-linejoin="round" d="M50.4,19.2c-4.6-3.4-14.8-2.2-22.9-0.4
								c3,0.2,14-3.2,20.4,2.5c6.1,5.4,9.8,28.9,8.5,35.3c0.1,0,0.1,0,0.2,0.1C62.9,49.5,58.7,25.4,50.4,19.2z"/>
							<path fill="none" stroke="#000000" stroke-width="6" stroke-linejoin="round" d="M50.4,19.2c-4.6-3.4-14.8-2.2-22.9-0.4
								c3,0.2,14-3.2,20.4,2.5c6.1,5.4,9.8,28.9,8.5,35.3c0.1,0,0.1,0,0.2,0.1C62.9,49.5,58.7,25.4,50.4,19.2z"/>
						</g>
						<g>
							<path fill="none" stroke="#000000" stroke-width="6" stroke-linejoin="round" d="M56.6,56.7c1.4-1.6,2.3-4.1,2.7-7
								c-6.2,1.6-16.4,2.2-29.2,1.3C12.9,49.9,6.8,39.1,5.9,30.7c-0.8,2.1-1.2,4.6-0.8,7.5c1.4,10.1,12.5,18.3,25.7,19.3
								C44.1,58.6,52.6,55.2,56.6,56.7z"/>
							<path fill="none" stroke="#000000" stroke-width="6" stroke-linejoin="round" d="M56.6,56.7c1.4-1.6,2.3-4.1,2.7-7
								c-6.2,1.6-16.4,2.2-29.2,1.3C12.9,49.9,6.8,39.1,5.9,30.7c-0.8,2.1-1.2,4.6-0.8,7.5c1.4,10.1,12.5,18.3,25.7,19.3
								C44.1,58.6,52.6,55.2,56.6,56.7z"/>
						</g>
					</g>
					<g>
						<g>
							<path fill="none" stroke="#000000" stroke-width="6" stroke-linejoin="round" d="M17.1,21.6c-6.1,2-13.3,6.5-11.9,16.6
								s12.5,18.3,25.7,19.3c13.3,1,21.7-2.4,25.7-0.9c6.3-7.1,2.2-31.3-6.1-37.4C43.2,13.9,22.6,19.8,17.1,21.6z"/>
							<path fill="none" stroke="#000000" stroke-width="6" stroke-linejoin="round" d="M17.1,21.6c-6.1,2-13.3,6.5-11.9,16.6
								s12.5,18.3,25.7,19.3c13.3,1,21.7-2.4,25.7-0.9c6.3-7.1,2.2-31.3-6.1-37.4C43.2,13.9,22.6,19.8,17.1,21.6z"/>
						</g>
						<path fill="none" stroke="#000000" stroke-width="6" stroke-linejoin="round" d="M12.7,23.5c-1.9,2.9-2.6,5.7-1.6,9.9
							c1.4,5.4,8.5,10.6,17.9,8.6c9.4-2,18.5-6.2,18.2-15.4c-0.1-3.9-0.9-7.3-2.1-9.3c-9.6-1.5-23.3,2.7-28.1,4.3
							C15.6,22.1,14.1,22.8,12.7,23.5z"/>
						<g>
							<path fill="none" stroke="#000000" stroke-width="6" stroke-linejoin="round" d="M50.4,19.2c-4.6-3.4-14.8-2.2-22.9-0.4
								c3,0.2,14-3.2,20.4,2.5c6.1,5.4,9.8,28.9,8.5,35.3c0.1,0,0.1,0,0.2,0.1C62.9,49.5,58.7,25.4,50.4,19.2z"/>
							<path fill="none" stroke="#000000" stroke-width="6" stroke-linejoin="round" d="M50.4,19.2c-4.6-3.4-14.8-2.2-22.9-0.4
								c3,0.2,14-3.2,20.4,2.5c6.1,5.4,9.8,28.9,8.5,35.3c0.1,0,0.1,0,0.2,0.1C62.9,49.5,58.7,25.4,50.4,19.2z"/>
						</g>
						<g>
							<path fill="none" stroke="#000000" stroke-width="6" stroke-linejoin="round" d="M56.6,56.7c1.4-1.6,2.3-4.1,2.7-7
								c-6.2,1.6-16.4,2.2-29.2,1.3C12.9,49.9,6.8,39.1,5.9,30.7c-0.8,2.1-1.2,4.6-0.8,7.5c1.4,10.1,12.5,18.3,25.7,19.3
								C44.1,58.6,52.6,55.2,56.6,56.7z"/>
							<path fill="none" stroke="#000000" stroke-width="6" stroke-linejoin="round" d="M56.6,56.7c1.4-1.6,2.3-4.1,2.7-7
								c-6.2,1.6-16.4,2.2-29.2,1.3C12.9,49.9,6.8,39.1,5.9,30.7c-0.8,2.1-1.2,4.6-0.8,7.5c1.4,10.1,12.5,18.3,25.7,19.3
								C44.1,58.6,52.6,55.2,56.6,56.7z"/>
						</g>
					</g>
				</g>
				<g>
					<g>
						<path fill="none" stroke="#000000" stroke-width="6" stroke-linejoin="round" d="M26.8,13.2c-1.3,0.2-2.9,7.8-0.5,10.6
							c2.9-1,3.6-4.7,3.1-6.1C29,16.7,28.9,14.2,26.8,13.2z"/>
						<path fill="none" stroke="#000000" stroke-width="6" stroke-linejoin="round" d="M26.8,13.2c-1.3,0.2-2.9,7.8-0.5,10.6
							c2.9-1,3.6-4.7,3.1-6.1C29,16.7,28.9,14.2,26.8,13.2z"/>
					</g>
					<path fill="none" stroke="#000000" stroke-width="6" stroke-linejoin="round" d="M17.4,21.3c0.4,2.1,5.1,3.3,7.5,3
						c3.8-0.6,1.7-2.3,1-3.9c-0.7-1.5-3.3-8.3-4.6-8.1C20.7,12.4,17.1,19.7,17.4,21.3z"/>
					<g>
						<path fill="none" stroke="#000000" stroke-width="6" stroke-linejoin="round" d="M18.9,21.4c-1.4-1,1.6-8,2.5-7.6
							c0.9,0.3,2.8,9.5,1.5,9.2C21.7,22.7,20.4,22.4,18.9,21.4z"/>
						<path fill="none" stroke="#000000" stroke-width="6" stroke-linejoin="round" d="M18.9,21.4c-1.4-1,1.6-8,2.5-7.6
							c0.9,0.3,2.8,9.5,1.5,9.2C21.7,22.7,20.4,22.4,18.9,21.4z"/>
					</g>
					<path fill="none" stroke="#000000" stroke-width="6" stroke-linejoin="round" d="M26.8,13.2c0.8,3.3-0.8,7.7-0.5,10.6
						c2.9-1,3.9-3.6,3.8-5.1C30,17.5,28.9,14.2,26.8,13.2z"/>
				</g>
				<g>
					<g>
						<path fill="none" stroke="#000000" stroke-width="6" stroke-linejoin="round" d="M16.4,38c0-2.8,2-7.5,4.3-10.2"/>
						<path fill="none" stroke="#000000" stroke-width="6" stroke-linejoin="round" d="M15.9,38c0,0,0,0-0.1-0.1
							c-0.1-0.1-0.1-0.2-0.2-0.4c-0.1-0.2-0.2-0.4-0.3-0.6c-0.1-0.2-0.1-0.5-0.2-0.9c0-0.3-0.1-0.7,0-1c0-0.3,0.1-0.7,0.2-1
							c0.1-0.4,0.2-0.7,0.4-1c0.2-0.3,0.3-0.7,0.5-1c0.2-0.3,0.4-0.7,0.6-1c0.2-0.3,0.4-0.6,0.6-0.9c0.2-0.3,0.4-0.6,0.7-0.8
							c0.2-0.2,0.5-0.5,0.7-0.7c0.4-0.4,0.9-0.7,1.1-0.8c0.3-0.2,0.5-0.3,0.5-0.3l0.1-0.1c0.2-0.1,0.5,0,0.7,0.2
							c0.1,0.2,0.1,0.4,0,0.5c0,0-0.1,0.1-0.3,0.4c-0.2,0.2-0.5,0.6-0.7,1c-0.1,0.2-0.3,0.5-0.4,0.7c-0.2,0.2-0.3,0.5-0.5,0.8
							c-0.3,0.6-0.6,1.2-0.9,1.8c-0.2,0.3-0.3,0.6-0.4,1c-0.1,0.3-0.3,0.6-0.3,0.9c-0.1,0.3-0.2,0.6-0.3,0.9
							c-0.1,0.3-0.1,0.5-0.2,0.8c0,0.2-0.1,0.5-0.1,0.7c0,0.2,0,0.4-0.1,0.6c0,0.3,0,0.5,0,0.5c0,0.2-0.2,0.4-0.5,0.4
							c-0.1,0-0.2-0.1-0.3-0.2L15.9,38z"/>
					</g>
					<g>
						<path fill="none" stroke="#000000" stroke-width="6" stroke-linejoin="round" d="M22.6,37.7c-2.3-2.5-5.7-8.1-6.2-11.4"/>
						<path fill="none" stroke="#000000" stroke-width="6" stroke-linejoin="round" d="M22.3,38.1c0,0-0.2-0.1-0.6-0.2
							c-0.2-0.1-0.4-0.2-0.6-0.3c-0.2-0.1-0.5-0.3-0.7-0.5c-0.2-0.2-0.5-0.5-0.8-0.8c-0.2-0.3-0.4-0.6-0.7-0.9
							c-0.4-0.7-0.9-1.4-1.2-2.2c-0.7-1.5-1.3-3.2-1.5-4.5c0-0.3-0.1-0.6-0.1-0.9c0-0.3,0-0.5,0-0.7c0-0.4,0-0.6,0-0.6l0,0
							c0-0.3,0.2-0.5,0.5-0.5c0.2,0,0.4,0.2,0.5,0.4c0,0,0,0.2,0.1,0.5c0,0.2,0.1,0.4,0.1,0.6c0,0.2,0.2,0.5,0.3,0.8
							c0.2,0.6,0.5,1.2,0.8,1.9c0.3,0.7,0.7,1.4,1.1,2.1c0.4,0.7,0.8,1.4,1.2,2c0.4,0.6,0.8,1.2,1.2,1.7c0.2,0.2,0.3,0.5,0.5,0.7
							c0.2,0.2,0.3,0.4,0.4,0.5c0.2,0.3,0.4,0.4,0.4,0.4c0.2,0.2,0.1,0.5-0.1,0.6c-0.1,0.1-0.3,0.1-0.4,0.1L22.3,38.1z"/>
					</g>
				</g>
			</g>
			<g>
				<g>
					<g>
						<g>
							<path fill="#4F504F" d="M17.1,21.6c-6.1,2-13.3,6.5-11.9,16.6s12.5,18.3,25.7,19.3c13.3,1,21.7-2.4,25.7-0.9
								c6.3-7.1,2.2-31.3-6.1-37.4C43.2,13.9,22.6,19.8,17.1,21.6z"/>
						</g>
						<path fill="#FFFFFF" d="M12.7,23.5c-1.9,2.9-2.6,5.7-1.6,9.9c1.4,5.4,8.5,10.6,17.9,8.6c9.4-2,18.5-6.2,18.2-15.4
							c-0.1-3.9-0.9-7.3-2.1-9.3c-9.6-1.5-23.3,2.7-28.1,4.3C15.6,22.1,14.1,22.8,12.7,23.5z"/>
						<g opacity="0.5">
							<path fill="#FFFFFF" d="M50.4,19.2c-4.6-3.4-14.8-2.2-22.9-0.4c3,0.2,14-3.2,20.4,2.5c6.1,5.4,9.8,28.9,8.5,35.3
								c0.1,0,0.1,0,0.2,0.1C62.9,49.5,58.7,25.4,50.4,19.2z"/>
						</g>
						<g>
							<path fill="#706D6D" d="M56.6,56.7c1.4-1.6,2.3-4.1,2.7-7c-6.2,1.6-16.4,2.2-29.2,1.3C12.9,49.9,6.8,39.1,5.9,30.7
								c-0.8,2.1-1.2,4.6-0.8,7.5c1.4,10.1,12.5,18.3,25.7,19.3C44.1,58.6,52.6,55.2,56.6,56.7z"/>
						</g>
					</g>
				</g>
				<g>
					<g>
						<path fill="#F26523" d="M26.8,13.2c-1.3,0.2-2.9,7.8-0.5,10.6c2.9-1,3.6-4.7,3.1-6.1C29,16.7,28.9,14.2,26.8,13.2z"/>
					</g>
					<path fill="#F79420" d="M17.4,21.3c0.4,2.1,5.1,3.3,7.5,3c3.8-0.6,1.7-2.3,1-3.9c-0.7-1.5-3.3-8.3-4.6-8.1
						C20.7,12.4,17.1,19.7,17.4,21.3z"/>
					<g>
						<path fill="#FDCA93" d="M18.9,21.4c-1.4-1,1.6-8,2.5-7.6c0.9,0.3,2.8,9.5,1.5,9.2C21.7,22.7,20.4,22.4,18.9,21.4z"/>
					</g>
					<path fill="#F79420" d="M26.8,13.2c0.8,3.3-0.8,7.7-0.5,10.6c2.9-1,3.9-3.6,3.8-5.1C30,17.5,28.9,14.2,26.8,13.2z"/>
				</g>
				<g>
					<g>
						<path fill="#231F20" d="M15.9,38c0,0,0,0-0.1-0.1c-0.1-0.1-0.1-0.2-0.2-0.4c-0.1-0.2-0.2-0.4-0.3-0.6
							c-0.1-0.2-0.1-0.5-0.2-0.9c0-0.3-0.1-0.7,0-1c0-0.3,0.1-0.7,0.2-1c0.1-0.4,0.2-0.7,0.4-1c0.2-0.3,0.3-0.7,0.5-1
							c0.2-0.3,0.4-0.7,0.6-1c0.2-0.3,0.4-0.6,0.6-0.9c0.2-0.3,0.4-0.6,0.7-0.8c0.2-0.2,0.5-0.5,0.7-0.7c0.4-0.4,0.9-0.7,1.1-0.8
							c0.3-0.2,0.5-0.3,0.5-0.3l0.1-0.1c0.2-0.1,0.5,0,0.7,0.2c0.1,0.2,0.1,0.4,0,0.5c0,0-0.1,0.1-0.3,0.4c-0.2,0.2-0.5,0.6-0.7,1
							c-0.1,0.2-0.3,0.5-0.4,0.7c-0.2,0.2-0.3,0.5-0.5,0.8c-0.3,0.6-0.6,1.2-0.9,1.8c-0.2,0.3-0.3,0.6-0.4,1
							c-0.1,0.3-0.3,0.6-0.3,0.9c-0.1,0.3-0.2,0.6-0.3,0.9c-0.1,0.3-0.1,0.5-0.2,0.8c0,0.2-0.1,0.5-0.1,0.7c0,0.2,0,0.4-0.1,0.6
							c0,0.3,0,0.5,0,0.5c0,0.2-0.2,0.4-0.5,0.4c-0.1,0-0.2-0.1-0.3-0.2L15.9,38z"/>
					</g>
					<g>
						<path fill="#231F20" d="M22.3,38.1c0,0-0.2-0.1-0.6-0.2c-0.2-0.1-0.4-0.2-0.6-0.3c-0.2-0.1-0.5-0.3-0.7-0.5
							c-0.2-0.2-0.5-0.5-0.8-0.8c-0.2-0.3-0.4-0.6-0.7-0.9c-0.4-0.7-0.9-1.4-1.2-2.2c-0.7-1.5-1.3-3.2-1.5-4.5
							c0-0.3-0.1-0.6-0.1-0.9c0-0.3,0-0.5,0-0.7c0-0.4,0-0.6,0-0.6l0,0c0-0.3,0.2-0.5,0.5-0.5c0.2,0,0.4,0.2,0.5,0.4
							c0,0,0,0.2,0.1,0.5c0,0.2,0.1,0.4,0.1,0.6c0,0.2,0.2,0.5,0.3,0.8c0.2,0.6,0.5,1.2,0.8,1.9c0.3,0.7,0.7,1.4,1.1,2.1
							c0.4,0.7,0.8,1.4,1.2,2c0.4,0.6,0.8,1.2,1.2,1.7c0.2,0.2,0.3,0.5,0.5,0.7c0.2,0.2,0.3,0.4,0.4,0.5c0.2,0.3,0.4,0.4,0.4,0.4
							c0.2,0.2,0.1,0.5-0.1,0.6c-0.1,0.1-0.3,0.1-0.4,0.1L22.3,38.1z"/>
					</g>
				</g>
			</g>
		</g>
		<g>
			<g>
				<path d="M22.8,40.8c0,0,0.1-0.1,0.2-0.1c0.1,0,0.1-0.1,0.2-0.2c0.1,0,0.1-0.1,0.2-0.1c0.1-0.1,0.3-0.1,0.4-0.1
					c0.6-0.2,1.2-0.2,2-0.1c0.8,0.1,1.7,0.3,2.7,0.6c1,0.3,2.2,0.7,3.3,1.5c1.1,0.7,2.2,1.7,3.2,2.9c0.5,0.6,1,1.2,1.4,2
					c0.2,0.4,0.4,0.8,0.6,1.2c0.2,0.5,0.3,0.9,0.3,1.7c0,0.4-0.1,0.9-0.6,1.5L36.2,52c-0.3,0.3-0.6,0.6-0.8,0.9
					c-0.6,0.6-1.2,1.2-1.8,1.7c-1.2,1.2-2.5,2.3-3.9,3.3c-1.4,1-2.9,2-4.8,2.7c-0.9,0.3-2,0.7-3.5,0.6c-0.7,0-1.6-0.2-2.5-0.7
					c-0.1-0.1-0.2-0.1-0.3-0.2l-0.2-0.1l-0.1-0.1L18.4,60l-0.1-0.1L18,59.6c-0.4-0.4-0.6-0.7-0.8-1.1c-0.8-1.4-0.8-2.6-0.8-3.6
					c0-1,0.2-1.8,0.4-2.6c0.4-1.6,0.9-2.9,1.5-4.1c1.1-2.4,2.2-4.2,3-5.4c0.4-0.6,0.8-1.1,1-1.5C22.6,41.1,22.8,40.8,22.8,40.8
					L22.8,40.8z M24.7,42.5c0,0-0.1,0.1-0.2,0.4c-0.1,0.3-0.4,0.8-0.6,1.4c-0.5,1.3-1.1,3.2-1.4,5.4c-0.2,1.1-0.3,2.4-0.4,3.5
					c0,0.6,0,1.2,0.1,1.6c0.1,0.5,0.2,0.8,0.2,0.8c0,0,0,0-0.1-0.1l-0.1,0l0,0l0,0l0.1,0.1c0,0,0.1,0.1-0.1-0.1l0,0l0,0l0,0l-0.1,0
					c-0.2-0.1-0.3-0.1-0.2-0.1c0.1,0,0.6,0,1.2-0.2c1.1-0.3,2.5-1,3.9-1.7c1.4-0.7,2.7-1.5,4-2.2c0.7-0.4,1.3-0.8,2-1.2
					c0.3-0.2,0.6-0.4,0.9-0.6c0.1-0.1,0.3-0.2,0.3-0.2C34,49.3,34,49.5,34,49.5c0,0,0.1-0.2,0-0.5c0-0.3-0.1-0.6-0.2-0.9
					c-0.2-0.6-0.5-1.2-0.8-1.7c-0.6-1.1-1.4-2.1-2.2-2.8c-0.8-0.7-1.8-1.1-2.7-1.3c-0.9-0.2-1.7-0.2-2.3-0.1
					C25.2,42.2,24.8,42.4,24.7,42.5c-0.1,0.1-0.1,0.1-0.1,0.1c0,0,0,0,0,0C24.6,42.5,24.6,42.5,24.7,42.5
					C24.7,42.4,24.7,42.5,24.7,42.5C24.6,42.5,24.6,42.5,24.7,42.5L24.7,42.5z"/>
				<path fill="#4F504F" d="M23.7,41.6c0.7-0.9,5.2-0.8,8,1.5s4.6,6.2,3.7,7.1s-11.8,10.1-15.1,7.5S22.1,43.6,23.7,41.6z"/>
			</g>
			<g>
				<path fill="#797575" d="M27.3,43.3c2.5-0.5,8,4.5,6.8,6.3s-7.9,6.8-10.3,5.4S23.7,44,27.3,43.3z"/>
			</g>
		</g>
		<g>
			<g>
				<path fill="none" stroke="#010101" stroke-width="6" stroke-miterlimit="10" d="M53.8,43c-1.3-3.5-0.9-8.6,1.5-12
					c2.6-3.7,5.9-6,7.9-5c2,1-1.8,18.7-4.2,19.3C57.2,45.7,54.6,45.4,53.8,43z"/>
				<path fill="#F79420" d="M53.8,43c-1.3-3.5-0.9-8.6,1.5-12c2.6-3.7,5.9-6,7.9-5c2,1-1.8,18.7-4.2,19.3
					C57.2,45.7,54.6,45.4,53.8,43z"/>
			</g>
			<g>
				<path fill="#FDCA93" d="M61.3,25.9c-1.9,0.5-4.1,2.4-6,5.1c-1.9,2.6-2.5,6.4-2,9.6C57.5,37.5,60.4,31,61.3,25.9z"/>
			</g>
			<g>
				<path fill="#F26523" d="M63.2,26c-0.3-0.2-0.7-0.2-1.1-0.2c-0.1,3.1-0.9,7.6-1.7,10.5c-1,3.6-2.6,7.4-5.1,8.5
					c1.1,0.7,2.6,0.7,3.7,0.5C61.3,44.7,65.2,27,63.2,26z"/>
			</g>
		</g>
	</g>
</g>
</svg>
