<?xml version="1.0" encoding="utf-8"?>
<!-- SPDX-License-Identifier: CC-BY-2.0 -->
<!-- Copyright 2015 Game Art Guppy LLC -->
<!-- Generator: Adobe Illustrator 17.1.0, SVG Export Plug-In . SVG Version: 6.00 Build 0)  -->
<!DOCTYPE svg PUBLIC "-//W3C//DTD SVG 1.1//EN" "http://www.w3.org/Graphics/SVG/1.1/DTD/svg11.dtd">
<svg version="1.1" xmlns="http://www.w3.org/2000/svg" xmlns:xlink="http://www.w3.org/1999/xlink" x="0px" y="0px"
	 viewBox="0 0 72 64" enable-background="new 0 0 72 64" xml:space="preserve">
<g id="penguin_x5F_die03">
	<g id="dead_4_">
		<g>
			<g>
				<path fill="none" stroke="#010101" stroke-width="6" stroke-miterlimit="10" d="M51.9,34.8c-1.9-3.1-2.6-8.3-0.9-12
					c1.9-4.1,4.6-7,6.8-6.5C60,16.9,59.7,35,57.5,36C55.9,36.8,53.2,37,51.9,34.8z"/>
				<path fill="#F79420" d="M51.9,34.8c-1.9-3.1-2.6-8.3-0.9-12c1.9-4.1,4.6-7,6.8-6.5C60,16.9,59.7,35,57.5,36
					C55.9,36.8,53.2,37,51.9,34.8z"/>
			</g>
			<g>
				<path fill="#FDCA93" d="M55.9,16.6c-1.7,0.8-3.6,3.2-4.9,6.2c-1.3,3-1.2,6.8-0.1,9.8C54.5,28.6,56.1,21.7,55.9,16.6z"/>
			</g>
			<g>
				<path fill="#F26523" d="M57.8,16.3c-0.4-0.1-0.7-0.1-1.1,0c0.5,3,0.6,7.6,0.4,10.7c-0.3,3.7-1.1,7.7-3.3,9.3
					c1.3,0.4,2.7,0.2,3.8-0.3C59.7,35,60,16.9,57.8,16.3z"/>
			</g>
		</g>
		<g>
			<g>
				<g>
					<g>
						<g>
							<path fill="none" stroke="#000000" stroke-width="6" stroke-linejoin="round" d="M25,10.7c-6.3-0.9-14.8-0.2-18.2,9.5
								S9.7,42.1,21.1,49s20.5,7.7,23.3,10.8c8.9-3.5,16-26.9,11.4-36.2C51.8,15.6,30.8,11.5,25,10.7z"/>
							<path fill="none" stroke="#000000" stroke-width="6" stroke-linejoin="round" d="M25,10.7c-6.3-0.9-14.8-0.2-18.2,9.5
								S9.7,42.1,21.1,49s20.5,7.7,23.3,10.8c8.9-3.5,16-26.9,11.4-36.2C51.8,15.6,30.8,11.5,25,10.7z"/>
						</g>
						<g>
							<path fill="none" stroke="#000000" stroke-width="6" stroke-linejoin="round" d="M23.7,47.1c-16.5-10-17.2-27.9-9.6-33.4
								c-9.8,4.5-8.9,24.4,7.7,34.5c11.4,6.9,19,7.2,21.8,10.3C42.2,53.9,37.6,55.4,23.7,47.1z"/>
							<path fill="none" stroke="#000000" stroke-width="6" stroke-linejoin="round" d="M23.7,47.1c-16.5-10-17.2-27.9-9.6-33.4
								c-9.8,4.5-8.9,24.4,7.7,34.5c11.4,6.9,19,7.2,21.8,10.3C42.2,53.9,37.6,55.4,23.7,47.1z"/>
						</g>
						<path fill="none" stroke="#000000" stroke-width="6" stroke-linejoin="round" d="M20.2,10.4c-3,1.8-4.9,3.9-5.9,8.2
							c-1.2,5.4,2.8,13.3,12.1,15.8c9.3,2.5,19.3,2.8,23.2-5.6c1.7-3.5,2.4-6.9,2.3-9.3c-7.9-5.7-22-8.1-27-8.8
							C23.5,10.5,21.8,10.4,20.2,10.4z"/>
						<g>
							<path fill="none" stroke="#000000" stroke-width="6" stroke-linejoin="round" d="M55.8,23.6c-0.9,9.6-7.5,30.9-11.5,36
								c0,0,0.1,0.1,0.1,0.1C53.3,56.3,60.5,32.9,55.8,23.6z"/>
							<path fill="none" stroke="#000000" stroke-width="6" stroke-linejoin="round" d="M55.8,23.6c-0.9,9.6-7.5,30.9-11.5,36
								c0,0,0.1,0.1,0.1,0.1C53.3,56.3,60.5,32.9,55.8,23.6z"/>
						</g>
					</g>
					<g>
						<g>
							<path fill="none" stroke="#000000" stroke-width="6" stroke-linejoin="round" d="M25,10.7c-6.3-0.9-14.8-0.2-18.2,9.5
								S9.7,42.1,21.1,49s20.5,7.7,23.3,10.8c8.9-3.5,16-26.9,11.4-36.2C51.8,15.6,30.8,11.5,25,10.7z"/>
							<path fill="none" stroke="#000000" stroke-width="6" stroke-linejoin="round" d="M25,10.7c-6.3-0.9-14.8-0.2-18.2,9.5
								S9.7,42.1,21.1,49s20.5,7.7,23.3,10.8c8.9-3.5,16-26.9,11.4-36.2C51.8,15.6,30.8,11.5,25,10.7z"/>
						</g>
						<g>
							<path fill="none" stroke="#000000" stroke-width="6" stroke-linejoin="round" d="M23.7,47.1c-16.5-10-17.2-27.9-9.6-33.4
								c-9.8,4.5-8.9,24.4,7.7,34.5c11.4,6.9,19,7.2,21.8,10.3C42.2,53.9,37.6,55.4,23.7,47.1z"/>
							<path fill="none" stroke="#000000" stroke-width="6" stroke-linejoin="round" d="M23.7,47.1c-16.5-10-17.2-27.9-9.6-33.4
								c-9.8,4.5-8.9,24.4,7.7,34.5c11.4,6.9,19,7.2,21.8,10.3C42.2,53.9,37.6,55.4,23.7,47.1z"/>
						</g>
						<path fill="none" stroke="#000000" stroke-width="6" stroke-linejoin="round" d="M20.2,10.4c-3,1.8-4.9,3.9-5.9,8.2
							c-1.2,5.4,2.8,13.3,12.1,15.8c9.3,2.5,19.3,2.8,23.2-5.6c1.7-3.5,2.4-6.9,2.3-9.3c-7.9-5.7-22-8.1-27-8.8
							C23.5,10.5,21.8,10.4,20.2,10.4z"/>
						<g>
							<path fill="none" stroke="#000000" stroke-width="6" stroke-linejoin="round" d="M55.8,23.6c-0.9,9.6-7.5,30.9-11.5,36
								c0,0,0.1,0.1,0.1,0.1C53.3,56.3,60.5,32.9,55.8,23.6z"/>
							<path fill="none" stroke="#000000" stroke-width="6" stroke-linejoin="round" d="M55.8,23.6c-0.9,9.6-7.5,30.9-11.5,36
								c0,0,0.1,0.1,0.1,0.1C53.3,56.3,60.5,32.9,55.8,23.6z"/>
						</g>
					</g>
					<g>
						<g>
							<path fill="none" stroke="#000000" stroke-width="6" stroke-linejoin="round" d="M25,10.7c-6.3-0.9-14.8-0.2-18.2,9.5
								S9.7,42.1,21.1,49s20.5,7.7,23.3,10.8c8.9-3.5,16-26.9,11.4-36.2C51.8,15.6,30.8,11.5,25,10.7z"/>
							<path fill="none" stroke="#000000" stroke-width="6" stroke-linejoin="round" d="M25,10.7c-6.3-0.9-14.8-0.2-18.2,9.5
								S9.7,42.1,21.1,49s20.5,7.7,23.3,10.8c8.9-3.5,16-26.9,11.4-36.2C51.8,15.6,30.8,11.5,25,10.7z"/>
						</g>
						<g>
							<path fill="none" stroke="#000000" stroke-width="6" stroke-linejoin="round" d="M23.7,47.1c-16.5-10-17.2-27.9-9.6-33.4
								c-9.8,4.5-8.9,24.4,7.7,34.5c11.4,6.9,19,7.2,21.8,10.3C42.2,53.9,37.6,55.4,23.7,47.1z"/>
							<path fill="none" stroke="#000000" stroke-width="6" stroke-linejoin="round" d="M23.7,47.1c-16.5-10-17.2-27.9-9.6-33.4
								c-9.8,4.5-8.9,24.4,7.7,34.5c11.4,6.9,19,7.2,21.8,10.3C42.2,53.9,37.6,55.4,23.7,47.1z"/>
						</g>
						<path fill="none" stroke="#000000" stroke-width="6" stroke-linejoin="round" d="M20.2,10.4c-3,1.8-4.9,3.9-5.9,8.2
							c-1.2,5.4,2.8,13.3,12.1,15.8c9.3,2.5,19.3,2.8,23.2-5.6c1.7-3.5,2.4-6.9,2.3-9.3c-7.9-5.7-22-8.1-27-8.8
							C23.5,10.5,21.8,10.4,20.2,10.4z"/>
						<g>
							<path fill="none" stroke="#000000" stroke-width="6" stroke-linejoin="round" d="M55.8,23.6c-0.9,9.6-7.5,30.9-11.5,36
								c0,0,0.1,0.1,0.1,0.1C53.3,56.3,60.5,32.9,55.8,23.6z"/>
							<path fill="none" stroke="#000000" stroke-width="6" stroke-linejoin="round" d="M55.8,23.6c-0.9,9.6-7.5,30.9-11.5,36
								c0,0,0.1,0.1,0.1,0.1C53.3,56.3,60.5,32.9,55.8,23.6z"/>
						</g>
					</g>
				</g>
				<g>
					<g>
						<path fill="none" stroke="#000000" stroke-width="6" stroke-linejoin="round" d="M35.8,6.7c-1.2-0.4-3.6,7.6-3.6,10.1
							c3.1,0.4,5.7-1.4,5.7-2.8C37.9,12.5,37.3,8.5,35.8,6.7z"/>
						<path fill="none" stroke="#000000" stroke-width="6" stroke-linejoin="round" d="M35.8,6.7c-1.2-0.4-3.6,7.6-3.6,10.1
							c3.1,0.4,5.7-1.4,5.7-2.8C37.9,12.5,37.3,8.5,35.8,6.7z"/>
					</g>
					<path fill="none" stroke="#000000" stroke-width="6" stroke-linejoin="round" d="M25.5,10.5c-0.6,2.1,3.1,5.3,5.4,6
						c3.6,1.2,2.6-1.3,2.6-3s0.8-8.9-0.5-9.3C32.4,4.1,25.9,9,25.5,10.5z"/>
					<g>
						<path fill="none" stroke="#000000" stroke-width="6" stroke-linejoin="round" d="M26.8,11.3c-0.9-1.5,5.1-6.4,5.7-5.7
							c0.6,0.7-1.8,9.7-2.8,8.9C28.6,13.7,27.6,12.9,26.8,11.3z"/>
						<path fill="none" stroke="#000000" stroke-width="6" stroke-linejoin="round" d="M26.8,11.3c-0.9-1.5,5.1-6.4,5.7-5.7
							c0.6,0.7-1.8,9.7-2.8,8.9C28.6,13.7,27.6,12.9,26.8,11.3z"/>
					</g>
					<path fill="none" stroke="#000000" stroke-width="6" stroke-linejoin="round" d="M35.8,6.7c-0.8,3.3-2.6,7.4-3.6,10.1
						c3.1,0.4,5.7-1.4,5.7-2.8C37.9,12.5,37.3,8.5,35.8,6.7z"/>
				</g>
				<g>
					<g>
						<path fill="none" stroke="#000000" stroke-width="6" stroke-linejoin="round" d="M17,25c1.3-2.5,5-6.5,7.6-8.3"/>
						<path fill="none" stroke="#000000" stroke-width="6" stroke-linejoin="round" d="M16.6,24.7c0,0,0-0.1,0-0.2
							c0-0.1,0-0.3,0-0.4c0-0.2,0-0.4,0-0.7c0-0.2,0.1-0.5,0.2-0.8c0.1-0.3,0.2-0.6,0.4-0.9c0.2-0.3,0.3-0.6,0.5-0.9
							c0.2-0.3,0.5-0.6,0.7-0.8c0.3-0.3,0.5-0.5,0.8-0.8c0.3-0.2,0.6-0.5,0.9-0.7c0.3-0.2,0.6-0.4,0.9-0.6c0.3-0.2,0.6-0.4,0.9-0.5
							c0.3-0.2,0.6-0.3,0.8-0.4c0.5-0.3,1-0.4,1.3-0.5c0.3-0.1,0.5-0.1,0.5-0.1l0.2,0c0.3-0.1,0.5,0.1,0.6,0.4c0,0.2,0,0.4-0.2,0.5
							c0,0-0.1,0.1-0.4,0.3c-0.2,0.2-0.6,0.4-1,0.8c-0.4,0.3-0.9,0.7-1.3,1.2c-0.5,0.4-1,1-1.4,1.5c-0.5,0.5-0.9,1-1.4,1.5
							c-0.4,0.5-0.8,1-1.1,1.4c-0.3,0.4-0.5,0.8-0.7,1.1c-0.2,0.3-0.3,0.4-0.3,0.4c-0.1,0.2-0.4,0.3-0.6,0.1
							c-0.1-0.1-0.2-0.2-0.2-0.3L16.6,24.7z"/>
					</g>
					<g>
						<path fill="none" stroke="#000000" stroke-width="6" stroke-linejoin="round" d="M22.7,27.6c-0.9-3.3-0.5-6.7,0.5-9.8"/>
						<path fill="none" stroke="#000000" stroke-width="6" stroke-linejoin="round" d="M22.2,27.7c0,0-0.2-0.1-0.4-0.3
							c-0.2-0.2-0.5-0.5-0.7-1c-0.1-0.3-0.2-0.5-0.3-0.8c-0.1-0.3-0.1-0.6-0.1-0.9c0-0.6,0-1.3,0.1-2c0.1-0.3,0.1-0.7,0.2-1
							c0.1-0.3,0.2-0.6,0.3-0.9c0.2-0.6,0.4-1.1,0.6-1.6c0.2-0.4,0.5-0.8,0.6-1c0.2-0.2,0.3-0.4,0.3-0.4l0.1-0.1
							c0.2-0.2,0.5-0.3,0.7-0.1c0.2,0.1,0.2,0.3,0.2,0.5c0,0-0.2,0.6-0.4,1.5c-0.1,0.4-0.2,1-0.3,1.5c-0.1,0.6-0.2,1.2-0.2,1.8
							c0,0.6-0.1,1.2,0,1.8c0,0.3,0,0.6,0.1,0.8c0,0.3,0.1,0.5,0.1,0.7c0,0.4,0.2,0.8,0.2,1.1c0.1,0.3,0.1,0.4,0.1,0.4
							c0.1,0.2-0.1,0.4-0.3,0.5c-0.1,0-0.2,0-0.3-0.1L22.2,27.7z"/>
					</g>
				</g>
			</g>
			<g>
				<g>
					<g>
						<g>
							<path fill="#4F504F" d="M25,10.7c-6.3-0.9-14.8-0.2-18.2,9.5S9.7,42.1,21.1,49s20.5,7.7,23.3,10.8c8.9-3.5,16-26.9,11.4-36.2
								C51.8,15.6,30.8,11.5,25,10.7z"/>
						</g>
						<g>
							<path fill="#706D6D" d="M23.7,47.1c-16.5-10-17.2-27.9-9.6-33.4c-9.8,4.5-8.9,24.4,7.7,34.5c11.4,6.9,19,7.2,21.8,10.3
								C42.2,53.9,37.6,55.4,23.7,47.1z"/>
						</g>
						<path fill="#FFFFFF" d="M20.2,10.4c-3,1.8-4.9,3.9-5.9,8.2c-1.2,5.4,2.8,13.3,12.1,15.8c9.3,2.5,19.3,2.8,23.2-5.6
							c1.7-3.5,2.4-6.9,2.3-9.3c-7.9-5.7-22-8.1-27-8.8C23.5,10.5,21.8,10.4,20.2,10.4z"/>
						<g opacity="0.5">
							<path fill="#4F504F" d="M55.8,23.6c-0.9,9.6-7.5,30.9-11.5,36c0,0,0.1,0.1,0.1,0.1C53.3,56.3,60.5,32.9,55.8,23.6z"/>
						</g>
					</g>
				</g>
				<g>
					<g>
						<path fill="#F26523" d="M35.8,6.7c-1.2-0.4-3.6,7.6-3.6,10.1c3.1,0.4,5.7-1.4,5.7-2.8C37.9,12.5,37.3,8.5,35.8,6.7z"/>
					</g>
					<path fill="#F79420" d="M25.5,10.5c-0.6,2.1,3.1,5.3,5.4,6c3.6,1.2,2.6-1.3,2.6-3s0.8-8.9-0.5-9.3C32.4,4.1,25.9,9,25.5,10.5z"
						/>
					<g>
						<path fill="#FDCA93" d="M26.8,11.3c-0.9-1.5,5.1-6.4,5.7-5.7c0.6,0.7-1.8,9.7-2.8,8.9C28.6,13.7,27.6,12.9,26.8,11.3z"/>
					</g>
					<path fill="#F79420" d="M35.8,6.7c-0.8,3.3-2.6,7.4-3.6,10.1c3.1,0.4,5.7-1.4,5.7-2.8C37.9,12.5,37.3,8.5,35.8,6.7z"/>
				</g>
				<g>
					<g>
						<path fill="#231F20" d="M16.6,24.7c0,0,0-0.1,0-0.2c0-0.1,0-0.3,0-0.4c0-0.2,0-0.4,0-0.7c0-0.2,0.1-0.5,0.2-0.8
							c0.1-0.3,0.2-0.6,0.4-0.9c0.2-0.3,0.3-0.6,0.5-0.9c0.2-0.3,0.5-0.6,0.7-0.8c0.3-0.3,0.5-0.5,0.8-0.8c0.3-0.2,0.6-0.5,0.9-0.7
							c0.3-0.2,0.6-0.4,0.9-0.6c0.3-0.2,0.6-0.4,0.9-0.5c0.3-0.2,0.6-0.3,0.8-0.4c0.5-0.3,1-0.4,1.3-0.5c0.3-0.1,0.5-0.1,0.5-0.1
							l0.2,0c0.3-0.1,0.5,0.1,0.6,0.4c0,0.2,0,0.4-0.2,0.5c0,0-0.1,0.1-0.4,0.3c-0.2,0.2-0.6,0.4-1,0.8c-0.4,0.3-0.9,0.7-1.3,1.2
							c-0.5,0.4-1,1-1.4,1.5c-0.5,0.5-0.9,1-1.4,1.5c-0.4,0.5-0.8,1-1.1,1.4c-0.3,0.4-0.5,0.8-0.7,1.1c-0.2,0.3-0.3,0.4-0.3,0.4
							c-0.1,0.2-0.4,0.3-0.6,0.1c-0.1-0.1-0.2-0.2-0.2-0.3L16.6,24.7z"/>
					</g>
					<g>
						<path fill="#231F20" d="M22.2,27.7c0,0-0.2-0.1-0.4-0.3c-0.2-0.2-0.5-0.5-0.7-1c-0.1-0.3-0.2-0.5-0.3-0.8
							c-0.1-0.3-0.1-0.6-0.1-0.9c0-0.6,0-1.3,0.1-2c0.1-0.3,0.1-0.7,0.2-1c0.1-0.3,0.2-0.6,0.3-0.9c0.2-0.6,0.4-1.1,0.6-1.6
							c0.2-0.4,0.5-0.8,0.6-1c0.2-0.2,0.3-0.4,0.3-0.4l0.1-0.1c0.2-0.2,0.5-0.3,0.7-0.1c0.2,0.1,0.2,0.3,0.2,0.5
							c0,0-0.2,0.6-0.4,1.5c-0.1,0.4-0.2,1-0.3,1.5c-0.1,0.6-0.2,1.2-0.2,1.8c0,0.6-0.1,1.2,0,1.8c0,0.3,0,0.6,0.1,0.8
							c0,0.3,0.1,0.5,0.1,0.7c0,0.4,0.2,0.8,0.2,1.1c0.1,0.3,0.1,0.4,0.1,0.4c0.1,0.2-0.1,0.4-0.3,0.5c-0.1,0-0.2,0-0.3-0.1
							L22.2,27.7z"/>
					</g>
				</g>
			</g>
		</g>
		<g>
			<g>
				<path d="M23.4,34.7c0,0,0.1,0,0.2-0.1c0.1,0,0.2,0,0.3,0c0.1,0,0.1,0,0.2,0c0.1,0,0.3,0,0.4,0c0.6,0.1,1.2,0.4,1.9,0.8
					c0.7,0.4,1.4,1,2.2,1.8c0.8,0.7,1.6,1.6,2.3,2.8c0.7,1.2,1.2,2.5,1.5,4c0.2,0.7,0.3,1.5,0.3,2.4c0,0.4,0,0.9,0,1.3
					c-0.1,0.5-0.1,1-0.5,1.7c-0.2,0.3-0.5,0.8-1.2,1.1l-0.7,0.3c-0.4,0.1-0.8,0.3-1.2,0.4c-0.8,0.3-1.6,0.5-2.4,0.8
					c-1.6,0.5-3.2,0.9-5,1.2c-1.7,0.3-3.5,0.5-5.5,0.2c-1-0.1-2.1-0.3-3.4-1c-0.6-0.4-1.3-0.9-1.9-1.8c-0.1-0.1-0.1-0.2-0.2-0.3
					l-0.1-0.2l0-0.1l-0.1-0.2l-0.1-0.1l-0.1-0.3c-0.2-0.5-0.2-0.9-0.2-1.3c-0.1-1.6,0.4-2.7,0.9-3.6c0.5-0.9,1-1.6,1.5-2.2
					c1.1-1.2,2.1-2.2,3.2-3c2.1-1.6,3.9-2.7,5.2-3.5c0.6-0.4,1.2-0.7,1.6-0.9c0.4-0.2,0.7-0.3,0.7-0.3L23.4,34.7z M24.3,37
					c0,0-0.1,0.1-0.4,0.3c-0.3,0.2-0.7,0.5-1.2,1c-1,0.9-2.4,2.3-3.7,4.2c-0.7,0.9-1.4,1.9-1.9,3c-0.3,0.5-0.5,1-0.7,1.5
					c-0.2,0.4-0.2,0.8-0.1,0.8c0,0,0,0,0-0.2l0-0.1l0,0l0,0l0.1,0.1c0-0.1,0.1,0.1,0-0.1l0,0l0,0l0,0l0-0.1C16,47.1,16,47.1,16,47.1
					c0.1,0.1,0.6,0.3,1.2,0.4c1.2,0.2,2.7,0.3,4.2,0.2c1.5,0,3.1-0.1,4.6-0.2c0.8-0.1,1.5-0.1,2.3-0.2c0.4,0,0.7-0.1,1.1-0.1
					c0.2,0,0.4-0.1,0.4,0c-0.3,0.1-0.4,0.3-0.4,0.3c0,0.1,0.2-0.2,0.3-0.4c0.1-0.3,0.2-0.5,0.2-0.9C30,45.6,30,45,30,44.3
					c0-1.3-0.3-2.5-0.8-3.5c-0.4-1-1.1-1.8-1.8-2.4c-0.7-0.6-1.4-0.9-2-1.2C24.9,37.1,24.4,37,24.3,37c-0.1,0-0.1,0-0.1,0
					c0,0,0,0,0,0C24.2,37,24.2,37,24.3,37C24.3,37,24.2,37,24.3,37c-0.1,0-0.1,0-0.1,0L24.3,37z"/>
				<path fill="#4F504F" d="M23.8,35.9c1-0.4,5,1.6,6.5,5s1.3,7.6,0.1,8s-15.1,3.7-16.9-0.1S21.4,36.9,23.8,35.9z"/>
			</g>
			<g>
				<path fill="#797575" d="M26.3,39c2.5,0.7,5.1,7.6,3.2,8.6s-10.2,2.5-11.6,0.2C16.4,45.4,22.7,38,26.3,39z"/>
			</g>
		</g>
		<g>
			<g>
				<path fill="none" stroke="#010101" stroke-width="6" stroke-miterlimit="10" d="M48.1,46.3c0.4-3.7,3.1-8.1,6.7-10
					c4-2.1,8-2.7,9.3-0.9c1.4,1.8-10.1,15.9-12.4,15.3C50,50.3,47.8,48.8,48.1,46.3z"/>
				<path fill="#F79420" d="M48.1,46.3c0.4-3.7,3.1-8.1,6.7-10c4-2.1,8-2.7,9.3-0.9c1.4,1.8-10.1,15.9-12.4,15.3
					C50,50.3,47.8,48.8,48.1,46.3z"/>
			</g>
			<g>
				<path fill="#FDCA93" d="M62.5,34.5c-1.9-0.4-4.8,0.3-7.7,1.8c-2.9,1.5-5.1,4.6-6.1,7.6C53.9,43.1,59.5,38.6,62.5,34.5z"/>
			</g>
			<g>
				<path fill="#F26523" d="M64.1,35.4c-0.2-0.3-0.5-0.5-0.9-0.7c-1.5,2.7-4.2,6.4-6.3,8.6c-2.5,2.7-5.6,5.4-8.4,5.3
					c0.7,1.1,2,1.8,3.1,2.1C54.1,51.3,65.5,37.2,64.1,35.4z"/>
			</g>
		</g>
	</g>
</g>
</svg>
