<?xml version="1.0" encoding="utf-8"?>
<!-- SPDX-License-Identifier: CC-BY-2.0 -->
<!-- Copyright 2015 Game Art Guppy LLC -->
<!-- Generator: Adobe Illustrator 17.1.0, SVG Export Plug-In . SVG Version: 6.00 Build 0)  -->
<!DOCTYPE svg PUBLIC "-//W3C//DTD SVG 1.1//EN" "http://www.w3.org/Graphics/SVG/1.1/DTD/svg11.dtd">
<svg version="1.1" xmlns="http://www.w3.org/2000/svg" xmlns:xlink="http://www.w3.org/1999/xlink" x="0px" y="0px"
	 viewBox="0 0 72 64" enable-background="new 0 0 72 64" xml:space="preserve">
<g id="penguin_x5F_slide01">
	<g id="walk_1_2_">
		<g>
			<g>
				<g>
					<g>
						<g>
							<path fill="none" stroke="#000000" stroke-width="6" stroke-linejoin="round" d="M56.8,28.1c2.3-6,5-13.6-3.6-18.9
								s-23.6-2.9-32.8,6.7S8.3,34.1,4.6,36.2c1.5,9.4,20.7,18.5,31,17.5C47.3,52.5,54.7,33.6,56.8,28.1z"/>
							<path fill="none" stroke="#000000" stroke-width="6" stroke-linejoin="round" d="M56.8,28.1c2.3-6,5-13.6-3.6-18.9
								s-23.6-2.9-32.8,6.7S8.3,34.1,4.6,36.2c1.5,9.4,20.7,18.5,31,17.5C47.3,52.5,54.7,33.6,56.8,28.1z"/>
						</g>
						<g>
							<path fill="none" stroke="#000000" stroke-width="6" stroke-linejoin="round" d="M21.6,18.9C35,5,54.8,7.9,58.5,16.5
								C56.3,6,34.4,2.8,21,16.7c-9.2,9.6-11.2,16.9-14.9,19C10.8,35.4,10.4,30.5,21.6,18.9z"/>
							<path fill="none" stroke="#000000" stroke-width="6" stroke-linejoin="round" d="M21.6,18.9C35,5,54.8,7.9,58.5,16.5
								C56.3,6,34.4,2.8,21,16.7c-9.2,9.6-11.2,16.9-14.9,19C10.8,35.4,10.4,30.5,21.6,18.9z"/>
						</g>
						<path fill="none" stroke="#000000" stroke-width="6" stroke-linejoin="round" d="M58.4,23.6c-1-3.4-2.9-5.7-6.9-7.6
							c-5-2.4-13.6-0.2-18.1,8.3c-4.5,8.5-7,18.2,0.3,23.9c3.1,2.4,6.6,2.2,8.9,2.6c7.9-6.6,12.4-18,14.2-22.7
							C57.4,26.7,57.9,25.1,58.4,23.6z"/>
						<g>
							<path fill="none" stroke="#000000" stroke-width="6" stroke-linejoin="round" d="M36.4,53.6c6.9-1.1,12.1-8.2,16-15.7
								c-2.1,2.2-7,10.8-15.5,12.1c-8.1,1.3-28-8.8-32.1-13.9c-0.1,0-0.1,0.1-0.2,0.1C6.1,45.7,26.2,55.3,36.4,53.6z"/>
							<path fill="none" stroke="#000000" stroke-width="6" stroke-linejoin="round" d="M36.4,53.6c6.9-1.1,12.1-8.2,16-15.7
								c-2.1,2.2-7,10.8-15.5,12.1c-8.1,1.3-28-8.8-32.1-13.9c-0.1,0-0.1,0.1-0.2,0.1C6.1,45.7,26.2,55.3,36.4,53.6z"/>
						</g>
					</g>
					<g>
						<g>
							<path fill="none" stroke="#000000" stroke-width="6" stroke-linejoin="round" d="M56.8,28.1c2.3-6,5-13.6-3.6-18.9
								s-23.6-2.9-32.8,6.7S8.3,34.1,4.6,36.2c1.5,9.4,20.7,18.5,31,17.5C47.3,52.5,54.7,33.6,56.8,28.1z"/>
							<path fill="none" stroke="#000000" stroke-width="6" stroke-linejoin="round" d="M56.8,28.1c2.3-6,5-13.6-3.6-18.9
								s-23.6-2.9-32.8,6.7S8.3,34.1,4.6,36.2c1.5,9.4,20.7,18.5,31,17.5C47.3,52.5,54.7,33.6,56.8,28.1z"/>
						</g>
						<g>
							<path fill="none" stroke="#000000" stroke-width="6" stroke-linejoin="round" d="M21.6,18.9C35,5,54.8,7.9,58.5,16.5
								C56.3,6,34.4,2.8,21,16.7c-9.2,9.6-11.2,16.9-14.9,19C10.8,35.4,10.4,30.5,21.6,18.9z"/>
							<path fill="none" stroke="#000000" stroke-width="6" stroke-linejoin="round" d="M21.6,18.9C35,5,54.8,7.9,58.5,16.5
								C56.3,6,34.4,2.8,21,16.7c-9.2,9.6-11.2,16.9-14.9,19C10.8,35.4,10.4,30.5,21.6,18.9z"/>
						</g>
						<path fill="none" stroke="#000000" stroke-width="6" stroke-linejoin="round" d="M58.4,23.6c-1-3.4-2.9-5.7-6.9-7.6
							c-5-2.4-13.6-0.2-18.1,8.3c-4.5,8.5-7,18.2,0.3,23.9c3.1,2.4,6.6,2.2,8.9,2.6c7.9-6.6,12.4-18,14.2-22.7
							C57.4,26.7,57.9,25.1,58.4,23.6z"/>
						<g>
							<path fill="none" stroke="#000000" stroke-width="6" stroke-linejoin="round" d="M36.4,53.6c6.9-1.1,12.1-8.2,16-15.7
								c-2.1,2.2-7,10.8-15.5,12.1c-8.1,1.3-28-8.8-32.1-13.9c-0.1,0-0.1,0.1-0.2,0.1C6.1,45.7,26.2,55.3,36.4,53.6z"/>
							<path fill="none" stroke="#000000" stroke-width="6" stroke-linejoin="round" d="M36.4,53.6c6.9-1.1,12.1-8.2,16-15.7
								c-2.1,2.2-7,10.8-15.5,12.1c-8.1,1.3-28-8.8-32.1-13.9c-0.1,0-0.1,0.1-0.2,0.1C6.1,45.7,26.2,55.3,36.4,53.6z"/>
						</g>
					</g>
					<g>
						<g>
							<path fill="none" stroke="#000000" stroke-width="6" stroke-linejoin="round" d="M56.8,28.1c2.3-6,5-13.6-3.6-18.9
								s-23.6-2.9-32.8,6.7S8.3,34.1,4.6,36.2c1.5,9.4,20.7,18.5,31,17.5C47.3,52.5,54.7,33.6,56.8,28.1z"/>
							<path fill="none" stroke="#000000" stroke-width="6" stroke-linejoin="round" d="M56.8,28.1c2.3-6,5-13.6-3.6-18.9
								s-23.6-2.9-32.8,6.7S8.3,34.1,4.6,36.2c1.5,9.4,20.7,18.5,31,17.5C47.3,52.5,54.7,33.6,56.8,28.1z"/>
						</g>
						<g>
							<path fill="none" stroke="#000000" stroke-width="6" stroke-linejoin="round" d="M21.6,18.9C35,5,54.8,7.9,58.5,16.5
								C56.3,6,34.4,2.8,21,16.7c-9.2,9.6-11.2,16.9-14.9,19C10.8,35.4,10.4,30.5,21.6,18.9z"/>
							<path fill="none" stroke="#000000" stroke-width="6" stroke-linejoin="round" d="M21.6,18.9C35,5,54.8,7.9,58.5,16.5
								C56.3,6,34.4,2.8,21,16.7c-9.2,9.6-11.2,16.9-14.9,19C10.8,35.4,10.4,30.5,21.6,18.9z"/>
						</g>
						<path fill="none" stroke="#000000" stroke-width="6" stroke-linejoin="round" d="M58.4,23.6c-1-3.4-2.9-5.7-6.9-7.6
							c-5-2.4-13.6-0.2-18.1,8.3c-4.5,8.5-7,18.2,0.3,23.9c3.1,2.4,6.6,2.2,8.9,2.6c7.9-6.6,12.4-18,14.2-22.7
							C57.4,26.7,57.9,25.1,58.4,23.6z"/>
						<g>
							<path fill="none" stroke="#000000" stroke-width="6" stroke-linejoin="round" d="M36.4,53.6c6.9-1.1,12.1-8.2,16-15.7
								c-2.1,2.2-7,10.8-15.5,12.1c-8.1,1.3-28-8.8-32.1-13.9c-0.1,0-0.1,0.1-0.2,0.1C6.1,45.7,26.2,55.3,36.4,53.6z"/>
							<path fill="none" stroke="#000000" stroke-width="6" stroke-linejoin="round" d="M36.4,53.6c6.9-1.1,12.1-8.2,16-15.7
								c-2.1,2.2-7,10.8-15.5,12.1c-8.1,1.3-28-8.8-32.1-13.9c-0.1,0-0.1,0.1-0.2,0.1C6.1,45.7,26.2,55.3,36.4,53.6z"/>
						</g>
					</g>
				</g>
				<g>
					<g>
						<path fill="none" stroke="#000000" stroke-width="6" stroke-linejoin="round" d="M48.8,16.6c0,0,0.1,0.1,0.4,0.3
							c0.2,0.1,0.8,0.5,1.3,1c0.5,0.5,1,1.2,1.4,2c0.4,0.8,0.7,1.8,0.8,2.9c0.1,1.1,0,2.3-0.4,3.6c-0.1,0.3-0.2,0.6-0.3,0.9
							c-0.1,0.3-0.3,0.6-0.5,0.9l-0.3,0.4L51,28.9l0,0.1l0,0L50.9,29l0,0l-0.1,0.1l-0.3,0.4l-0.2,0.2l-0.2,0.2
							c-0.6,0.6-1.2,1-1.9,1.3c-0.7,0.4-1.4,0.6-2.2,0.8c-1.5,0.4-3.2,0.4-4.9-0.1l-0.6-0.2c-0.2-0.1-0.4-0.2-0.6-0.3L39.3,31
							c-0.2-0.1-0.4-0.3-0.5-0.4l-0.5-0.5c-0.2-0.2-0.3-0.4-0.4-0.5c-0.3-0.4-0.6-0.7-0.8-1.1c-0.5-0.8-0.7-1.6-0.9-2.4
							c-0.1-0.4-0.1-0.8-0.2-1.2l-0.1-0.6l0-0.7c-0.1-0.4,0.1-1.8,0.4-2.5c0.3-0.8,0.7-1.6,1.2-2.2c1-1.3,2.1-2.2,3.3-2.7
							c1.2-0.5,2.4-0.6,3.4-0.6c1,0,1.9,0.2,2.6,0.3c0.3,0.1,0.6,0.2,0.9,0.3c0.3,0.1,0.5,0.2,0.7,0.2
							C48.6,16.5,48.8,16.6,48.8,16.6L48.8,16.6z M48,18.6L48,18.6c0,0-0.2,0-0.4-0.1c-0.1,0-0.3,0-0.5,0c-0.2,0-0.4,0-0.6,0.1
							c-0.5,0.1-1.1,0.3-1.7,0.6c-0.6,0.3-1.2,0.8-1.8,1.2c-0.6,0.5-1.2,0.9-1.6,1.4c-0.2,0.3-0.4,0.6-0.5,0.9
							c-0.1,0.2-0.1,0.3-0.1,0.4c0,0.1-0.1,0.1-0.1,0.2l0,0.5l0,0.2l0,0.1l0,0.1l0,0c0,0.2,0-0.2,0-0.2l0,0l0,0.4c0,0.2,0,0.5,0,0.7
							c0.1,0.4,0.1,0.9,0.3,1.3c0.3,0.8,0.8,1.4,1.6,1.9c0.8,0.4,1.9,0.7,3,0.6c0.5,0,1.1-0.1,1.6-0.3c0.5-0.1,1-0.4,1.4-0.6
							l0.2-0.1l0.2-0.2l0.4-0.3l0.1-0.1l0,0c0,0,0.1-0.1-0.1,0.1l0,0l0,0l0.1-0.1l0.3-0.3c0.2-0.2,0.3-0.4,0.5-0.6
							c0.1-0.2,0.3-0.4,0.4-0.7c0.4-0.9,0.6-1.9,0.6-2.8c0-0.9-0.2-1.7-0.5-2.4c-0.4-0.6-0.8-1.1-1.2-1.3c-0.4-0.3-0.7-0.4-1-0.5
							C48.2,18.6,48.1,18.6,48,18.6z"/>
						<path fill="none" stroke="#000000" stroke-width="6" stroke-linejoin="round" d="M48.4,17.6c4.2,1.7,4.6,7.3,1.7,10.7
							c-2.8,3.4-11.7,4.1-12-4.1C38,18.6,44.9,16.2,48.4,17.6z"/>
					</g>
					
						<ellipse transform="matrix(0.8636 0.5041 -0.5041 0.8636 19.3369 -21.5179)" fill="none" stroke="#000000" stroke-width="6" stroke-linejoin="round" cx="49.4" cy="25" rx="1.7" ry="1.9"/>
				</g>
				<g>
					<path fill="none" stroke="#000000" stroke-width="6" stroke-linejoin="round" d="M56.9,28.6c-1.9-1-5.8,1.8-7.1,3.9
						c-2,3.3-0.7,7,0.9,7.4c1.6,0.4,9.7-1.1,10.4-2.2C61.4,37.2,58.2,29.4,56.9,28.6z"/>
					<g>
						<path fill="none" stroke="#000000" stroke-width="6" stroke-linejoin="round" d="M55.8,29.7c1.7-0.5,5.1,6.3,4.3,6.8
							s-9.1-3.9-8-4.7S54.1,30.2,55.8,29.7z"/>
						<path fill="none" stroke="#000000" stroke-width="6" stroke-linejoin="round" d="M55.8,29.7c1.7-0.5,5.1,6.3,4.3,6.8
							s-9.1-3.9-8-4.7S54.1,30.2,55.8,29.7z"/>
					</g>
					<g>
						<path fill="none" stroke="#000000" stroke-width="6" stroke-linejoin="round" d="M60.5,38.2c-3.3-0.7-8.8-2.8-11.3-4.4
							c-1.1,2.9,0.1,5.8,1.5,6.2C52.1,40.3,58.4,39.2,60.5,38.2z"/>
						<path fill="none" stroke="#000000" stroke-width="6" stroke-linejoin="round" d="M60.5,38.2c-3.3-0.7-8.8-2.8-11.3-4.4
							c-1.1,2.9,0.1,5.8,1.5,6.2C52.1,40.3,58.4,39.2,60.5,38.2z"/>
					</g>
				</g>
			</g>
			<g>
				<g>
					<g>
						<g>
							<path fill="#4F504F" d="M56.8,28.1c2.3-6,5-13.6-3.6-18.9s-23.6-2.9-32.8,6.7S8.3,34.1,4.6,36.2c1.5,9.4,20.7,18.5,31,17.5
								C47.3,52.5,54.7,33.6,56.8,28.1z"/>
						</g>
						<g>
							<path fill="#706D6D" d="M21.6,18.9C35,5,54.8,7.9,58.5,16.5C56.3,6,34.4,2.8,21,16.7c-9.2,9.6-11.2,16.9-14.9,19
								C10.8,35.4,10.4,30.5,21.6,18.9z"/>
						</g>
						<path fill="#FFFFFF" d="M58.4,23.6c-1-3.4-2.9-5.7-6.9-7.6c-5-2.4-13.6-0.2-18.1,8.3c-4.5,8.5-7,18.2,0.3,23.9
							c3.1,2.4,6.6,2.2,8.9,2.6c7.9-6.6,12.4-18,14.2-22.7C57.4,26.7,57.9,25.1,58.4,23.6z"/>
						<g opacity="0.5">
							<path fill="#4F504F" d="M36.4,53.6c6.9-1.1,12.1-8.2,16-15.7c-2.1,2.2-7,10.8-15.5,12.1c-8.1,1.3-28-8.8-32.1-13.9
								c-0.1,0-0.1,0.1-0.2,0.1C6.1,45.7,26.2,55.3,36.4,53.6z"/>
						</g>
					</g>
				</g>
				<g>
					<g>
						<path d="M48.8,16.6c0,0,0.1,0.1,0.4,0.3c0.2,0.1,0.8,0.5,1.3,1c0.5,0.5,1,1.2,1.4,2c0.4,0.8,0.7,1.8,0.8,2.9
							c0.1,1.1,0,2.3-0.4,3.6c-0.1,0.3-0.2,0.6-0.3,0.9c-0.1,0.3-0.3,0.6-0.5,0.9l-0.3,0.4L51,28.9l0,0.1l0,0L50.9,29l0,0l-0.1,0.1
							l-0.3,0.4l-0.2,0.2l-0.2,0.2c-0.6,0.6-1.2,1-1.9,1.3c-0.7,0.4-1.4,0.6-2.2,0.8c-1.5,0.4-3.2,0.4-4.9-0.1l-0.6-0.2
							c-0.2-0.1-0.4-0.2-0.6-0.3L39.3,31c-0.2-0.1-0.4-0.3-0.5-0.4l-0.5-0.5c-0.2-0.2-0.3-0.4-0.4-0.5c-0.3-0.4-0.6-0.7-0.8-1.1
							c-0.5-0.8-0.7-1.6-0.9-2.4c-0.1-0.4-0.1-0.8-0.2-1.2l-0.1-0.6l0-0.7c-0.1-0.4,0.1-1.8,0.4-2.5c0.3-0.8,0.7-1.6,1.2-2.2
							c1-1.3,2.1-2.2,3.3-2.7c1.2-0.5,2.4-0.6,3.4-0.6c1,0,1.9,0.2,2.6,0.3c0.3,0.1,0.6,0.2,0.9,0.3c0.3,0.1,0.5,0.2,0.7,0.2
							C48.6,16.5,48.8,16.6,48.8,16.6L48.8,16.6z M48,18.6L48,18.6c0,0-0.2,0-0.4-0.1c-0.1,0-0.3,0-0.5,0c-0.2,0-0.4,0-0.6,0.1
							c-0.5,0.1-1.1,0.3-1.7,0.6c-0.6,0.3-1.2,0.8-1.8,1.2c-0.6,0.5-1.2,0.9-1.6,1.4c-0.2,0.3-0.4,0.6-0.5,0.9
							c-0.1,0.2-0.1,0.3-0.1,0.4c0,0.1-0.1,0.1-0.1,0.2l0,0.5l0,0.2l0,0.1l0,0.1l0,0c0,0.2,0-0.2,0-0.2l0,0l0,0.4c0,0.2,0,0.5,0,0.7
							c0.1,0.4,0.1,0.9,0.3,1.3c0.3,0.8,0.8,1.4,1.6,1.9c0.8,0.4,1.9,0.7,3,0.6c0.5,0,1.1-0.1,1.6-0.3c0.5-0.1,1-0.4,1.4-0.6
							l0.2-0.1l0.2-0.2l0.4-0.3l0.1-0.1l0,0c0,0,0.1-0.1-0.1,0.1l0,0l0,0l0.1-0.1l0.3-0.3c0.2-0.2,0.3-0.4,0.5-0.6
							c0.1-0.2,0.3-0.4,0.4-0.7c0.4-0.9,0.6-1.9,0.6-2.8c0-0.9-0.2-1.7-0.5-2.4c-0.4-0.6-0.8-1.1-1.2-1.3c-0.4-0.3-0.7-0.4-1-0.5
							C48.2,18.6,48.1,18.6,48,18.6z"/>
						<path fill="#FFFFFF" d="M48.4,17.6c4.2,1.7,4.6,7.3,1.7,10.7c-2.8,3.4-11.7,4.1-12-4.1C38,18.6,44.9,16.2,48.4,17.6z"/>
					</g>
					<ellipse transform="matrix(0.8636 0.5041 -0.5041 0.8636 19.3369 -21.5179)" cx="49.4" cy="25" rx="1.7" ry="1.9"/>
				</g>
				<g>
					<path fill="#F79420" d="M56.9,28.6c-1.9-1-5.8,1.8-7.1,3.9c-2,3.3-0.7,7,0.9,7.4c1.6,0.4,9.7-1.1,10.4-2.2
						C61.4,37.2,58.2,29.4,56.9,28.6z"/>
					<g>
						<path fill="#FDCA93" d="M55.8,29.7c1.7-0.5,5.1,6.3,4.3,6.8s-9.1-3.9-8-4.7S54.1,30.2,55.8,29.7z"/>
					</g>
					<g opacity="0.8">
						<path fill="#F26523" d="M60.5,38.2c-3.3-0.7-8.8-2.8-11.3-4.4c-1.1,2.9,0.1,5.8,1.5,6.2C52.1,40.3,58.4,39.2,60.5,38.2z"/>
					</g>
				</g>
			</g>
		</g>
		<g>
			<g>
				<path d="M23.9,19.4c0,0,0.1,0,0.2,0c0.1,0,0.2,0,0.3,0c0.1,0,0.1,0,0.2,0c0.1,0,0.3,0,0.4,0.1c0.6,0.1,1.2,0.4,1.8,0.9
					c0.7,0.5,1.4,1.1,2.1,1.9c0.7,0.8,1.5,1.7,2.2,2.9c0.6,1.2,1,2.6,1.3,4.1c0.1,0.8,0.2,1.5,0.2,2.4c0,0.4,0,0.9-0.1,1.3
					c-0.1,0.5-0.2,1-0.6,1.7c-0.2,0.3-0.6,0.8-1.3,1l-0.7,0.2c-0.4,0.1-0.8,0.2-1.2,0.4c-0.8,0.2-1.6,0.4-2.4,0.6
					c-1.6,0.4-3.3,0.7-5,0.9c-1.7,0.2-3.5,0.3-5.5,0c-1-0.2-2.1-0.4-3.3-1.2c-0.6-0.4-1.3-1-1.8-1.8c-0.1-0.1-0.1-0.2-0.2-0.3
					l-0.1-0.2l0-0.1l-0.1-0.2l0-0.1l-0.1-0.3c-0.1-0.5-0.2-0.9-0.2-1.3c0-1.6,0.6-2.6,1.1-3.5c0.5-0.9,1.1-1.5,1.6-2.1
					c1.1-1.2,2.3-2.1,3.3-2.8c2.1-1.5,4-2.5,5.3-3.2c0.7-0.3,1.2-0.6,1.6-0.8c0.4-0.2,0.7-0.2,0.7-0.2L23.9,19.4z M24.7,21.8
					c0,0-0.1,0.1-0.4,0.2c-0.3,0.2-0.7,0.5-1.2,0.9c-1,0.8-2.5,2.2-4,4c-0.7,0.9-1.5,1.9-2.1,2.9c-0.3,0.5-0.6,1-0.8,1.5
					c-0.2,0.4-0.2,0.8-0.2,0.8c0,0,0,0,0-0.2l0-0.1l0,0l0,0l0.1,0.1c0-0.1,0.1,0.1,0-0.1l0,0l0,0l0,0l0-0.1
					c-0.1-0.2-0.2-0.2-0.2-0.2c0.1,0.1,0.6,0.3,1.1,0.4c1.2,0.3,2.7,0.4,4.2,0.5c1.5,0.1,3.1,0.1,4.6,0.1c0.8,0,1.5,0,2.3-0.1
					c0.4,0,0.7,0,1.1-0.1c0.2,0,0.4,0,0.4,0c-0.3,0.1-0.4,0.3-0.4,0.3c0,0.1,0.2-0.2,0.3-0.4c0.1-0.2,0.2-0.5,0.3-0.8
					c0.1-0.6,0.2-1.3,0.2-1.9c0-1.3-0.2-2.5-0.6-3.5c-0.4-1-1-1.9-1.7-2.5c-0.7-0.6-1.4-1-1.9-1.3C25.3,21.9,24.9,21.9,24.7,21.8z"
					/>
				<path fill="#4F504F" d="M24.2,20.7c1.1-0.4,4.9,1.9,6.2,5.3c1.3,3.4,0.9,7.6-0.3,8c-1.3,0.3-15.3,2.9-16.8-1
					S21.8,21.6,24.2,20.7z"/>
			</g>
			<g>
				<path fill="#797575" d="M26.5,23.9c2.4,0.8,4.7,7.8,2.7,8.8c-2,1-10.3,2-11.6-0.4C16.3,29.8,23,22.7,26.5,23.9z"/>
			</g>
		</g>
		<g>
			<g>
				<path fill="none" stroke="#010101" stroke-width="5.2293" stroke-miterlimit="10" d="M21,44.7c1.2,2.9,0.7,6.8-1.7,9
					c-2.7,2.5-5.9,3.7-7.9,2.7c-2-1,2.2-14.2,4.5-14.3C17.6,42.1,20.2,42.7,21,44.7z"/>
				<path fill="#F79420" d="M21,44.7c1.2,2.9,0.7,6.8-1.7,9c-2.7,2.5-5.9,3.7-7.9,2.7c-2-1,2.2-14.2,4.5-14.3
					C17.6,42.1,20.2,42.7,21,44.7z"/>
			</g>
			<g>
				<path fill="#FDCA93" d="M13.2,56.7c1.8-0.1,4.1-1.2,6-3c1.9-1.8,2.6-4.6,2.2-7.1C17.2,48.4,14.1,53,13.2,56.7z"/>
			</g>
			<g>
				<path fill="#F26523" d="M11.3,56.4c0.3,0.2,0.7,0.3,1.1,0.3c0.2-2.4,1.1-5.7,1.9-7.9c1.1-2.6,2.7-5.3,5.2-5.8
					c-1.1-0.7-2.5-1-3.6-0.9C13.6,42.2,9.4,55.3,11.3,56.4z"/>
			</g>
		</g>
	</g>
</g>
</svg>
