<?xml version="1.0" encoding="utf-8"?>
<!-- SPDX-License-Identifier: CC-BY-2.0 -->
<!-- Copyright 2015 Game Art Guppy LLC -->
<!-- Generator: Adobe Illustrator 17.1.0, SVG Export Plug-In . SVG Version: 6.00 Build 0)  -->
<!DOCTYPE svg PUBLIC "-//W3C//DTD SVG 1.1//EN" "http://www.w3.org/Graphics/SVG/1.1/DTD/svg11.dtd">
<svg version="1.1" xmlns="http://www.w3.org/2000/svg" xmlns:xlink="http://www.w3.org/1999/xlink" x="0px" y="0px"
	 viewBox="0 0 72 64" enable-background="new 0 0 72 64" xml:space="preserve">
<g id="penguin_x5F_die01">
	<g id="dead_2_">
		<g>
			<g>
				<path fill="none" stroke="#010101" stroke-width="6" stroke-miterlimit="10" d="M36.4,50.8c2.2-3,6.7-5.5,10.8-5.3
					c4.5,0.2,8.2,1.7,8.5,3.9c0.3,2.2-16.6,8.7-18.4,7.1C36,55.2,34.9,52.8,36.4,50.8z"/>
				<path fill="#F79420" d="M36.4,50.8c2.2-3,6.7-5.5,10.8-5.3c4.5,0.2,8.2,1.7,8.5,3.9c0.3,2.2-16.6,8.7-18.4,7.1
					C36,55.2,34.9,52.8,36.4,50.8z"/>
			</g>
			<g>
				<path fill="#FDCA93" d="M54.8,47.7c-1.4-1.3-4.3-2.1-7.6-2.3c-3.2-0.1-6.7,1.4-9.1,3.5C43.1,50.9,50.1,49.8,54.8,47.7z"/>
			</g>
			<g>
				<path fill="#F26523" d="M55.7,49.4c-0.1-0.4-0.2-0.7-0.4-1c-2.6,1.6-6.8,3.4-9.8,4.3c-3.5,1.1-7.6,1.9-9.9,0.4
					c0.1,1.3,0.8,2.6,1.7,3.4C39.1,58.1,56,51.6,55.7,49.4z"/>
			</g>
		</g>
		<g>
			<g>
				<g>
					<g>
						<g>
							<path fill="none" stroke="#000000" stroke-width="6" stroke-linejoin="round" d="M48.7,16.8c-1.5-6.2-3.6-14-13.8-13.5
								s-21,11.1-23.2,24.2s0.5,21.9-1.3,25.7c6.6,6.9,31,4.8,37.8-3C54.2,43.5,50.1,22.5,48.7,16.8z"/>
							<path fill="none" stroke="#000000" stroke-width="6" stroke-linejoin="round" d="M48.7,16.8c-1.5-6.2-3.6-14-13.8-13.5
								s-21,11.1-23.2,24.2s0.5,21.9-1.3,25.7c6.6,6.9,31,4.8,37.8-3C54.2,43.5,50.1,22.5,48.7,16.8z"/>
						</g>
						<g>
							<path fill="none" stroke="#000000" stroke-width="6" stroke-linejoin="round" d="M14.5,29.3c3.1-19,21-28,29-22.9
								C35.7-1,15.8,8.8,12.8,27.9C10.6,41,13.2,48.2,11.4,52C15.1,49,11.9,45.2,14.5,29.3z"/>
							<path fill="none" stroke="#000000" stroke-width="6" stroke-linejoin="round" d="M14.5,29.3c3.1-19,21-28,29-22.9
								C35.7-1,15.8,8.8,12.8,27.9C10.6,41,13.2,48.2,11.4,52C15.1,49,11.9,45.2,14.5,29.3z"/>
						</g>
						<path fill="none" stroke="#000000" stroke-width="6" stroke-linejoin="round" d="M47.4,12.2c-2.8-2.2-5.6-3-10-2.3
							c-5.5,0.9-11.3,7.5-10.1,17.1c1.2,9.6,4.6,19,13.9,19.5c3.9,0.2,7.4-0.3,9.5-1.4c2.4-9.5-0.8-23.5-1.9-28.3
							C48.3,15.3,47.9,13.7,47.4,12.2z"/>
						<g>
							<path fill="none" stroke="#000000" stroke-width="6" stroke-linejoin="round" d="M48.3,50.3c3.8-4.3,3.5-14.6,2.4-22.8
								c-0.5,3,2,14.2-4.2,20.1c-5.9,5.7-29.6,7.4-35.9,5.5c0,0.1,0,0.1-0.1,0.2C17,60.1,41.4,58,48.3,50.3z"/>
							<path fill="none" stroke="#000000" stroke-width="6" stroke-linejoin="round" d="M48.3,50.3c3.8-4.3,3.5-14.6,2.4-22.8
								c-0.5,3,2,14.2-4.2,20.1c-5.9,5.7-29.6,7.4-35.9,5.5c0,0.1,0,0.1-0.1,0.2C17,60.1,41.4,58,48.3,50.3z"/>
						</g>
					</g>
					<g>
						<g>
							<path fill="none" stroke="#000000" stroke-width="6" stroke-linejoin="round" d="M48.7,16.8c-1.5-6.2-3.6-14-13.8-13.5
								s-21,11.1-23.2,24.2s0.5,21.9-1.3,25.7c6.6,6.9,31,4.8,37.8-3C54.2,43.5,50.1,22.5,48.7,16.8z"/>
							<path fill="none" stroke="#000000" stroke-width="6" stroke-linejoin="round" d="M48.7,16.8c-1.5-6.2-3.6-14-13.8-13.5
								s-21,11.1-23.2,24.2s0.5,21.9-1.3,25.7c6.6,6.9,31,4.8,37.8-3C54.2,43.5,50.1,22.5,48.7,16.8z"/>
						</g>
						<g>
							<path fill="none" stroke="#000000" stroke-width="6" stroke-linejoin="round" d="M14.5,29.3c3.1-19,21-28,29-22.9
								C35.7-1,15.8,8.8,12.8,27.9C10.6,41,13.2,48.2,11.4,52C15.1,49,11.9,45.2,14.5,29.3z"/>
							<path fill="none" stroke="#000000" stroke-width="6" stroke-linejoin="round" d="M14.5,29.3c3.1-19,21-28,29-22.9
								C35.7-1,15.8,8.8,12.8,27.9C10.6,41,13.2,48.2,11.4,52C15.1,49,11.9,45.2,14.5,29.3z"/>
						</g>
						<path fill="none" stroke="#000000" stroke-width="6" stroke-linejoin="round" d="M47.4,12.2c-2.8-2.2-5.6-3-10-2.3
							c-5.5,0.9-11.3,7.5-10.1,17.1c1.2,9.6,4.6,19,13.9,19.5c3.9,0.2,7.4-0.3,9.5-1.4c2.4-9.5-0.8-23.5-1.9-28.3
							C48.3,15.3,47.9,13.7,47.4,12.2z"/>
						<g>
							<path fill="none" stroke="#000000" stroke-width="6" stroke-linejoin="round" d="M48.3,50.3c3.8-4.3,3.5-14.6,2.4-22.8
								c-0.5,3,2,14.2-4.2,20.1c-5.9,5.7-29.6,7.4-35.9,5.5c0,0.1,0,0.1-0.1,0.2C17,60.1,41.4,58,48.3,50.3z"/>
							<path fill="none" stroke="#000000" stroke-width="6" stroke-linejoin="round" d="M48.3,50.3c3.8-4.3,3.5-14.6,2.4-22.8
								c-0.5,3,2,14.2-4.2,20.1c-5.9,5.7-29.6,7.4-35.9,5.5c0,0.1,0,0.1-0.1,0.2C17,60.1,41.4,58,48.3,50.3z"/>
						</g>
					</g>
					<g>
						<g>
							<path fill="none" stroke="#000000" stroke-width="6" stroke-linejoin="round" d="M48.7,16.8c-1.5-6.2-3.6-14-13.8-13.5
								s-21,11.1-23.2,24.2s0.5,21.9-1.3,25.7c6.6,6.9,31,4.8,37.8-3C54.2,43.5,50.1,22.5,48.7,16.8z"/>
							<path fill="none" stroke="#000000" stroke-width="6" stroke-linejoin="round" d="M48.7,16.8c-1.5-6.2-3.6-14-13.8-13.5
								s-21,11.1-23.2,24.2s0.5,21.9-1.3,25.7c6.6,6.9,31,4.8,37.8-3C54.2,43.5,50.1,22.5,48.7,16.8z"/>
						</g>
						<g>
							<path fill="none" stroke="#000000" stroke-width="6" stroke-linejoin="round" d="M14.5,29.3c3.1-19,21-28,29-22.9
								C35.7-1,15.8,8.8,12.8,27.9C10.6,41,13.2,48.2,11.4,52C15.1,49,11.9,45.2,14.5,29.3z"/>
							<path fill="none" stroke="#000000" stroke-width="6" stroke-linejoin="round" d="M14.5,29.3c3.1-19,21-28,29-22.9
								C35.7-1,15.8,8.8,12.8,27.9C10.6,41,13.2,48.2,11.4,52C15.1,49,11.9,45.2,14.5,29.3z"/>
						</g>
						<path fill="none" stroke="#000000" stroke-width="6" stroke-linejoin="round" d="M47.4,12.2c-2.8-2.2-5.6-3-10-2.3
							c-5.5,0.9-11.3,7.5-10.1,17.1c1.2,9.6,4.6,19,13.9,19.5c3.9,0.2,7.4-0.3,9.5-1.4c2.4-9.5-0.8-23.5-1.9-28.3
							C48.3,15.3,47.9,13.7,47.4,12.2z"/>
						<g>
							<path fill="none" stroke="#000000" stroke-width="6" stroke-linejoin="round" d="M48.3,50.3c3.8-4.3,3.5-14.6,2.4-22.8
								c-0.5,3,2,14.2-4.2,20.1c-5.9,5.7-29.6,7.4-35.9,5.5c0,0.1,0,0.1-0.1,0.2C17,60.1,41.4,58,48.3,50.3z"/>
							<path fill="none" stroke="#000000" stroke-width="6" stroke-linejoin="round" d="M48.3,50.3c3.8-4.3,3.5-14.6,2.4-22.8
								c-0.5,3,2,14.2-4.2,20.1c-5.9,5.7-29.6,7.4-35.9,5.5c0,0.1,0,0.1-0.1,0.2C17,60.1,41.4,58,48.3,50.3z"/>
						</g>
					</g>
				</g>
				<g>
					<g>
						<path fill="none" stroke="#000000" stroke-width="6" stroke-linejoin="round" d="M36.1,8c0,0,0.2,0,0.6,0c0.3,0,1.2,0,2,0.1
							c0.8,0.1,1.8,0.5,2.8,1.1c1,0.6,2,1.4,2.9,2.4c0.9,1.1,1.7,2.4,2.1,4c0.1,0.4,0.2,0.8,0.3,1.2c0.1,0.4,0.1,0.8,0.2,1.3l0,0.7
							l0,0.3l0,0.1l0,0l0,0.1l0,0l0,0.1L47,20.1l0,0.3l-0.1,0.4c-0.2,1-0.6,1.9-1,2.7c-0.2,0.4-0.5,0.8-0.7,1.2
							c-0.3,0.4-0.6,0.8-0.9,1.1c-1.3,1.5-3,2.7-5.1,3.4l-0.8,0.2c-0.3,0.1-0.6,0.1-0.8,0.1l-0.9,0.1c-0.3,0-0.6,0-0.9-0.1l-0.9-0.1
							c-0.3-0.1-0.6-0.1-0.8-0.2L33.1,29c-0.3-0.1-0.5-0.2-0.8-0.4c-1-0.5-1.9-1.1-2.7-1.8c-0.4-0.4-0.7-0.7-1-1.1l-0.5-0.5
							l-0.5-0.7c-0.4-0.4-1.2-2-1.4-2.9C26.1,21,26,20.5,26,20c-0.1-0.5-0.1-1-0.1-1.5c0.1-2,0.6-3.8,1.5-5.2c0.9-1.4,2-2.3,3-3
							c1.1-0.7,2-1.2,2.9-1.5c0.4-0.2,0.8-0.3,1.1-0.4c0.3-0.1,0.6-0.2,0.9-0.2C35.7,8.1,36,8,36.1,8L36.1,8z M36.6,10.6L36.6,10.6
							c0,0-0.2,0.1-0.5,0.2c-0.1,0.1-0.3,0.2-0.5,0.3c-0.2,0.1-0.4,0.3-0.6,0.5c-0.1,0.1-0.2,0.2-0.3,0.3c-0.1,0.1-0.2,0.3-0.3,0.4
							c-0.2,0.3-0.4,0.7-0.6,1c-0.4,0.8-0.7,1.7-1,2.5c-0.3,0.9-0.6,1.8-0.7,2.7c0,0.2,0,0.4,0,0.7c0,0.2,0.1,0.4,0.1,0.6
							c0,0.3,0.1,0.4,0.1,0.5l0,0.1c0,0,0,0.1,0.1,0.2l0.3,0.5l0.1,0.3l0.1,0.1l0,0.1l0,0c0.1,0.2-0.2-0.2-0.1-0.2l0,0l0.3,0.4
							c0.2,0.2,0.4,0.5,0.6,0.7c0.4,0.4,0.8,0.9,1.3,1.1c0.9,0.6,1.9,0.9,3,0.8c1.2-0.1,2.4-0.7,3.5-1.5c0.3-0.2,0.5-0.4,0.8-0.7
							c0.3-0.2,0.5-0.5,0.7-0.8c0.4-0.5,0.8-1.1,1-1.6l0.1-0.2l0.1-0.3l0.1-0.6l0-0.1l0,0c0,0,0-0.1,0,0.1l0,0l0-0.1l0-0.2l0.1-0.5
							c0-0.3,0-0.7,0-1c0-0.3-0.1-0.7-0.1-1c-0.2-1.3-0.7-2.4-1.4-3.4c-0.6-0.9-1.4-1.7-2.2-2.1c-0.8-0.4-1.6-0.6-2.2-0.5
							c-0.3,0-0.6,0.1-0.8,0.1c-0.2,0-0.4,0.1-0.6,0.1C36.9,10.5,36.7,10.5,36.6,10.6z"/>
						<path fill="none" stroke="#000000" stroke-width="6" stroke-linejoin="round" d="M36.3,9.3c5.5-1.3,9.9,4.2,9.4,9.7
							c-0.5,5.5-9.1,12.6-15.2,4.3C26.3,17.8,31.7,10.4,36.3,9.3z"/>
					</g>
					
						<ellipse transform="matrix(0.997 -7.771945e-02 7.771945e-02 0.997 -1.3925 3.3713)" fill="none" stroke="#000000" stroke-width="6" stroke-linejoin="round" cx="42.6" cy="19.6" rx="2.1" ry="2.3"/>
				</g>
				<g>
					<g>
						<path fill="none" stroke="#000000" stroke-width="6" stroke-linejoin="round" d="M56.4,25.4c-0.1-1.3-8.4-0.5-10.8,0.4
							c0.8,3,3.4,4.7,4.8,4.2C51.8,29.5,55.3,27.4,56.4,25.4z"/>
						<path fill="none" stroke="#000000" stroke-width="6" stroke-linejoin="round" d="M56.4,25.4c-0.1-1.3-8.4-0.5-10.8,0.4
							c0.8,3,3.4,4.7,4.8,4.2C51.8,29.5,55.3,27.4,56.4,25.4z"/>
					</g>
					<path fill="none" stroke="#000000" stroke-width="6" stroke-linejoin="round" d="M49,17.2c-2.1,0.2-3.7,4.8-3.6,7.3
						c0.3,3.8,2.2,1.9,3.8,1.3c1.6-0.6,8.6-2.6,8.5-3.9C57.6,21.2,50.5,17,49,17.2z"/>
					<g>
						<path fill="none" stroke="#000000" stroke-width="6" stroke-linejoin="round" d="M48.7,18.7c1.1-1.4,7.8,2.3,7.4,3.1
							c-0.4,0.9-9.7,2-9.3,0.7C47.2,21.3,47.6,20.1,48.7,18.7z"/>
						<path fill="none" stroke="#000000" stroke-width="6" stroke-linejoin="round" d="M48.7,18.7c1.1-1.4,7.8,2.3,7.4,3.1
							c-0.4,0.9-9.7,2-9.3,0.7C47.2,21.3,47.6,20.1,48.7,18.7z"/>
					</g>
					<path fill="none" stroke="#000000" stroke-width="6" stroke-linejoin="round" d="M56.4,25.4c-3.3,0.5-7.8,0.4-10.8,0.4
						c0.8,3,3.4,4.7,4.8,4.2C51.8,29.5,55.3,27.4,56.4,25.4z"/>
				</g>
				<g display="none">
					<g display="inline">
						<path fill="none" stroke="#000000" stroke-width="6" stroke-linejoin="round" d="M31.3,17.1c2.6,1,6.9,4.3,9,6.8"/>
						<path fill="none" stroke="#000000" stroke-width="6" stroke-linejoin="round" d="M31.5,16.6c0,0,0.1,0,0.2,0
							c0.1,0,0.3-0.1,0.4-0.1c0.2,0,0.4,0,0.6-0.1c0.2,0,0.5,0,0.8,0.1c0.3,0.1,0.7,0.1,1,0.3c0.3,0.1,0.6,0.3,0.9,0.5
							c0.3,0.2,0.6,0.4,0.9,0.6c0.3,0.2,0.6,0.4,0.9,0.7c0.3,0.3,0.5,0.5,0.8,0.8c0.3,0.2,0.5,0.5,0.7,0.8c0.2,0.3,0.5,0.5,0.6,0.8
							c0.2,0.3,0.4,0.5,0.5,0.8c0.3,0.5,0.5,1,0.6,1.3c0.1,0.3,0.2,0.5,0.2,0.5l0.1,0.2c0.1,0.3,0,0.5-0.3,0.6
							c-0.2,0.1-0.4,0-0.5-0.1c0,0-0.1-0.1-0.3-0.3c-0.2-0.2-0.5-0.5-0.9-0.9c-0.4-0.4-0.8-0.8-1.3-1.2c-0.5-0.4-1.1-0.9-1.6-1.3
							c-0.6-0.4-1.1-0.8-1.7-1.2c-0.5-0.4-1.1-0.7-1.5-0.9c-0.4-0.3-0.8-0.5-1.1-0.6c-0.3-0.1-0.4-0.2-0.4-0.2
							c-0.2-0.1-0.3-0.4-0.2-0.6c0.1-0.1,0.2-0.2,0.3-0.2L31.5,16.6z"/>
					</g>
					<g display="inline">
						<path fill="none" stroke="#000000" stroke-width="6" stroke-linejoin="round" d="M29.3,23c3.2-1.3,6.6-1.1,9.8-0.4"/>
						<path fill="none" stroke="#000000" stroke-width="6" stroke-linejoin="round" d="M29.1,22.5c0,0,0.1-0.2,0.3-0.5
							c0.2-0.2,0.5-0.6,1-0.8c0.2-0.1,0.5-0.2,0.8-0.4c0.3-0.1,0.6-0.1,0.9-0.2c0.6-0.1,1.3-0.1,2-0.1c0.3,0,0.7,0.1,1,0.1
							c0.3,0,0.6,0.1,1,0.2c0.6,0.1,1.2,0.3,1.6,0.5c0.5,0.2,0.8,0.4,1.1,0.5c0.3,0.1,0.4,0.2,0.4,0.2l0.1,0.1
							c0.2,0.1,0.3,0.4,0.2,0.7c-0.1,0.2-0.3,0.3-0.5,0.2c0,0-0.6-0.1-1.5-0.3c-0.5-0.1-1-0.1-1.5-0.2c-0.6-0.1-1.2,0-1.8-0.1
							c-0.6,0-1.2,0.1-1.8,0.2c-0.3,0-0.6,0.1-0.8,0.1c-0.2,0.1-0.5,0.1-0.7,0.2c-0.4,0.1-0.8,0.3-1.1,0.3c-0.3,0.1-0.4,0.1-0.4,0.1
							c-0.2,0.1-0.5,0-0.5-0.3c0-0.1,0-0.2,0-0.3L29.1,22.5z"/>
					</g>
				</g>
			</g>
			<g>
				<g>
					<g>
						<g>
							<path fill="#4F504F" d="M48.7,16.8c-1.5-6.2-3.6-14-13.8-13.5s-21,11.1-23.2,24.2s0.5,21.9-1.3,25.7c6.6,6.9,31,4.8,37.8-3
								C54.2,43.5,50.1,22.5,48.7,16.8z"/>
						</g>
						<g>
							<path fill="#706D6D" d="M14.5,29.3c3.1-19,21-28,29-22.9C35.7-1,15.8,8.8,12.8,27.9C10.6,41,13.2,48.2,11.4,52
								C15.1,49,11.9,45.2,14.5,29.3z"/>
						</g>
						<path fill="#FFFFFF" d="M47.4,12.2c-2.8-2.2-5.6-3-10-2.3c-5.5,0.9-11.3,7.5-10.1,17.1c1.2,9.6,4.6,19,13.9,19.5
							c3.9,0.2,7.4-0.3,9.5-1.4c2.4-9.5-0.8-23.5-1.9-28.3C48.3,15.3,47.9,13.7,47.4,12.2z"/>
						<g opacity="0.5">
							<path fill="#4F504F" d="M48.3,50.3c3.8-4.3,3.5-14.6,2.4-22.8c-0.5,3,2,14.2-4.2,20.1c-5.9,5.7-29.6,7.4-35.9,5.5
								c0,0.1,0,0.1-0.1,0.2C17,60.1,41.4,58,48.3,50.3z"/>
						</g>
					</g>
				</g>
				<g>
					<g>
						<path d="M36.1,8c0,0,0.2,0,0.6,0c0.3,0,1.2,0,2,0.1c0.8,0.1,1.8,0.5,2.8,1.1c1,0.6,2,1.4,2.9,2.4c0.9,1.1,1.7,2.4,2.1,4
							c0.1,0.4,0.2,0.8,0.3,1.2c0.1,0.4,0.1,0.8,0.2,1.3l0,0.7l0,0.3l0,0.1l0,0l0,0.1l0,0l0,0.1L47,20.1l0,0.3l-0.1,0.4
							c-0.2,1-0.6,1.9-1,2.7c-0.2,0.4-0.5,0.8-0.7,1.2c-0.3,0.4-0.6,0.8-0.9,1.1c-1.3,1.5-3,2.7-5.1,3.4l-0.8,0.2
							c-0.3,0.1-0.6,0.1-0.8,0.1l-0.9,0.1c-0.3,0-0.6,0-0.9-0.1l-0.9-0.1c-0.3-0.1-0.6-0.1-0.8-0.2L33.1,29
							c-0.3-0.1-0.5-0.2-0.8-0.4c-1-0.5-1.9-1.1-2.7-1.8c-0.4-0.4-0.7-0.7-1-1.1l-0.5-0.5l-0.5-0.7c-0.4-0.4-1.2-2-1.4-2.9
							C26.1,21,26,20.5,26,20c-0.1-0.5-0.1-1-0.1-1.5c0.1-2,0.6-3.8,1.5-5.2c0.9-1.4,2-2.3,3-3c1.1-0.7,2-1.2,2.9-1.5
							c0.4-0.2,0.8-0.3,1.1-0.4c0.3-0.1,0.6-0.2,0.9-0.2C35.7,8.1,36,8,36.1,8L36.1,8z M36.6,10.6L36.6,10.6c0,0-0.2,0.1-0.5,0.2
							c-0.1,0.1-0.3,0.2-0.5,0.3c-0.2,0.1-0.4,0.3-0.6,0.5c-0.1,0.1-0.2,0.2-0.3,0.3c-0.1,0.1-0.2,0.3-0.3,0.4
							c-0.2,0.3-0.4,0.7-0.6,1c-0.4,0.8-0.7,1.7-1,2.5c-0.3,0.9-0.6,1.8-0.7,2.7c0,0.2,0,0.4,0,0.7c0,0.2,0.1,0.4,0.1,0.6
							c0,0.3,0.1,0.4,0.1,0.5l0,0.1c0,0,0,0.1,0.1,0.2l0.3,0.5l0.1,0.3l0.1,0.1l0,0.1l0,0c0.1,0.2-0.2-0.2-0.1-0.2l0,0l0.3,0.4
							c0.2,0.2,0.4,0.5,0.6,0.7c0.4,0.4,0.8,0.9,1.3,1.1c0.9,0.6,1.9,0.9,3,0.8c1.2-0.1,2.4-0.7,3.5-1.5c0.3-0.2,0.5-0.4,0.8-0.7
							c0.3-0.2,0.5-0.5,0.7-0.8c0.4-0.5,0.8-1.1,1-1.6l0.1-0.2l0.1-0.3l0.1-0.6l0-0.1l0,0c0,0,0-0.1,0,0.1l0,0l0-0.1l0-0.2l0.1-0.5
							c0-0.3,0-0.7,0-1c0-0.3-0.1-0.7-0.1-1c-0.2-1.3-0.7-2.4-1.4-3.4c-0.6-0.9-1.4-1.7-2.2-2.1c-0.8-0.4-1.6-0.6-2.2-0.5
							c-0.3,0-0.6,0.1-0.8,0.1c-0.2,0-0.4,0.1-0.6,0.1C36.9,10.5,36.7,10.5,36.6,10.6z"/>
						<path fill="#FFFFFF" d="M36.3,9.3c5.5-1.3,9.9,4.2,9.4,9.7c-0.5,5.5-9.1,12.6-15.2,4.3C26.3,17.8,31.7,10.4,36.3,9.3z"/>
					</g>
					<ellipse transform="matrix(0.997 -7.771945e-02 7.771945e-02 0.997 -1.3925 3.3713)" cx="42.6" cy="19.6" rx="2.1" ry="2.3"/>
				</g>
				<g>
					<g>
						<path fill="#F26523" d="M56.4,25.4c-0.1-1.3-8.4-0.5-10.8,0.4c0.8,3,3.4,4.7,4.8,4.2C51.8,29.5,55.3,27.4,56.4,25.4z"/>
					</g>
					<path fill="#F79420" d="M49,17.2c-2.1,0.2-3.7,4.8-3.6,7.3c0.3,3.8,2.2,1.9,3.8,1.3c1.6-0.6,8.6-2.6,8.5-3.9
						C57.6,21.2,50.5,17,49,17.2z"/>
					<g>
						<path fill="#FDCA93" d="M48.7,18.7c1.1-1.4,7.8,2.3,7.4,3.1c-0.4,0.9-9.7,2-9.3,0.7C47.2,21.3,47.6,20.1,48.7,18.7z"/>
					</g>
					<path fill="#F79420" d="M56.4,25.4c-3.3,0.5-7.8,0.4-10.8,0.4c0.8,3,3.4,4.7,4.8,4.2C51.8,29.5,55.3,27.4,56.4,25.4z"/>
				</g>
				<g display="none">
					<g display="inline">
						<path fill="#231F20" d="M31.5,16.6c0,0,0.1,0,0.2,0c0.1,0,0.3-0.1,0.4-0.1c0.2,0,0.4,0,0.6-0.1c0.2,0,0.5,0,0.8,0.1
							c0.3,0.1,0.7,0.1,1,0.3c0.3,0.1,0.6,0.3,0.9,0.5c0.3,0.2,0.6,0.4,0.9,0.6c0.3,0.2,0.6,0.4,0.9,0.7c0.3,0.3,0.5,0.5,0.8,0.8
							c0.3,0.2,0.5,0.5,0.7,0.8c0.2,0.3,0.5,0.5,0.6,0.8c0.2,0.3,0.4,0.5,0.5,0.8c0.3,0.5,0.5,1,0.6,1.3c0.1,0.3,0.2,0.5,0.2,0.5
							l0.1,0.2c0.1,0.3,0,0.5-0.3,0.6c-0.2,0.1-0.4,0-0.5-0.1c0,0-0.1-0.1-0.3-0.3c-0.2-0.2-0.5-0.5-0.9-0.9
							c-0.4-0.4-0.8-0.8-1.3-1.2c-0.5-0.4-1.1-0.9-1.6-1.3c-0.6-0.4-1.1-0.8-1.7-1.2c-0.5-0.4-1.1-0.7-1.5-0.9
							c-0.4-0.3-0.8-0.5-1.1-0.6c-0.3-0.1-0.4-0.2-0.4-0.2c-0.2-0.1-0.3-0.4-0.2-0.6c0.1-0.1,0.2-0.2,0.3-0.2L31.5,16.6z"/>
					</g>
					<g display="inline">
						<path fill="#231F20" d="M29.1,22.5c0,0,0.1-0.2,0.3-0.5c0.2-0.2,0.5-0.6,1-0.8c0.2-0.1,0.5-0.2,0.8-0.4
							c0.3-0.1,0.6-0.1,0.9-0.2c0.6-0.1,1.3-0.1,2-0.1c0.3,0,0.7,0.1,1,0.1c0.3,0,0.6,0.1,1,0.2c0.6,0.1,1.2,0.3,1.6,0.5
							c0.5,0.2,0.8,0.4,1.1,0.5c0.3,0.1,0.4,0.2,0.4,0.2l0.1,0.1c0.2,0.1,0.3,0.4,0.2,0.7c-0.1,0.2-0.3,0.3-0.5,0.2
							c0,0-0.6-0.1-1.5-0.3c-0.5-0.1-1-0.1-1.5-0.2c-0.6-0.1-1.2,0-1.8-0.1c-0.6,0-1.2,0.1-1.8,0.2c-0.3,0-0.6,0.1-0.8,0.1
							c-0.2,0.1-0.5,0.1-0.7,0.2c-0.4,0.1-0.8,0.3-1.1,0.3c-0.3,0.1-0.4,0.1-0.4,0.1c-0.2,0.1-0.5,0-0.5-0.3c0-0.1,0-0.2,0-0.3
							L29.1,22.5z"/>
					</g>
				</g>
			</g>
		</g>
		<g>
			<g>
				<path d="M10.7,27.5c0,0,0.1,0,0.2-0.1c0.1,0,0.1-0.1,0.2-0.1c0.1,0,0.1,0,0.2-0.1c0.1,0,0.3-0.1,0.4-0.1c0.6-0.1,1.3-0.1,2,0.1
					c0.8,0.2,1.7,0.5,2.7,0.9c1,0.4,2.1,1,3.1,1.8c1,0.9,2,2,2.8,3.2c0.4,0.6,0.8,1.3,1.1,2.1c0.2,0.4,0.3,0.8,0.4,1.3
					c0.1,0.5,0.2,1,0.1,1.8c-0.1,0.4-0.2,0.9-0.8,1.4l-0.6,0.5c-0.3,0.3-0.6,0.5-0.9,0.8c-0.6,0.5-1.3,1-1.9,1.5
					c-1.3,1-2.7,1.9-4.3,2.8c-1.5,0.8-3.1,1.6-5.1,2.1c-1,0.2-2.1,0.4-3.5,0.2c-0.7-0.1-1.6-0.4-2.4-1c-0.1-0.1-0.2-0.1-0.3-0.2
					l-0.1-0.1l-0.1-0.1L4,46l-0.1-0.1l-0.2-0.3c-0.3-0.5-0.5-0.8-0.7-1.1c-0.6-1.5-0.5-2.6-0.4-3.6c0.1-1,0.4-1.8,0.7-2.6
					c0.6-1.5,1.3-2.8,2-3.9c1.4-2.2,2.7-3.9,3.7-5c0.5-0.6,0.9-1,1.2-1.3C10.4,27.7,10.6,27.5,10.7,27.5L10.7,27.5z M12.3,29.4
					c0,0-0.1,0.1-0.3,0.4c-0.2,0.3-0.4,0.7-0.8,1.3c-0.6,1.2-1.4,3-2.1,5.2c-0.3,1.1-0.6,2.3-0.8,3.5c-0.1,0.6-0.1,1.2-0.1,1.6
					c0,0.5,0.1,0.8,0.1,0.8c0,0,0,0-0.1-0.2l0-0.1l0,0l0,0L8.4,42c0,0,0.1,0.1-0.1-0.1l0,0l0,0l0,0l-0.1,0C8.1,41.7,8,41.7,8,41.7
					c0.1,0,0.6,0,1.2-0.1c1.2-0.2,2.6-0.7,4-1.2c1.4-0.5,2.9-1.1,4.3-1.8c0.7-0.3,1.4-0.6,2.1-1c0.3-0.2,0.7-0.3,1-0.5
					C20.8,37.1,21,37,21,37c-0.2,0.2-0.2,0.4-0.2,0.4c0,0,0.1-0.2,0.1-0.5c0-0.3,0-0.6-0.1-0.9c-0.1-0.6-0.3-1.2-0.6-1.8
					c-0.5-1.2-1.2-2.2-1.9-3c-0.7-0.8-1.6-1.3-2.5-1.6c-0.9-0.3-1.7-0.4-2.3-0.4C12.9,29.2,12.4,29.3,12.3,29.4
					c-0.1,0-0.1,0.1-0.1,0.1c0,0,0,0,0,0C12.2,29.4,12.3,29.4,12.3,29.4C12.4,29.3,12.3,29.4,12.3,29.4
					C12.3,29.4,12.2,29.4,12.3,29.4L12.3,29.4z"/>
				<path fill="#4F504F" d="M11.5,28.4c0.8-0.8,5.3-0.2,7.8,2.4s3.9,6.7,2.8,7.5S9.2,47,6.2,44S9.6,30.2,11.5,28.4z"/>
			</g>
			<g>
				<path fill="#797575" d="M14.9,30.5c2.6-0.2,7.4,5.4,6,7s-8.7,5.9-10.9,4.2C7.8,40,11.2,30.8,14.9,30.5z"/>
			</g>
		</g>
		<g>
			<g>
				<path fill="none" stroke="#010101" stroke-width="6" stroke-miterlimit="10" d="M18.3,53c2.9-2.2,8-3.4,11.9-2.1
					c4.3,1.4,7.5,3.9,7.1,6.1c-0.3,2.2-18.4,3.8-19.6,1.7C16.8,57.1,16.3,54.5,18.3,53z"/>
				<path fill="#F79420" d="M18.3,53c2.9-2.2,8-3.4,11.9-2.1c4.3,1.4,7.5,3.9,7.1,6.1c-0.3,2.2-18.4,3.8-19.6,1.7
					C16.8,57.1,16.3,54.5,18.3,53z"/>
			</g>
			<g>
				<path fill="#FDCA93" d="M36.9,55.1c-1-1.6-3.5-3.2-6.7-4.3c-3.1-1-6.9-0.5-9.8,0.9C24.7,54.9,31.8,55.8,36.9,55.1z"/>
			</g>
			<g>
				<path fill="#F26523" d="M37.3,56.9c0.1-0.4,0-0.7-0.1-1.1c-3,0.8-7.5,1.4-10.6,1.5c-3.7,0.1-7.8-0.3-9.6-2.3
					c-0.3,1.3,0.1,2.7,0.7,3.7C18.9,60.7,37,59.1,37.3,56.9z"/>
			</g>
		</g>
	</g>
</g>
</svg>
