<?xml version="1.0" encoding="utf-8"?>
<!-- SPDX-License-Identifier: CC-BY-2.0 -->
<!-- Copyright 2015 Game Art Guppy LLC -->
<!-- Generator: Adobe Illustrator 17.1.0, SVG Export Plug-In . SVG Version: 6.00 Build 0)  -->
<!DOCTYPE svg PUBLIC "-//W3C//DTD SVG 1.1//EN" "http://www.w3.org/Graphics/SVG/1.1/DTD/svg11.dtd">
<svg version="1.1" xmlns="http://www.w3.org/2000/svg" xmlns:xlink="http://www.w3.org/1999/xlink" x="0px" y="0px"
	 viewBox="0 0 72 64" enable-background="new 0 0 72 64" xml:space="preserve">
<g id="penguin_x5F_hurt">
	<g id="dead">
		<g>
			<g>
				<path fill="none" stroke="#010101" stroke-width="6" stroke-miterlimit="10" d="M30.9,50.7c3.1-2,8.2-2.8,12-1.2
					c4.2,1.8,7.1,4.5,6.6,6.6c-0.5,2.2-18.6,2.3-19.7,0.2C29,54.6,28.8,52,30.9,50.7z"/>
				<path fill="#F79420" d="M30.9,50.7c3.1-2,8.2-2.8,12-1.2c4.2,1.8,7.1,4.5,6.6,6.6c-0.5,2.2-18.6,2.3-19.7,0.2
					C29,54.6,28.8,52,30.9,50.7z"/>
			</g>
			<g>
				<path fill="#FDCA93" d="M49.2,54.2c-0.9-1.7-3.3-3.5-6.3-4.8c-3-1.2-6.8-1-9.8,0.1C37.1,53.1,44.1,54.5,49.2,54.2z"/>
			</g>
			<g>
				<path fill="#F26523" d="M49.5,56.1c0.1-0.4,0.1-0.7,0-1.1c-3,0.6-7.6,0.8-10.7,0.6c-3.7-0.2-7.8-0.9-9.4-3.1
					c-0.4,1.3-0.1,2.7,0.4,3.7C30.9,58.4,49.1,58.3,49.5,56.1z"/>
			</g>
		</g>
		<g>
			<g>
				<g>
					<g>
						<g>
							<path fill="none" stroke="#000000" stroke-width="6" stroke-linejoin="round" d="M49.8,18.2c-1-6.3-2.5-14.3-12.7-14.5
								s-21.8,9.4-25,22.4S11,47.9,8.9,51.5c6,7.4,30.5,7.2,37.9,0C53.2,45.2,50.7,24,49.8,18.2z"/>
							<path fill="none" stroke="#000000" stroke-width="6" stroke-linejoin="round" d="M49.8,18.2c-1-6.3-2.5-14.3-12.7-14.5
								s-21.8,9.4-25,22.4S11,47.9,8.9,51.5c6,7.4,30.5,7.2,37.9,0C53.2,45.2,50.7,24,49.8,18.2z"/>
						</g>
						<g>
							<path fill="none" stroke="#000000" stroke-width="6" stroke-linejoin="round" d="M14.7,28C19.3,9.2,37.9,1.7,45.5,7.3
								c-7.2-8-27.8,0.3-32.3,19.1C10,39.4,12,46.7,9.9,50.4C13.8,47.7,10.9,43.7,14.7,28z"/>
							<path fill="none" stroke="#000000" stroke-width="6" stroke-linejoin="round" d="M14.7,28C19.3,9.2,37.9,1.7,45.5,7.3
								c-7.2-8-27.8,0.3-32.3,19.1C10,39.4,12,46.7,9.9,50.4C13.8,47.7,10.9,43.7,14.7,28z"/>
						</g>
						<path fill="none" stroke="#000000" stroke-width="6" stroke-linejoin="round" d="M48.9,13.5c-2.6-2.4-5.4-3.4-9.8-3
							c-5.5,0.5-11.8,6.6-11.4,16.3C28.1,36.4,30.8,46,40,47.2c3.9,0.5,7.4,0.2,9.6-0.6c3.1-9.3,1.1-23.4,0.3-28.4
							C49.6,16.7,49.3,15.1,48.9,13.5z"/>
						<g>
							<path fill="none" stroke="#000000" stroke-width="6" stroke-linejoin="round" d="M46.8,51.5c4.1-4,4.6-14.2,4.1-22.6
								c-0.7,2.9,0.9,14.3-5.8,19.7c-6.3,5.2-30.1,5-36.2,2.7c0,0.1-0.1,0.1-0.1,0.2C14.9,58.9,39.4,58.7,46.8,51.5z"/>
							<path fill="none" stroke="#000000" stroke-width="6" stroke-linejoin="round" d="M46.8,51.5c4.1-4,4.6-14.2,4.1-22.6
								c-0.7,2.9,0.9,14.3-5.8,19.7c-6.3,5.2-30.1,5-36.2,2.7c0,0.1-0.1,0.1-0.1,0.2C14.9,58.9,39.4,58.7,46.8,51.5z"/>
						</g>
					</g>
					<g>
						<g>
							<path fill="none" stroke="#000000" stroke-width="6" stroke-linejoin="round" d="M49.8,18.2c-1-6.3-2.5-14.3-12.7-14.5
								s-21.8,9.4-25,22.4S11,47.9,8.9,51.5c6,7.4,30.5,7.2,37.9,0C53.2,45.2,50.7,24,49.8,18.2z"/>
							<path fill="none" stroke="#000000" stroke-width="6" stroke-linejoin="round" d="M49.8,18.2c-1-6.3-2.5-14.3-12.7-14.5
								s-21.8,9.4-25,22.4S11,47.9,8.9,51.5c6,7.4,30.5,7.2,37.9,0C53.2,45.2,50.7,24,49.8,18.2z"/>
						</g>
						<g>
							<path fill="none" stroke="#000000" stroke-width="6" stroke-linejoin="round" d="M14.7,28C19.3,9.2,37.9,1.7,45.5,7.3
								c-7.2-8-27.8,0.3-32.3,19.1C10,39.4,12,46.7,9.9,50.4C13.8,47.7,10.9,43.7,14.7,28z"/>
							<path fill="none" stroke="#000000" stroke-width="6" stroke-linejoin="round" d="M14.7,28C19.3,9.2,37.9,1.7,45.5,7.3
								c-7.2-8-27.8,0.3-32.3,19.1C10,39.4,12,46.7,9.9,50.4C13.8,47.7,10.9,43.7,14.7,28z"/>
						</g>
						<path fill="none" stroke="#000000" stroke-width="6" stroke-linejoin="round" d="M48.9,13.5c-2.6-2.4-5.4-3.4-9.8-3
							c-5.5,0.5-11.8,6.6-11.4,16.3C28.1,36.4,30.8,46,40,47.2c3.9,0.5,7.4,0.2,9.6-0.6c3.1-9.3,1.1-23.4,0.3-28.4
							C49.6,16.7,49.3,15.1,48.9,13.5z"/>
						<g>
							<path fill="none" stroke="#000000" stroke-width="6" stroke-linejoin="round" d="M46.8,51.5c4.1-4,4.6-14.2,4.1-22.6
								c-0.7,2.9,0.9,14.3-5.8,19.7c-6.3,5.2-30.1,5-36.2,2.7c0,0.1-0.1,0.1-0.1,0.2C14.9,58.9,39.4,58.7,46.8,51.5z"/>
							<path fill="none" stroke="#000000" stroke-width="6" stroke-linejoin="round" d="M46.8,51.5c4.1-4,4.6-14.2,4.1-22.6
								c-0.7,2.9,0.9,14.3-5.8,19.7c-6.3,5.2-30.1,5-36.2,2.7c0,0.1-0.1,0.1-0.1,0.2C14.9,58.9,39.4,58.7,46.8,51.5z"/>
						</g>
					</g>
					<g>
						<g>
							<path fill="none" stroke="#000000" stroke-width="6" stroke-linejoin="round" d="M49.8,18.2c-1-6.3-2.5-14.3-12.7-14.5
								s-21.8,9.4-25,22.4S11,47.9,8.9,51.5c6,7.4,30.5,7.2,37.9,0C53.2,45.2,50.7,24,49.8,18.2z"/>
							<path fill="none" stroke="#000000" stroke-width="6" stroke-linejoin="round" d="M49.8,18.2c-1-6.3-2.5-14.3-12.7-14.5
								s-21.8,9.4-25,22.4S11,47.9,8.9,51.5c6,7.4,30.5,7.2,37.9,0C53.2,45.2,50.7,24,49.8,18.2z"/>
						</g>
						<g>
							<path fill="none" stroke="#000000" stroke-width="6" stroke-linejoin="round" d="M14.7,28C19.3,9.2,37.9,1.7,45.5,7.3
								c-7.2-8-27.8,0.3-32.3,19.1C10,39.4,12,46.7,9.9,50.4C13.8,47.7,10.9,43.7,14.7,28z"/>
							<path fill="none" stroke="#000000" stroke-width="6" stroke-linejoin="round" d="M14.7,28C19.3,9.2,37.9,1.7,45.5,7.3
								c-7.2-8-27.8,0.3-32.3,19.1C10,39.4,12,46.7,9.9,50.4C13.8,47.7,10.9,43.7,14.7,28z"/>
						</g>
						<path fill="none" stroke="#000000" stroke-width="6" stroke-linejoin="round" d="M48.9,13.5c-2.6-2.4-5.4-3.4-9.8-3
							c-5.5,0.5-11.8,6.6-11.4,16.3C28.1,36.4,30.8,46,40,47.2c3.9,0.5,7.4,0.2,9.6-0.6c3.1-9.3,1.1-23.4,0.3-28.4
							C49.6,16.7,49.3,15.1,48.9,13.5z"/>
						<g>
							<path fill="none" stroke="#000000" stroke-width="6" stroke-linejoin="round" d="M46.8,51.5c4.1-4,4.6-14.2,4.1-22.6
								c-0.7,2.9,0.9,14.3-5.8,19.7c-6.3,5.2-30.1,5-36.2,2.7c0,0.1-0.1,0.1-0.1,0.2C14.9,58.9,39.4,58.7,46.8,51.5z"/>
							<path fill="none" stroke="#000000" stroke-width="6" stroke-linejoin="round" d="M46.8,51.5c4.1-4,4.6-14.2,4.1-22.6
								c-0.7,2.9,0.9,14.3-5.8,19.7c-6.3,5.2-30.1,5-36.2,2.7c0,0.1-0.1,0.1-0.1,0.2C14.9,58.9,39.4,58.7,46.8,51.5z"/>
						</g>
					</g>
				</g>
				<g>
					<path fill="none" stroke="#000000" stroke-width="6" stroke-linejoin="round" d="M50.1,18.6c-2.1,0.1-4.1,4.5-4.1,7
						c0,3.8,2.9,6.4,4.5,5.9s7.9-5.8,7.9-7.1C58.4,23.7,51.6,18.6,50.1,18.6z"/>
					<g>
						<path fill="none" stroke="#000000" stroke-width="6" stroke-linejoin="round" d="M49.7,20.1c1.2-1.3,7.6,2.9,7.1,3.7
							c-0.5,0.8-9.8,1.2-9.3,0S48.5,21.3,49.7,20.1z"/>
						<path fill="none" stroke="#000000" stroke-width="6" stroke-linejoin="round" d="M49.7,20.1c1.2-1.3,7.6,2.9,7.1,3.7
							c-0.5,0.8-9.8,1.2-9.3,0S48.5,21.3,49.7,20.1z"/>
					</g>
					<g>
						<path fill="none" stroke="#000000" stroke-width="6" stroke-linejoin="round" d="M58.1,25.1c-3.2,1-9,2-12,1.8
							c0.5,3.1,3,5,4.4,4.6C51.9,31.1,56.8,27,58.1,25.1z"/>
						<path fill="none" stroke="#000000" stroke-width="6" stroke-linejoin="round" d="M58.1,25.1c-3.2,1-9,2-12,1.8
							c0.5,3.1,3,5,4.4,4.6C51.9,31.1,56.8,27,58.1,25.1z"/>
					</g>
				</g>
				<g>
					<path fill="none" stroke="#000000" stroke-width="6" stroke-linejoin="round" d="M32.4,17.1c2.5,1.2,6.6,4.9,8.5,7.5"/>
					<path fill="none" stroke="#000000" stroke-width="6" stroke-linejoin="round" d="M32.7,16.7c0,0,0.1,0,0.2,0
						c0.1,0,0.3,0,0.4-0.1c0.2,0,0.4,0,0.7,0c0.2,0,0.5,0.1,0.8,0.2c0.3,0.1,0.6,0.2,0.9,0.3c0.3,0.1,0.6,0.3,0.9,0.5
						c0.3,0.2,0.6,0.4,0.8,0.7c0.3,0.2,0.6,0.5,0.8,0.8c0.2,0.3,0.5,0.6,0.7,0.8c0.3,0.3,0.5,0.6,0.7,0.9c0.2,0.3,0.4,0.6,0.6,0.8
						c0.2,0.3,0.3,0.6,0.4,0.8c0.3,0.5,0.4,1,0.5,1.3c0.1,0.3,0.1,0.5,0.1,0.5l0,0.2c0.1,0.3-0.1,0.5-0.3,0.6c-0.2,0-0.4,0-0.5-0.2
						c0,0-0.1-0.1-0.3-0.4c-0.2-0.2-0.4-0.6-0.8-1c-0.3-0.4-0.8-0.8-1.2-1.3c-0.5-0.5-1-0.9-1.5-1.4c-0.5-0.5-1.1-0.9-1.6-1.3
						c-0.5-0.4-1-0.8-1.4-1c-0.4-0.3-0.8-0.5-1.1-0.7c-0.3-0.2-0.4-0.2-0.4-0.2c-0.2-0.1-0.3-0.4-0.2-0.6c0.1-0.1,0.2-0.2,0.3-0.2
						L32.7,16.7z"/>
				</g>
				<g>
					<path fill="none" stroke="#000000" stroke-width="6" stroke-linejoin="round" d="M30,22.9c3.3-1,6.6-0.6,9.8,0.3"/>
					<path fill="none" stroke="#000000" stroke-width="6" stroke-linejoin="round" d="M29.8,22.4c0,0,0.1-0.2,0.3-0.4
						c0.2-0.2,0.5-0.5,1-0.8c0.3-0.1,0.5-0.2,0.8-0.3c0.3-0.1,0.6-0.1,0.9-0.1c0.6,0,1.3,0,2,0.1c0.3,0.1,0.7,0.1,1,0.2
						c0.3,0.1,0.6,0.2,0.9,0.2c0.6,0.2,1.1,0.4,1.6,0.6c0.5,0.2,0.8,0.4,1.1,0.6c0.2,0.2,0.4,0.3,0.4,0.3l0.1,0.1
						c0.2,0.2,0.3,0.5,0.1,0.7c-0.1,0.2-0.3,0.3-0.5,0.2c0,0-0.6-0.2-1.5-0.4c-0.4-0.1-1-0.2-1.5-0.3c-0.6-0.1-1.2-0.1-1.8-0.2
						c-0.6,0-1.2,0-1.8,0c-0.3,0-0.6,0-0.8,0.1c-0.2,0-0.5,0.1-0.7,0.1c-0.4,0.1-0.8,0.2-1.1,0.2c-0.3,0.1-0.4,0.1-0.4,0.1
						c-0.2,0.1-0.4-0.1-0.5-0.3c0-0.1,0-0.2,0-0.3L29.8,22.4z"/>
				</g>
			</g>
			<g>
				<g>
					<g>
						<g>
							<path fill="#4F504F" d="M49.8,18.2c-1-6.3-2.5-14.3-12.7-14.5s-21.8,9.4-25,22.4S11,47.9,8.9,51.5c6,7.4,30.5,7.2,37.9,0
								C53.2,45.2,50.7,24,49.8,18.2z"/>
						</g>
						<g>
							<path fill="#706D6D" d="M14.7,28C19.3,9.2,37.9,1.7,45.5,7.3c-7.2-8-27.8,0.3-32.3,19.1C10,39.4,12,46.7,9.9,50.4
								C13.8,47.7,10.9,43.7,14.7,28z"/>
						</g>
						<path fill="#FFFFFF" d="M48.9,13.5c-2.6-2.4-5.4-3.4-9.8-3c-5.5,0.5-11.8,6.6-11.4,16.3C28.1,36.4,30.8,46,40,47.2
							c3.9,0.5,7.4,0.2,9.6-0.6c3.1-9.3,1.1-23.4,0.3-28.4C49.6,16.7,49.3,15.1,48.9,13.5z"/>
						<g opacity="0.5">
							<path fill="#4F504F" d="M46.8,51.5c4.1-4,4.6-14.2,4.1-22.6c-0.7,2.9,0.9,14.3-5.8,19.7c-6.3,5.2-30.1,5-36.2,2.7
								c0,0.1-0.1,0.1-0.1,0.2C14.9,58.9,39.4,58.7,46.8,51.5z"/>
						</g>
					</g>
				</g>
				<g>
					<path fill="#F79420" d="M50.1,18.6c-2.1,0.1-4.1,4.5-4.1,7c0,3.8,2.9,6.4,4.5,5.9s7.9-5.8,7.9-7.1
						C58.4,23.7,51.6,18.6,50.1,18.6z"/>
					<g>
						<path fill="#FDCA93" d="M49.7,20.1c1.2-1.3,7.6,2.9,7.1,3.7c-0.5,0.8-9.8,1.2-9.3,0S48.5,21.3,49.7,20.1z"/>
					</g>
					<g opacity="0.8">
						<path fill="#F26523" d="M58.1,25.1c-3.2,1-9,2-12,1.8c0.5,3.1,3,5,4.4,4.6C51.9,31.1,56.8,27,58.1,25.1z"/>
					</g>
				</g>
				<g>
					<path fill="#231F20" d="M32.7,16.7c0,0,0.1,0,0.2,0c0.1,0,0.3,0,0.4-0.1c0.2,0,0.4,0,0.7,0c0.2,0,0.5,0.1,0.8,0.2
						c0.3,0.1,0.6,0.2,0.9,0.3c0.3,0.1,0.6,0.3,0.9,0.5c0.3,0.2,0.6,0.4,0.8,0.7c0.3,0.2,0.6,0.5,0.8,0.8c0.2,0.3,0.5,0.6,0.7,0.8
						c0.3,0.3,0.5,0.6,0.7,0.9c0.2,0.3,0.4,0.6,0.6,0.8c0.2,0.3,0.3,0.6,0.4,0.8c0.3,0.5,0.4,1,0.5,1.3c0.1,0.3,0.1,0.5,0.1,0.5
						l0,0.2c0.1,0.3-0.1,0.5-0.3,0.6c-0.2,0-0.4,0-0.5-0.2c0,0-0.1-0.1-0.3-0.4c-0.2-0.2-0.4-0.6-0.8-1c-0.3-0.4-0.8-0.8-1.2-1.3
						c-0.5-0.5-1-0.9-1.5-1.4c-0.5-0.5-1.1-0.9-1.6-1.3c-0.5-0.4-1-0.8-1.4-1c-0.4-0.3-0.8-0.5-1.1-0.7c-0.3-0.2-0.4-0.2-0.4-0.2
						c-0.2-0.1-0.3-0.4-0.2-0.6c0.1-0.1,0.2-0.2,0.3-0.2L32.7,16.7z"/>
				</g>
				<g>
					<path fill="#231F20" d="M29.8,22.4c0,0,0.1-0.2,0.3-0.4c0.2-0.2,0.5-0.5,1-0.8c0.3-0.1,0.5-0.2,0.8-0.3
						c0.3-0.1,0.6-0.1,0.9-0.1c0.6,0,1.3,0,2,0.1c0.3,0.1,0.7,0.1,1,0.2c0.3,0.1,0.6,0.2,0.9,0.2c0.6,0.2,1.1,0.4,1.6,0.6
						c0.5,0.2,0.8,0.4,1.1,0.6c0.2,0.2,0.4,0.3,0.4,0.3l0.1,0.1c0.2,0.2,0.3,0.5,0.1,0.7c-0.1,0.2-0.3,0.3-0.5,0.2
						c0,0-0.6-0.2-1.5-0.4c-0.4-0.1-1-0.2-1.5-0.3c-0.6-0.1-1.2-0.1-1.8-0.2c-0.6,0-1.2,0-1.8,0c-0.3,0-0.6,0-0.8,0.1
						c-0.2,0-0.5,0.1-0.7,0.1c-0.4,0.1-0.8,0.2-1.1,0.2c-0.3,0.1-0.4,0.1-0.4,0.1c-0.2,0.1-0.4-0.1-0.5-0.3c0-0.1,0-0.2,0-0.3
						L29.8,22.4z"/>
				</g>
			</g>
		</g>
		<g>
			<g>
				<path d="M11.1,25.9c0,0,0.1,0,0.2-0.1c0.1,0,0.2-0.1,0.2-0.1c0.1,0,0.1,0,0.2-0.1c0.1,0,0.3-0.1,0.4-0.1c0.6-0.1,1.3,0,2,0.3
					c0.8,0.2,1.6,0.6,2.6,1.1c0.9,0.5,2,1.1,3,2.1c1,0.9,1.8,2.1,2.5,3.4c0.4,0.7,0.7,1.4,1,2.2c0.1,0.4,0.3,0.8,0.3,1.3
					c0.1,0.5,0.1,1,0,1.8c-0.1,0.4-0.3,0.9-0.9,1.3l-0.6,0.5c-0.3,0.2-0.7,0.5-1,0.7c-0.7,0.5-1.4,0.9-2.1,1.4
					c-1.4,0.9-2.9,1.7-4.5,2.5c-1.6,0.7-3.2,1.4-5.2,1.7c-1,0.2-2.1,0.3-3.5-0.1c-0.7-0.2-1.5-0.5-2.3-1.2c-0.1-0.1-0.2-0.2-0.3-0.3
					l-0.1-0.1L3.1,44L3,43.9l-0.1-0.1l-0.2-0.3c-0.3-0.5-0.4-0.8-0.6-1.2c-0.5-1.5-0.3-2.7-0.1-3.7c0.2-1,0.5-1.8,0.9-2.5
					c0.7-1.5,1.5-2.7,2.2-3.7c1.6-2.1,3-3.6,4-4.7c0.5-0.5,1-1,1.3-1.2C10.8,26.1,11,25.9,11.1,25.9L11.1,25.9z M12.6,27.9
					c0,0-0.1,0.1-0.3,0.3c-0.2,0.3-0.5,0.7-0.9,1.2c-0.7,1.1-1.7,2.9-2.5,5c-0.4,1.1-0.8,2.2-1.1,3.4c-0.1,0.6-0.2,1.1-0.3,1.6
					c0,0.5,0.1,0.9,0.1,0.8c0,0,0,0-0.1-0.2l0-0.1l0,0l0,0l0.1,0.1c0,0,0.1,0.1-0.1-0.1l0,0l0,0l0,0L7.5,40
					c-0.2-0.1-0.3-0.2-0.2-0.1c0.1,0.1,0.6,0.1,1.2,0c1.2-0.1,2.7-0.5,4.1-0.9c1.5-0.4,2.9-0.9,4.4-1.4c0.7-0.3,1.5-0.5,2.2-0.8
					c0.3-0.1,0.7-0.3,1-0.4c0.1-0.1,0.4-0.2,0.4-0.1c-0.2,0.2-0.3,0.4-0.3,0.4c0,0,0.1-0.2,0.1-0.5c0-0.3,0-0.6,0-0.9
					c-0.1-0.6-0.2-1.3-0.4-1.9c-0.4-1.2-1-2.3-1.7-3.2c-0.7-0.8-1.5-1.4-2.4-1.8c-0.8-0.4-1.6-0.5-2.2-0.6
					C13.2,27.8,12.7,27.8,12.6,27.9c-0.1,0-0.1,0-0.1,0.1c0,0,0,0,0,0C12.5,27.9,12.5,27.9,12.6,27.9C12.6,27.8,12.5,27.9,12.6,27.9
					C12.5,27.9,12.5,27.9,12.6,27.9L12.6,27.9z"/>
				<path fill="#4F504F" d="M11.8,26.9c0.9-0.7,5.3,0.2,7.6,3s3.3,6.9,2.2,7.7C20.5,38.3,8.1,45.2,5.4,42
					C2.6,38.8,9.8,28.5,11.8,26.9z"/>
			</g>
			<g>
				<path fill="#797575" d="M15,29.2c2.6,0,7,5.9,5.4,7.5c-1.6,1.5-9.1,5.2-11.1,3.3C7.2,38.1,11.3,29.2,15,29.2z"/>
			</g>
		</g>
		<g>
			<g>
				<path fill="none" stroke="#010101" stroke-width="6" stroke-miterlimit="10" d="M15.5,53.2c3.1-2,8.2-2.8,12-1.2
					c4.2,1.8,7.1,4.5,6.6,6.6c-0.5,2.2-18.6,2.3-19.7,0.2C13.6,57.2,13.4,54.6,15.5,53.2z"/>
				<path fill="#F79420" d="M15.5,53.2c3.1-2,8.2-2.8,12-1.2c4.2,1.8,7.1,4.5,6.6,6.6c-0.5,2.2-18.6,2.3-19.7,0.2
					C13.6,57.2,13.4,54.6,15.5,53.2z"/>
			</g>
			<g>
				<path fill="#FDCA93" d="M33.8,56.7c-0.9-1.7-3.3-3.5-6.3-4.8c-3-1.2-6.8-1-9.8,0.1C21.8,55.6,28.7,57.1,33.8,56.7z"/>
			</g>
			<g>
				<path fill="#F26523" d="M34.2,58.6c0.1-0.4,0.1-0.7,0-1.1c-3,0.6-7.6,0.8-10.7,0.6c-3.7-0.2-7.8-0.9-9.4-3.1
					c-0.4,1.3-0.1,2.7,0.4,3.7C15.5,61,33.7,60.8,34.2,58.6z"/>
			</g>
		</g>
	</g>
</g>
</svg>
