<?xml version="1.0" encoding="utf-8"?>
<!-- SPDX-License-Identifier: CC-BY-2.0 -->
<!-- Copyright 2015 Game Art Guppy LLC -->
<!-- Generator: Adobe Illustrator 17.1.0, SVG Export Plug-In . SVG Version: 6.00 Build 0)  -->
<!DOCTYPE svg PUBLIC "-//W3C//DTD SVG 1.1//EN" "http://www.w3.org/Graphics/SVG/1.1/DTD/svg11.dtd">
<svg version="1.1" xmlns="http://www.w3.org/2000/svg" xmlns:xlink="http://www.w3.org/1999/xlink" x="0px" y="0px"
	 viewBox="0 0 72 64" enable-background="new 0 0 72 64" xml:space="preserve">
<g id="penguin_x5F_walk03">
	<g id="walk_3">
		<g>
			<g>
				<path fill="none" stroke="#010101" stroke-width="6" stroke-miterlimit="10" d="M26.7,53.3c3.1-2,8.2-2.8,12-1.2
					c4.2,1.8,7.1,4.5,6.6,6.6C44.9,61,26.7,61.1,25.7,59C24.9,57.3,24.6,54.7,26.7,53.3z"/>
				<path fill="#F79420" d="M26.7,53.3c3.1-2,8.2-2.8,12-1.2c4.2,1.8,7.1,4.5,6.6,6.6C44.9,61,26.7,61.1,25.7,59
					C24.9,57.3,24.6,54.7,26.7,53.3z"/>
			</g>
			<g>
				<path fill="#FDCA93" d="M45.1,56.9c-0.9-1.7-3.3-3.5-6.3-4.8c-3-1.2-6.8-1-9.8,0.1C33,55.8,39.9,57.2,45.1,56.9z"/>
			</g>
			<g>
				<path fill="#F26523" d="M45.4,58.8c0.1-0.4,0.1-0.7,0-1.1c-3,0.6-7.6,0.8-10.7,0.6c-3.7-0.2-7.8-0.9-9.4-3.1
					c-0.4,1.3-0.1,2.7,0.4,3.7C26.7,61.1,44.9,61,45.4,58.8z"/>
			</g>
		</g>
		<g>
			<g>
				<g>
					<g>
						<g>
							<path fill="none" stroke="#000000" stroke-width="6" stroke-linejoin="round" d="M47.7,18.4c-1-6.3-2.5-14.3-12.7-14.5
								s-21.8,9.4-25,22.4S8.9,48.1,6.8,51.8c6,7.4,30.5,7.2,37.9,0C51.2,45.5,48.7,24.2,47.7,18.4z"/>
							<path fill="none" stroke="#000000" stroke-width="6" stroke-linejoin="round" d="M47.7,18.4c-1-6.3-2.5-14.3-12.7-14.5
								s-21.8,9.4-25,22.4S8.9,48.1,6.8,51.8c6,7.4,30.5,7.2,37.9,0C51.2,45.5,48.7,24.2,47.7,18.4z"/>
						</g>
						<g>
							<path fill="none" stroke="#000000" stroke-width="6" stroke-linejoin="round" d="M12.7,28.2C17.2,9.5,35.8,1.9,43.4,7.6
								c-7.2-8-27.8,0.3-32.3,19.1C7.9,39.6,9.9,46.9,7.8,50.6C11.7,47.9,8.9,43.9,12.7,28.2z"/>
							<path fill="none" stroke="#000000" stroke-width="6" stroke-linejoin="round" d="M12.7,28.2C17.2,9.5,35.8,1.9,43.4,7.6
								c-7.2-8-27.8,0.3-32.3,19.1C7.9,39.6,9.9,46.9,7.8,50.6C11.7,47.9,8.9,43.9,12.7,28.2z"/>
						</g>
						<path fill="none" stroke="#000000" stroke-width="6" stroke-linejoin="round" d="M46.8,13.7c-2.6-2.4-5.4-3.4-9.8-3
							c-5.5,0.5-11.8,6.6-11.4,16.3c0.4,9.6,3.2,19.3,12.3,20.5c3.9,0.5,7.4,0.2,9.6-0.6c3.1-9.3,1.1-23.4,0.3-28.4
							C47.5,16.9,47.2,15.3,46.8,13.7z"/>
						<g>
							<path fill="none" stroke="#000000" stroke-width="6" stroke-linejoin="round" d="M44.7,51.7c4.1-4,4.6-14.2,4.1-22.6
								c-0.7,2.9,0.9,14.3-5.8,19.7c-6.3,5.2-30.1,5-36.2,2.7c0,0.1-0.1,0.1-0.1,0.2C12.8,59.2,37.3,58.9,44.7,51.7z"/>
							<path fill="none" stroke="#000000" stroke-width="6" stroke-linejoin="round" d="M44.7,51.7c4.1-4,4.6-14.2,4.1-22.6
								c-0.7,2.9,0.9,14.3-5.8,19.7c-6.3,5.2-30.1,5-36.2,2.7c0,0.1-0.1,0.1-0.1,0.2C12.8,59.2,37.3,58.9,44.7,51.7z"/>
						</g>
					</g>
					<g>
						<g>
							<path fill="none" stroke="#000000" stroke-width="6" stroke-linejoin="round" d="M47.7,18.4c-1-6.3-2.5-14.3-12.7-14.5
								s-21.8,9.4-25,22.4S8.9,48.1,6.8,51.8c6,7.4,30.5,7.2,37.9,0C51.2,45.5,48.7,24.2,47.7,18.4z"/>
							<path fill="none" stroke="#000000" stroke-width="6" stroke-linejoin="round" d="M47.7,18.4c-1-6.3-2.5-14.3-12.7-14.5
								s-21.8,9.4-25,22.4S8.9,48.1,6.8,51.8c6,7.4,30.5,7.2,37.9,0C51.2,45.5,48.7,24.2,47.7,18.4z"/>
						</g>
						<g>
							<path fill="none" stroke="#000000" stroke-width="6" stroke-linejoin="round" d="M12.7,28.2C17.2,9.5,35.8,1.9,43.4,7.6
								c-7.2-8-27.8,0.3-32.3,19.1C7.9,39.6,9.9,46.9,7.8,50.6C11.7,47.9,8.9,43.9,12.7,28.2z"/>
							<path fill="none" stroke="#000000" stroke-width="6" stroke-linejoin="round" d="M12.7,28.2C17.2,9.5,35.8,1.9,43.4,7.6
								c-7.2-8-27.8,0.3-32.3,19.1C7.9,39.6,9.9,46.9,7.8,50.6C11.7,47.9,8.9,43.9,12.7,28.2z"/>
						</g>
						<path fill="none" stroke="#000000" stroke-width="6" stroke-linejoin="round" d="M46.8,13.7c-2.6-2.4-5.4-3.4-9.8-3
							c-5.5,0.5-11.8,6.6-11.4,16.3c0.4,9.6,3.2,19.3,12.3,20.5c3.9,0.5,7.4,0.2,9.6-0.6c3.1-9.3,1.1-23.4,0.3-28.4
							C47.5,16.9,47.2,15.3,46.8,13.7z"/>
						<g>
							<path fill="none" stroke="#000000" stroke-width="6" stroke-linejoin="round" d="M44.7,51.7c4.1-4,4.6-14.2,4.1-22.6
								c-0.7,2.9,0.9,14.3-5.8,19.7c-6.3,5.2-30.1,5-36.2,2.7c0,0.1-0.1,0.1-0.1,0.2C12.8,59.2,37.3,58.9,44.7,51.7z"/>
							<path fill="none" stroke="#000000" stroke-width="6" stroke-linejoin="round" d="M44.7,51.7c4.1-4,4.6-14.2,4.1-22.6
								c-0.7,2.9,0.9,14.3-5.8,19.7c-6.3,5.2-30.1,5-36.2,2.7c0,0.1-0.1,0.1-0.1,0.2C12.8,59.2,37.3,58.9,44.7,51.7z"/>
						</g>
					</g>
					<g>
						<g>
							<path fill="none" stroke="#000000" stroke-width="6" stroke-linejoin="round" d="M47.7,18.4c-1-6.3-2.5-14.3-12.7-14.5
								s-21.8,9.4-25,22.4S8.9,48.1,6.8,51.8c6,7.4,30.5,7.2,37.9,0C51.2,45.5,48.7,24.2,47.7,18.4z"/>
							<path fill="none" stroke="#000000" stroke-width="6" stroke-linejoin="round" d="M47.7,18.4c-1-6.3-2.5-14.3-12.7-14.5
								s-21.8,9.4-25,22.4S8.9,48.1,6.8,51.8c6,7.4,30.5,7.2,37.9,0C51.2,45.5,48.7,24.2,47.7,18.4z"/>
						</g>
						<g>
							<path fill="none" stroke="#000000" stroke-width="6" stroke-linejoin="round" d="M12.7,28.2C17.2,9.5,35.8,1.9,43.4,7.6
								c-7.2-8-27.8,0.3-32.3,19.1C7.9,39.6,9.9,46.9,7.8,50.6C11.7,47.9,8.9,43.9,12.7,28.2z"/>
							<path fill="none" stroke="#000000" stroke-width="6" stroke-linejoin="round" d="M12.7,28.2C17.2,9.5,35.8,1.9,43.4,7.6
								c-7.2-8-27.8,0.3-32.3,19.1C7.9,39.6,9.9,46.9,7.8,50.6C11.7,47.9,8.9,43.9,12.7,28.2z"/>
						</g>
						<path fill="none" stroke="#000000" stroke-width="6" stroke-linejoin="round" d="M46.8,13.7c-2.6-2.4-5.4-3.4-9.8-3
							c-5.5,0.5-11.8,6.6-11.4,16.3c0.4,9.6,3.2,19.3,12.3,20.5c3.9,0.5,7.4,0.2,9.6-0.6c3.1-9.3,1.1-23.4,0.3-28.4
							C47.5,16.9,47.2,15.3,46.8,13.7z"/>
						<g>
							<path fill="none" stroke="#000000" stroke-width="6" stroke-linejoin="round" d="M44.7,51.7c4.1-4,4.6-14.2,4.1-22.6
								c-0.7,2.9,0.9,14.3-5.8,19.7c-6.3,5.2-30.1,5-36.2,2.7c0,0.1-0.1,0.1-0.1,0.2C12.8,59.2,37.3,58.9,44.7,51.7z"/>
							<path fill="none" stroke="#000000" stroke-width="6" stroke-linejoin="round" d="M44.7,51.7c4.1-4,4.6-14.2,4.1-22.6
								c-0.7,2.9,0.9,14.3-5.8,19.7c-6.3,5.2-30.1,5-36.2,2.7c0,0.1-0.1,0.1-0.1,0.2C12.8,59.2,37.3,58.9,44.7,51.7z"/>
						</g>
					</g>
				</g>
				<g>
					<g>
						<path fill="none" stroke="#000000" stroke-width="6" stroke-linejoin="round" d="M35.1,12.5c0,0,0.2,0,0.5,0
							c0.3,0,0.9,0.1,1.6,0.2c0.7,0.2,1.4,0.5,2.2,1c0.8,0.5,1.5,1.2,2.2,2.1c0.7,0.9,1.2,2,1.4,3.3c0.1,0.3,0.1,0.6,0.2,1
							c0,0.3,0,0.7,0.1,1l0,0.5l0,0.3l0,0.1l0,0l0,0.1l0,0l0,0.1L43,22.8l0,0.2l-0.1,0.3c-0.3,0.8-0.6,1.5-1,2.1
							c-0.4,0.6-0.9,1.2-1.5,1.8c-1.1,1.1-2.6,2-4.3,2.4l-0.7,0.1c-0.2,0-0.5,0-0.7,0l-0.7,0c-0.2,0-0.5-0.1-0.7-0.1l-0.7-0.1
							c-0.2-0.1-0.4-0.2-0.6-0.2c-0.4-0.2-0.9-0.3-1.2-0.6c-0.8-0.4-1.4-1-2-1.6c-0.3-0.3-0.5-0.6-0.8-0.9l-0.4-0.5l-0.3-0.6
							c-0.3-0.3-0.8-1.6-0.9-2.4c-0.2-0.8-0.2-1.7-0.1-2.5c0.2-1.6,0.7-3,1.5-4c0.8-1,1.7-1.7,2.6-2.2c0.9-0.5,1.7-0.8,2.4-1
							c0.3-0.1,0.7-0.2,0.9-0.2c0.3-0.1,0.5-0.1,0.7-0.1C34.8,12.6,35,12.6,35.1,12.5L35.1,12.5z M35.4,14.6L35.4,14.6
							c0,0-0.1,0.1-0.4,0.2c-0.1,0-0.3,0.1-0.4,0.2c-0.2,0.1-0.3,0.2-0.5,0.4c-0.4,0.3-0.8,0.8-1.1,1.4c-0.4,0.6-0.7,1.3-1,2
							c-0.3,0.7-0.6,1.4-0.7,2.1c-0.1,0.3-0.1,0.7,0,1c0,0.2,0.1,0.3,0.1,0.4c0,0.1,0,0.1,0,0.2l0.2,0.4l0.1,0.2l0.1,0.1l0,0.1l0,0
							c0.1,0.1-0.1-0.2-0.1-0.2l0,0l0.2,0.3l0.4,0.6c0.3,0.3,0.6,0.7,0.9,1c0.7,0.5,1.4,0.8,2.4,0.8c0.9,0,2-0.4,2.9-1
							c0.5-0.3,0.9-0.7,1.2-1.1c0.4-0.4,0.7-0.9,0.9-1.2l0.1-0.1l0.1-0.2l0.1-0.4l0-0.1l0,0c0,0,0-0.1,0,0.1l0,0l0,0l0-0.2l0.1-0.4
							c0-0.3,0-0.5,0.1-0.8c0-0.3,0-0.5,0-0.8c-0.1-1-0.4-2-0.9-2.8c-0.4-0.8-1-1.4-1.7-1.8c-0.6-0.4-1.2-0.5-1.7-0.5
							c-0.5,0-0.8,0-1.1,0.1C35.6,14.6,35.4,14.6,35.4,14.6z"/>
						<path fill="none" stroke="#000000" stroke-width="6" stroke-linejoin="round" d="M35.2,13.6c4.4-0.7,7.6,4,6.9,8.3
							s-8,9.5-12.4,2.5C26.7,19.7,31.4,14.2,35.2,13.6z"/>
					</g>
					<ellipse fill="none" stroke="#000000" stroke-width="6" stroke-linejoin="round" cx="39.6" cy="22.2" rx="1.7" ry="1.9"/>
				</g>
				<g>
					<path fill="none" stroke="#000000" stroke-width="6" stroke-linejoin="round" d="M48,18.9c-2.1,0.1-4.1,4.5-4.1,7
						c0,3.8,2.9,6.4,4.5,5.9c1.6-0.5,7.9-5.8,7.9-7.1C56.3,24,49.6,18.8,48,18.9z"/>
					<g>
						<path fill="none" stroke="#000000" stroke-width="6" stroke-linejoin="round" d="M47.6,20.3c1.2-1.3,7.6,2.9,7.1,3.7
							c-0.5,0.8-9.8,1.2-9.3,0C45.9,22.8,46.5,21.6,47.6,20.3z"/>
						<path fill="none" stroke="#000000" stroke-width="6" stroke-linejoin="round" d="M47.6,20.3c1.2-1.3,7.6,2.9,7.1,3.7
							c-0.5,0.8-9.8,1.2-9.3,0C45.9,22.8,46.5,21.6,47.6,20.3z"/>
					</g>
					<g>
						<path fill="none" stroke="#000000" stroke-width="6" stroke-linejoin="round" d="M56,25.3c-3.2,1-9,2-12,1.8
							c0.5,3.1,3,5,4.4,4.6C49.9,31.3,54.7,27.2,56,25.3z"/>
						<path fill="none" stroke="#000000" stroke-width="6" stroke-linejoin="round" d="M56,25.3c-3.2,1-9,2-12,1.8
							c0.5,3.1,3,5,4.4,4.6C49.9,31.3,54.7,27.2,56,25.3z"/>
					</g>
				</g>
			</g>
			<g>
				<g>
					<g>
						<g>
							<path fill="#4F504F" d="M47.7,18.4c-1-6.3-2.5-14.3-12.7-14.5s-21.8,9.4-25,22.4S8.9,48.1,6.8,51.8c6,7.4,30.5,7.2,37.9,0
								C51.2,45.5,48.7,24.2,47.7,18.4z"/>
						</g>
						<g>
							<path fill="#706D6D" d="M12.7,28.2C17.2,9.5,35.8,1.9,43.4,7.6c-7.2-8-27.8,0.3-32.3,19.1C7.9,39.6,9.9,46.9,7.8,50.6
								C11.7,47.9,8.9,43.9,12.7,28.2z"/>
						</g>
						<path fill="#FFFFFF" d="M46.8,13.7c-2.6-2.4-5.4-3.4-9.8-3c-5.5,0.5-11.8,6.6-11.4,16.3c0.4,9.6,3.2,19.3,12.3,20.5
							c3.9,0.5,7.4,0.2,9.6-0.6c3.1-9.3,1.1-23.4,0.3-28.4C47.5,16.9,47.2,15.3,46.8,13.7z"/>
						<g opacity="0.5">
							<path fill="#4F504F" d="M44.7,51.7c4.1-4,4.6-14.2,4.1-22.6c-0.7,2.9,0.9,14.3-5.8,19.7c-6.3,5.2-30.1,5-36.2,2.7
								c0,0.1-0.1,0.1-0.1,0.2C12.8,59.2,37.3,58.9,44.7,51.7z"/>
						</g>
					</g>
				</g>
				<g>
					<g>
						<path d="M35.1,12.5c0,0,0.2,0,0.5,0c0.3,0,0.9,0.1,1.6,0.2c0.7,0.2,1.4,0.5,2.2,1c0.8,0.5,1.5,1.2,2.2,2.1
							c0.7,0.9,1.2,2,1.4,3.3c0.1,0.3,0.1,0.6,0.2,1c0,0.3,0,0.7,0.1,1l0,0.5l0,0.3l0,0.1l0,0l0,0.1l0,0l0,0.1L43,22.8l0,0.2
							l-0.1,0.3c-0.3,0.8-0.6,1.5-1,2.1c-0.4,0.6-0.9,1.2-1.5,1.8c-1.1,1.1-2.6,2-4.3,2.4l-0.7,0.1c-0.2,0-0.5,0-0.7,0l-0.7,0
							c-0.2,0-0.5-0.1-0.7-0.1l-0.7-0.1c-0.2-0.1-0.4-0.2-0.6-0.2c-0.4-0.2-0.9-0.3-1.2-0.6c-0.8-0.4-1.4-1-2-1.6
							c-0.3-0.3-0.5-0.6-0.8-0.9l-0.4-0.5l-0.3-0.6c-0.3-0.3-0.8-1.6-0.9-2.4c-0.2-0.8-0.2-1.7-0.1-2.5c0.2-1.6,0.7-3,1.5-4
							c0.8-1,1.7-1.7,2.6-2.2c0.9-0.5,1.7-0.8,2.4-1c0.3-0.1,0.7-0.2,0.9-0.2c0.3-0.1,0.5-0.1,0.7-0.1C34.8,12.6,35,12.6,35.1,12.5
							L35.1,12.5z M35.4,14.6L35.4,14.6c0,0-0.1,0.1-0.4,0.2c-0.1,0-0.3,0.1-0.4,0.2c-0.2,0.1-0.3,0.2-0.5,0.4
							c-0.4,0.3-0.8,0.8-1.1,1.4c-0.4,0.6-0.7,1.3-1,2c-0.3,0.7-0.6,1.4-0.7,2.1c-0.1,0.3-0.1,0.7,0,1c0,0.2,0.1,0.3,0.1,0.4
							c0,0.1,0,0.1,0,0.2l0.2,0.4l0.1,0.2l0.1,0.1l0,0.1l0,0c0.1,0.1-0.1-0.2-0.1-0.2l0,0l0.2,0.3l0.4,0.6c0.3,0.3,0.6,0.7,0.9,1
							c0.7,0.5,1.4,0.8,2.4,0.8c0.9,0,2-0.4,2.9-1c0.5-0.3,0.9-0.7,1.2-1.1c0.4-0.4,0.7-0.9,0.9-1.2l0.1-0.1l0.1-0.2l0.1-0.4l0-0.1
							l0,0c0,0,0-0.1,0,0.1l0,0l0,0l0-0.2l0.1-0.4c0-0.3,0-0.5,0.1-0.8c0-0.3,0-0.5,0-0.8c-0.1-1-0.4-2-0.9-2.8
							c-0.4-0.8-1-1.4-1.7-1.8c-0.6-0.4-1.2-0.5-1.7-0.5c-0.5,0-0.8,0-1.1,0.1C35.6,14.6,35.4,14.6,35.4,14.6z"/>
						<path fill="#FFFFFF" d="M35.2,13.6c4.4-0.7,7.6,4,6.9,8.3s-8,9.5-12.4,2.5C26.7,19.7,31.4,14.2,35.2,13.6z"/>
					</g>
					<ellipse cx="39.6" cy="22.2" rx="1.7" ry="1.9"/>
				</g>
				<g>
					<path fill="#F79420" d="M48,18.9c-2.1,0.1-4.1,4.5-4.1,7c0,3.8,2.9,6.4,4.5,5.9c1.6-0.5,7.9-5.8,7.9-7.1
						C56.3,24,49.6,18.8,48,18.9z"/>
					<g>
						<path fill="#FDCA93" d="M47.6,20.3c1.2-1.3,7.6,2.9,7.1,3.7c-0.5,0.8-9.8,1.2-9.3,0C45.9,22.8,46.5,21.6,47.6,20.3z"/>
					</g>
					<g opacity="0.8">
						<path fill="#F26523" d="M56,25.3c-3.2,1-9,2-12,1.8c0.5,3.1,3,5,4.4,4.6C49.9,31.3,54.7,27.2,56,25.3z"/>
					</g>
				</g>
			</g>
		</g>
		<g>
			<g>
				<path fill="none" stroke="#010101" stroke-width="6" stroke-miterlimit="10" d="M19.4,51.9c3.1-2,8.2-2.8,12-1.2
					c4.2,1.8,7.1,4.5,6.6,6.6c-0.5,2.2-18.6,2.3-19.7,0.2C17.5,55.9,17.3,53.2,19.4,51.9z"/>
				<path fill="#F79420" d="M19.4,51.9c3.1-2,8.2-2.8,12-1.2c4.2,1.8,7.1,4.5,6.6,6.6c-0.5,2.2-18.6,2.3-19.7,0.2
					C17.5,55.9,17.3,53.2,19.4,51.9z"/>
			</g>
			<g>
				<path fill="#FDCA93" d="M37.7,55.4c-0.9-1.7-3.3-3.5-6.3-4.8c-3-1.2-6.8-1-9.8,0.1C25.6,54.3,32.6,55.8,37.7,55.4z"/>
			</g>
			<g>
				<path fill="#F26523" d="M38,57.3c0.1-0.4,0.1-0.7,0-1.1c-3,0.6-7.6,0.8-10.7,0.6c-3.7-0.2-7.8-0.9-9.4-3.1
					c-0.4,1.3-0.1,2.7,0.4,3.7C19.4,59.7,37.5,59.5,38,57.3z"/>
			</g>
		</g>
		<g>
			<g>
				<path d="M13.6,34.5c0,0,0-0.1,0-0.2c0-0.1,0-0.2,0-0.3c0-0.1,0-0.1,0.1-0.2c0-0.1,0.1-0.3,0.2-0.4c0.3-0.5,0.7-1,1.3-1.6
					c0.6-0.5,1.4-1.1,2.3-1.6c0.9-0.5,2-1.1,3.4-1.4c1.3-0.3,2.8-0.4,4.3-0.3c0.8,0.1,1.5,0.2,2.4,0.4c0.4,0.1,0.8,0.2,1.3,0.4
					c0.4,0.2,0.9,0.4,1.5,1c0.3,0.3,0.6,0.7,0.7,1.5l0.1,0.8c0,0.4,0,0.8,0.1,1.2c0,0.8,0,1.6,0,2.5c0,1.7-0.1,3.4-0.3,5.1
					c-0.2,1.7-0.6,3.5-1.4,5.3c-0.4,0.9-0.9,1.9-1.9,2.9c-0.5,0.5-1.3,1-2.2,1.3C25.1,51,25,51,24.8,51l-0.2,0l-0.1,0l-0.2,0l-0.1,0
					l-0.4,0c-0.6,0-0.9-0.1-1.3-0.2c-1.5-0.4-2.4-1.2-3.1-1.9c-0.7-0.7-1.2-1.4-1.7-2.1c-0.9-1.4-1.5-2.7-1.9-3.9
					c-0.9-2.4-1.5-4.5-1.8-6c-0.2-0.7-0.3-1.3-0.4-1.8c-0.1-0.4-0.1-0.7-0.1-0.7L13.6,34.5z M16.1,34.4c0,0,0,0.1,0.1,0.4
					c0.1,0.3,0.3,0.8,0.6,1.4c0.6,1.2,1.5,3,2.9,4.8c0.7,0.9,1.5,1.9,2.3,2.7c0.4,0.4,0.8,0.8,1.2,1.1c0.4,0.3,0.7,0.4,0.7,0.4
					c0,0,0,0-0.2,0l-0.1,0l0,0l0,0l0.1,0c-0.1,0,0.1,0-0.1,0l0,0l0,0l0,0l-0.1,0c-0.2,0.1-0.3,0.1-0.2,0.1c0.1-0.1,0.4-0.5,0.7-1
					c0.5-1.1,1-2.5,1.5-3.9c0.4-1.4,0.8-3,1.2-4.5c0.2-0.8,0.3-1.5,0.5-2.3c0.1-0.4,0.1-0.7,0.2-1.1c0-0.2,0.1-0.4,0.1-0.4
					c0,0.3,0.2,0.4,0.2,0.4c0.1,0-0.1-0.2-0.3-0.4c-0.2-0.2-0.5-0.3-0.8-0.5c-0.6-0.3-1.2-0.5-1.8-0.6c-1.2-0.3-2.5-0.4-3.6-0.3
					c-1.1,0.1-2,0.5-2.8,1c-0.8,0.5-1.3,1.1-1.7,1.6C16.3,33.8,16.1,34.2,16.1,34.4z"/>
				<path fill="#4F504F" d="M14.8,34.5c-0.1-1.1,3-4.3,6.6-4.8s7.6,0.9,7.7,2.2c0,1.3-0.9,15.5-5,16.1
					C19.9,48.7,15.1,37.1,14.8,34.5z"/>
			</g>
			<g>
				<path fill="#797575" d="M18.5,33c1.4-2.2,8.7-2.7,9.2-0.5c0.5,2.1-0.6,10.5-3.2,11.2S16.5,36.1,18.5,33z"/>
			</g>
		</g>
	</g>
</g>
</svg>
