<?xml version="1.0" encoding="utf-8"?>
<!-- SPDX-License-Identifier: CC-BY-2.0 -->
<!-- Copyright 2015 Game Art Guppy LLC -->
<!-- Generator: Adobe Illustrator 17.1.0, SVG Export Plug-In . SVG Version: 6.00 Build 0)  -->
<!DOCTYPE svg PUBLIC "-//W3C//DTD SVG 1.1//EN" "http://www.w3.org/Graphics/SVG/1.1/DTD/svg11.dtd">
<svg version="1.1" xmlns="http://www.w3.org/2000/svg" xmlns:xlink="http://www.w3.org/1999/xlink" x="0px" y="0px"
	 viewBox="0 0 72 64" enable-background="new 0 0 72 64" xml:space="preserve">
<g id="penguin_x5F_slide02">
	<g id="walk_1_3_">
		<g>
			<g>
				<g>
					<g>
						<g>
							<path fill="none" stroke="#000000" stroke-width="6" stroke-linejoin="round" d="M62.2,32.2c-3.6-9.5-16.5-13.4-29.6-11.4
								S15,25.5,10.8,24.9C6.3,33.3,12.1,52,22.4,57C41.2,66,70.2,53.4,62.2,32.2z"/>
							<path fill="none" stroke="#000000" stroke-width="6" stroke-linejoin="round" d="M62.2,32.2c-3.6-9.5-16.5-13.4-29.6-11.4
								S15,25.5,10.8,24.9C6.3,33.3,12.1,52,22.4,57C41.2,66,70.2,53.4,62.2,32.2z"/>
						</g>
						<g>
							<path fill="none" stroke="#000000" stroke-width="6" stroke-linejoin="round" d="M30.7,24.6c13.2-2,26,1.8,29.6,11.4
								c2.3,6,1.4,8.4-1.1,12.8c3.5-4.6,5.5-7.9,2.7-15.2C58.3,24,45.5,20.2,32.3,22.2c-13.2,2-15.3,3.1-20.9,3.6
								C13.7,26.9,18.2,27.1,30.7,24.6z"/>
							<path fill="none" stroke="#000000" stroke-width="6" stroke-linejoin="round" d="M30.7,24.6c13.2-2,26,1.8,29.6,11.4
								c2.3,6,1.4,8.4-1.1,12.8c3.5-4.6,5.5-7.9,2.7-15.2C58.3,24,45.5,20.2,32.3,22.2c-13.2,2-15.3,3.1-20.9,3.6
								C13.7,26.9,18.2,27.1,30.7,24.6z"/>
						</g>
						<path fill="none" stroke="#000000" stroke-width="6" stroke-linejoin="round" d="M62.2,32.2c-0.7-1.8-1.7-3.3-2.9-4.7
							c-4.5-1.7-10.5,0-15.5,2.3c-8,3.7-21.4,17-21.3,27.2C41.2,66,70.2,53.4,62.2,32.2z"/>
						<g>
							<path fill="none" stroke="#000000" stroke-width="6" stroke-linejoin="round" d="M62.8,44c-6.8,6.2-18.7,9.3-30.9,7.5
								C16.8,49.2,11.3,35.7,9.7,28.2c-2,9.2,3.6,24.4,12.7,28.8C37.4,64.1,58.8,57.6,62.8,44z"/>
							<path fill="none" stroke="#000000" stroke-width="6" stroke-linejoin="round" d="M62.8,44c-6.8,6.2-18.7,9.3-30.9,7.5
								C16.8,49.2,11.3,35.7,9.7,28.2c-2,9.2,3.6,24.4,12.7,28.8C37.4,64.1,58.8,57.6,62.8,44z"/>
						</g>
					</g>
					<g>
						<g>
							<path fill="none" stroke="#000000" stroke-width="6" stroke-linejoin="round" d="M62.2,32.2c-3.6-9.5-16.5-13.4-29.6-11.4
								S15,25.5,10.8,24.9C6.3,33.3,12.1,52,22.4,57C41.2,66,70.2,53.4,62.2,32.2z"/>
							<path fill="none" stroke="#000000" stroke-width="6" stroke-linejoin="round" d="M62.2,32.2c-3.6-9.5-16.5-13.4-29.6-11.4
								S15,25.5,10.8,24.9C6.3,33.3,12.1,52,22.4,57C41.2,66,70.2,53.4,62.2,32.2z"/>
						</g>
						<g>
							<path fill="none" stroke="#000000" stroke-width="6" stroke-linejoin="round" d="M30.7,24.6c13.2-2,26,1.8,29.6,11.4
								c2.3,6,1.4,8.4-1.1,12.8c3.5-4.6,5.5-7.9,2.7-15.2C58.3,24,45.5,20.2,32.3,22.2c-13.2,2-15.3,3.1-20.9,3.6
								C13.7,26.9,18.2,27.1,30.7,24.6z"/>
							<path fill="none" stroke="#000000" stroke-width="6" stroke-linejoin="round" d="M30.7,24.6c13.2-2,26,1.8,29.6,11.4
								c2.3,6,1.4,8.4-1.1,12.8c3.5-4.6,5.5-7.9,2.7-15.2C58.3,24,45.5,20.2,32.3,22.2c-13.2,2-15.3,3.1-20.9,3.6
								C13.7,26.9,18.2,27.1,30.7,24.6z"/>
						</g>
						<path fill="none" stroke="#000000" stroke-width="6" stroke-linejoin="round" d="M62.2,32.2c-0.7-1.8-1.7-3.3-2.9-4.7
							c-4.5-1.7-10.5,0-15.5,2.3c-8,3.7-21.4,17-21.3,27.2C41.2,66,70.2,53.4,62.2,32.2z"/>
						<g>
							<path fill="none" stroke="#000000" stroke-width="6" stroke-linejoin="round" d="M62.8,44c-6.8,6.2-18.7,9.3-30.9,7.5
								C16.8,49.2,11.3,35.7,9.7,28.2c-2,9.2,3.6,24.4,12.7,28.8C37.4,64.1,58.8,57.6,62.8,44z"/>
							<path fill="none" stroke="#000000" stroke-width="6" stroke-linejoin="round" d="M62.8,44c-6.8,6.2-18.7,9.3-30.9,7.5
								C16.8,49.2,11.3,35.7,9.7,28.2c-2,9.2,3.6,24.4,12.7,28.8C37.4,64.1,58.8,57.6,62.8,44z"/>
						</g>
					</g>
					<g>
						<g>
							<path fill="none" stroke="#000000" stroke-width="6" stroke-linejoin="round" d="M62.2,32.2c-3.6-9.5-16.5-13.4-29.6-11.4
								S15,25.5,10.8,24.9C6.3,33.3,12.1,52,22.4,57C41.2,66,70.2,53.4,62.2,32.2z"/>
							<path fill="none" stroke="#000000" stroke-width="6" stroke-linejoin="round" d="M62.2,32.2c-3.6-9.5-16.5-13.4-29.6-11.4
								S15,25.5,10.8,24.9C6.3,33.3,12.1,52,22.4,57C41.2,66,70.2,53.4,62.2,32.2z"/>
						</g>
						<g>
							<path fill="none" stroke="#000000" stroke-width="6" stroke-linejoin="round" d="M30.7,24.6c13.2-2,26,1.8,29.6,11.4
								c2.3,6,1.4,8.4-1.1,12.8c3.5-4.6,5.5-7.9,2.7-15.2C58.3,24,45.5,20.2,32.3,22.2c-13.2,2-15.3,3.1-20.9,3.6
								C13.7,26.9,18.2,27.1,30.7,24.6z"/>
							<path fill="none" stroke="#000000" stroke-width="6" stroke-linejoin="round" d="M30.7,24.6c13.2-2,26,1.8,29.6,11.4
								c2.3,6,1.4,8.4-1.1,12.8c3.5-4.6,5.5-7.9,2.7-15.2C58.3,24,45.5,20.2,32.3,22.2c-13.2,2-15.3,3.1-20.9,3.6
								C13.7,26.9,18.2,27.1,30.7,24.6z"/>
						</g>
						<path fill="none" stroke="#000000" stroke-width="6" stroke-linejoin="round" d="M62.2,32.2c-0.7-1.8-1.7-3.3-2.9-4.7
							c-4.5-1.7-10.5,0-15.5,2.3c-8,3.7-21.4,17-21.3,27.2C41.2,66,70.2,53.4,62.2,32.2z"/>
						<g>
							<path fill="none" stroke="#000000" stroke-width="6" stroke-linejoin="round" d="M62.8,44c-6.8,6.2-18.7,9.3-30.9,7.5
								C16.8,49.2,11.3,35.7,9.7,28.2c-2,9.2,3.6,24.4,12.7,28.8C37.4,64.1,58.8,57.6,62.8,44z"/>
							<path fill="none" stroke="#000000" stroke-width="6" stroke-linejoin="round" d="M62.8,44c-6.8,6.2-18.7,9.3-30.9,7.5
								C16.8,49.2,11.3,35.7,9.7,28.2c-2,9.2,3.6,24.4,12.7,28.8C37.4,64.1,58.8,57.6,62.8,44z"/>
						</g>
					</g>
				</g>
				<g>
					<g>
						<path fill="none" stroke="#000000" stroke-width="6" stroke-linejoin="round" d="M56.1,28.7c0,0,0.1,0.1,0.4,0.2
							c0.1,0,0.1,0.1,0.2,0.1c0.1,0.1,0.2,0.2,0.3,0.2c0.2,0.2,0.4,0.4,0.6,0.6c0.4,0.5,0.8,1.1,1.1,1.9c0.3,0.7,0.6,1.6,0.7,2.6
							c0.1,1,0.2,2.1,0,3.2c-0.2,1.1-0.5,2.3-1.2,3.5c-0.1,0.1-0.1,0.2-0.2,0.4l-0.4,0.4c-0.2,0.3-0.5,0.5-0.8,0.8
							c-0.5,0.5-1.2,0.8-1.8,1.2c-1.3,0.6-3,0.8-4.7,0.3l-0.6-0.2c-0.2-0.1-0.4-0.2-0.6-0.3c-0.2-0.1-0.4-0.2-0.5-0.3l-0.5-0.4
							c-0.3-0.3-0.6-0.6-0.8-0.9L47,41.3c-0.1-0.2-0.2-0.3-0.3-0.5c-0.4-0.7-0.6-1.4-0.8-2.1c-0.1-0.3-0.1-0.7-0.2-1l-0.1-0.5l0-0.3
							l0-0.4c0-0.3,0-0.6,0-0.9c0-0.4,0.1-0.8,0.1-1.2c0.1-0.7,0.3-1.4,0.6-2.1c0.5-1.3,1.4-2.4,2.4-3.1c1-0.7,2-1.1,3-1.2
							C52,28,52.4,28,52.8,28c0.4,0,0.8,0,1.1,0.1c0.7,0.1,1.2,0.2,1.5,0.4L56.1,28.7L56.1,28.7z M55.3,30.4L55.3,30.4
							c0,0-0.1,0-0.3,0c-0.2,0-0.5,0-0.9,0.1c-0.8,0.2-1.8,1.1-2.6,2.1c-0.4,0.5-0.8,1-1.1,1.6c-0.2,0.3-0.3,0.7-0.3,1
							c0,0.1,0,0.3-0.1,0.4c0,0.3,0,0.6,0,0.8l0,0.1l0,0.1c0,0.1,0-0.2,0-0.1l0,0l0,0l0,0.2l0,0.4c0,0.2,0,0.5,0.1,0.7
							c0.1,0.4,0.2,0.9,0.3,1.3c0.3,0.8,0.7,1.4,1.4,1.8c0.6,0.4,1.6,0.5,2.5,0.3c0.5-0.1,0.9-0.3,1.3-0.5c0.2-0.1,0.4-0.2,0.6-0.4
							l0.2-0.2c0.1-0.1,0.2-0.2,0.3-0.3c0.6-0.7,1.1-1.7,1.3-2.6c0.3-0.9,0.3-1.9,0.3-2.7c0-0.8-0.2-1.6-0.5-2.2
							c-0.3-0.6-0.7-1-1-1.3c-0.2-0.2-0.3-0.2-0.5-0.3c-0.1,0-0.1-0.1-0.2-0.1c-0.1,0-0.2-0.1-0.2-0.1
							C55.5,30.5,55.4,30.4,55.3,30.4z"/>
						<path fill="none" stroke="#000000" stroke-width="6" stroke-linejoin="round" d="M55.6,29.5c3.5,1.4,4.1,7,1.9,10.5
							s-9.3,4.8-9.9-3.4C47.2,31.2,52.7,28.4,55.6,29.5z"/>
					</g>
					<path fill="none" stroke="#000000" stroke-width="6" stroke-linejoin="round" d="M58,37.6c-0.4,0.9-1.2,1.3-1.9,0.9
						c-0.7-0.4-0.9-1.5-0.5-2.4c0.4-0.9,1.2-1.3,1.9-0.9S58.4,36.7,58,37.6z"/>
				</g>
				<g>
					<path fill="none" stroke="#000000" stroke-width="6" stroke-linejoin="round" d="M61.7,38.2c-2.1-0.4-5,3.5-5.5,5.9
						c-0.8,3.7,1.5,6.9,3.2,6.7c1.7-0.1,8.9-4,9.2-5.3C68.7,44.9,63.2,38.5,61.7,38.2z"/>
					<g>
						<path fill="none" stroke="#000000" stroke-width="6" stroke-linejoin="round" d="M61,39.5c1.4-1,6.8,4.4,6.2,5.1
							s-9.8-0.9-9.1-2S59.6,40.5,61,39.5z"/>
						<path fill="none" stroke="#000000" stroke-width="6" stroke-linejoin="round" d="M61,39.5c1.4-1,6.8,4.4,6.2,5.1
							s-9.8-0.9-9.1-2S59.6,40.5,61,39.5z"/>
					</g>
					<g>
						<path fill="none" stroke="#000000" stroke-width="6" stroke-linejoin="round" d="M68.1,46.2c-3.4,0.3-9.3,0.1-12.1-0.7
							c-0.1,3.1,1.9,5.5,3.4,5.4C60.8,50.8,66.5,47.8,68.1,46.2z"/>
						<path fill="none" stroke="#000000" stroke-width="6" stroke-linejoin="round" d="M68.1,46.2c-3.4,0.3-9.3,0.1-12.1-0.7
							c-0.1,3.1,1.9,5.5,3.4,5.4C60.8,50.8,66.5,47.8,68.1,46.2z"/>
					</g>
				</g>
			</g>
			<g>
				<g>
					<g>
						<g>
							<path fill="#4F504F" d="M62.2,32.2c-3.6-9.5-16.5-13.4-29.6-11.4S15,25.5,10.8,24.9C6.3,33.3,12.1,52,22.4,57
								C41.2,66,70.2,53.4,62.2,32.2z"/>
						</g>
						<g>
							<path fill="#706D6D" d="M30.7,24.6c13.2-2,26,1.8,29.6,11.4c2.3,6,1.4,8.4-1.1,12.8c3.5-4.6,5.5-7.9,2.7-15.2
								C58.3,24,45.5,20.2,32.3,22.2c-13.2,2-15.3,3.1-20.9,3.6C13.7,26.9,18.2,27.1,30.7,24.6z"/>
						</g>
						<path fill="#FFFFFF" d="M62.2,32.2c-0.7-1.8-1.7-3.3-2.9-4.7c-4.5-1.7-10.5,0-15.5,2.3c-8,3.7-21.4,17-21.3,27.2
							C41.2,66,70.2,53.4,62.2,32.2z"/>
						<g opacity="0.5">
							<path fill="#4F504F" d="M62.8,44c-6.8,6.2-18.7,9.3-30.9,7.5C16.8,49.2,11.3,35.7,9.7,28.2c-2,9.2,3.6,24.4,12.7,28.8
								C37.4,64.1,58.8,57.6,62.8,44z"/>
						</g>
					</g>
				</g>
				<g>
					<g>
						<path d="M56.1,28.7c0,0,0.1,0.1,0.4,0.2c0.1,0,0.1,0.1,0.2,0.1c0.1,0.1,0.2,0.2,0.3,0.2c0.2,0.2,0.4,0.4,0.6,0.6
							c0.4,0.5,0.8,1.1,1.1,1.9c0.3,0.7,0.6,1.6,0.7,2.6c0.1,1,0.2,2.1,0,3.2c-0.2,1.1-0.5,2.3-1.2,3.5c-0.1,0.1-0.1,0.2-0.2,0.4
							l-0.4,0.4c-0.2,0.3-0.5,0.5-0.8,0.8c-0.5,0.5-1.2,0.8-1.8,1.2c-1.3,0.6-3,0.8-4.7,0.3l-0.6-0.2c-0.2-0.1-0.4-0.2-0.6-0.3
							c-0.2-0.1-0.4-0.2-0.5-0.3l-0.5-0.4c-0.3-0.3-0.6-0.6-0.8-0.9L47,41.3c-0.1-0.2-0.2-0.3-0.3-0.5c-0.4-0.7-0.6-1.4-0.8-2.1
							c-0.1-0.3-0.1-0.7-0.2-1l-0.1-0.5l0-0.3l0-0.4c0-0.3,0-0.6,0-0.9c0-0.4,0.1-0.8,0.1-1.2c0.1-0.7,0.3-1.4,0.6-2.1
							c0.5-1.3,1.4-2.4,2.4-3.1c1-0.7,2-1.1,3-1.2C52,28,52.4,28,52.8,28c0.4,0,0.8,0,1.1,0.1c0.7,0.1,1.2,0.2,1.5,0.4L56.1,28.7
							L56.1,28.7z M55.3,30.4L55.3,30.4c0,0-0.1,0-0.3,0c-0.2,0-0.5,0-0.9,0.1c-0.8,0.2-1.8,1.1-2.6,2.1c-0.4,0.5-0.8,1-1.1,1.6
							c-0.2,0.3-0.3,0.7-0.3,1c0,0.1,0,0.3-0.1,0.4c0,0.3,0,0.6,0,0.8l0,0.1l0,0.1c0,0.1,0-0.2,0-0.1l0,0l0,0l0,0.2l0,0.4
							c0,0.2,0,0.5,0.1,0.7c0.1,0.4,0.2,0.9,0.3,1.3c0.3,0.8,0.7,1.4,1.4,1.8c0.6,0.4,1.6,0.5,2.5,0.3c0.5-0.1,0.9-0.3,1.3-0.5
							c0.2-0.1,0.4-0.2,0.6-0.4l0.2-0.2c0.1-0.1,0.2-0.2,0.3-0.3c0.6-0.7,1.1-1.7,1.3-2.6c0.3-0.9,0.3-1.9,0.3-2.7
							c0-0.8-0.2-1.6-0.5-2.2c-0.3-0.6-0.7-1-1-1.3c-0.2-0.2-0.3-0.2-0.5-0.3c-0.1,0-0.1-0.1-0.2-0.1c-0.1,0-0.2-0.1-0.2-0.1
							C55.5,30.5,55.4,30.4,55.3,30.4z"/>
						<path fill="#FFFFFF" d="M55.6,29.5c3.5,1.4,4.1,7,1.9,10.5s-9.3,4.8-9.9-3.4C47.2,31.2,52.7,28.4,55.6,29.5z"/>
					</g>
					<path d="M58,37.6c-0.4,0.9-1.2,1.3-1.9,0.9c-0.7-0.4-0.9-1.5-0.5-2.4c0.4-0.9,1.2-1.3,1.9-0.9S58.4,36.7,58,37.6z"/>
				</g>
				<g>
					<path fill="#F79420" d="M61.7,38.2c-2.1-0.4-5,3.5-5.5,5.9c-0.8,3.7,1.5,6.9,3.2,6.7c1.7-0.1,8.9-4,9.2-5.3
						C68.7,44.9,63.2,38.5,61.7,38.2z"/>
					<g>
						<path fill="#FDCA93" d="M61,39.5c1.4-1,6.8,4.4,6.2,5.1s-9.8-0.9-9.1-2S59.6,40.5,61,39.5z"/>
					</g>
					<g opacity="0.8">
						<path fill="#F26523" d="M68.1,46.2c-3.4,0.3-9.3,0.1-12.1-0.7c-0.1,3.1,1.9,5.5,3.4,5.4C60.8,50.8,66.5,47.8,68.1,46.2z"/>
					</g>
				</g>
			</g>
		</g>
		<g>
			<g>
				<path d="M38.9,25.4c0,0,0.1,0,0.2,0.1c0.1,0,0.1,0.1,0.2,0.1c0,0,0.1,0.1,0.2,0.1c0.1,0.1,0.2,0.2,0.3,0.3
					c0.4,0.5,0.7,1.1,0.9,1.8c0.2,0.8,0.4,1.7,0.5,2.8c0.1,1.1,0.2,2.3-0.1,3.6c-0.2,1.3-0.8,2.7-1.4,4c-0.4,0.7-0.8,1.4-1.3,2
					c-0.3,0.3-0.5,0.7-0.9,1c-0.4,0.3-0.7,0.7-1.5,0.9c-0.4,0.1-0.9,0.2-1.6,0l-0.7-0.3c-0.4-0.1-0.8-0.3-1.2-0.4
					c-0.8-0.3-1.5-0.6-2.3-1c-1.5-0.7-3-1.4-4.5-2.3c-1.5-0.9-2.9-1.9-4.3-3.4c-0.7-0.7-1.4-1.6-1.9-2.9c-0.2-0.7-0.4-1.6-0.3-2.5
					c0-0.1,0-0.2,0.1-0.4l0-0.2l0-0.1l0.1-0.2l0-0.1l0.1-0.3c0.2-0.5,0.4-0.8,0.7-1.1c1-1.2,2.1-1.7,3-2.1c0.9-0.4,1.8-0.5,2.6-0.7
					c1.6-0.3,3-0.3,4.3-0.2c2.6,0.1,4.7,0.5,6.2,0.7c0.7,0.1,1.3,0.3,1.8,0.4c0.4,0.1,0.7,0.2,0.7,0.2L38.9,25.4z M38,27.7
					c0,0-0.2,0-0.4,0c-0.3,0-0.8,0-1.5,0c-1.3,0-3.3,0.2-5.6,0.8c-1.1,0.3-2.3,0.6-3.4,1c-0.6,0.2-1.1,0.5-1.5,0.7
					c-0.4,0.2-0.7,0.5-0.6,0.5c0,0,0,0,0.1-0.2l0-0.1l0,0l0,0l0,0.1c0-0.1,0,0.1,0-0.1l0,0l0,0l0,0l0-0.1c0-0.2,0-0.3,0-0.3
					c0,0.1,0.3,0.6,0.7,1c0.8,0.9,1.9,1.9,3,2.9c1.1,1,2.4,1.9,3.6,2.9c0.6,0.5,1.3,0.9,1.9,1.3c0.3,0.2,0.6,0.4,0.9,0.6
					c0.1,0.1,0.4,0.2,0.3,0.2c-0.3-0.1-0.5,0-0.5,0c0,0.1,0.2,0,0.5-0.1c0.2-0.1,0.5-0.3,0.7-0.5c0.5-0.4,0.9-0.9,1.3-1.4
					c0.8-1,1.3-2.1,1.7-3.1c0.3-1,0.3-2.1,0.2-3c-0.2-0.9-0.5-1.6-0.8-2.2C38.4,28.2,38.1,27.9,38,27.7z"/>
				<path fill="#4F504F" d="M38.4,26.5c1.1,0.3,2.8,4.5,1.7,8c-1.1,3.5-3.9,6.6-5.1,6.1s-13.9-7-12.7-11.1
					C23.3,25.6,35.9,25.8,38.4,26.5z"/>
			</g>
			<g>
				<path fill="#797575" d="M38.2,30.5c1.4,2.1-1,9.1-3.2,8.6s-9.4-4.7-8.9-7.4C26.5,29,36.2,27.4,38.2,30.5z"/>
			</g>
		</g>
		<g>
			<g>
				<path fill="none" stroke="#010101" stroke-width="5.2293" stroke-miterlimit="10" d="M18.4,49.2c-1.9,2.4-5.6,4-8.7,3
					c-3.5-1.1-6.2-3.3-6.2-5.5c-0.1-2.2,13.4-5.1,14.7-3.1C19,45,19.7,47.5,18.4,49.2z"/>
				<path fill="#F79420" d="M18.4,49.2c-1.9,2.4-5.6,4-8.7,3c-3.5-1.1-6.2-3.3-6.2-5.5c-0.1-2.2,13.4-5.1,14.7-3.1
					C19,45,19.7,47.5,18.4,49.2z"/>
			</g>
			<g>
				<path fill="#FDCA93" d="M4.1,48.4c1,1.6,3.1,2.9,5.6,3.7c2.5,0.8,5.3,0,7.3-1.6C13.3,47.7,7.8,47.3,4.1,48.4z"/>
			</g>
			<g>
				<path fill="#F26523" d="M3.5,46.6c0,0.4,0.1,0.7,0.2,1.1c2.1-1,5.5-1.9,7.8-2.2c2.8-0.4,6-0.3,7.6,1.6c0.1-1.3-0.4-2.7-1-3.6
					C16.9,41.5,3.4,44.4,3.5,46.6z"/>
			</g>
		</g>
	</g>
</g>
</svg>
